<mxfile host="65bd71144e">
    <diagram name="Page-1" id="WrW_hiQWdklCuFgKCsrq">
        <mxGraphModel dx="3293" dy="2530" grid="1" gridSize="10" guides="1" tooltips="1" connect="1" arrows="1" fold="1" page="1" pageScale="1" pageWidth="1000" pageHeight="1000" background="none" math="0" shadow="0">
            <root>
                <mxCell id="0"/>
                <mxCell id="1" parent="0"/>
                <mxCell id="k_3_dkDdyY0LmlExJvw3-220" value="" style="rounded=0;whiteSpace=wrap;html=1;fillColor=none;fontColor=#000000;strokeColor=#B09500;strokeWidth=15;" parent="1" vertex="1">
                    <mxGeometry x="-940" y="-140" width="910" height="595" as="geometry"/>
                </mxCell>
                <mxCell id="k_3_dkDdyY0LmlExJvw3-192" value="" style="rounded=0;whiteSpace=wrap;html=1;fillColor=none;strokeColor=default;fontColor=#ffffff;strokeWidth=15;" parent="1" vertex="1">
                    <mxGeometry x="890" y="460" width="720" height="530" as="geometry"/>
                </mxCell>
                <mxCell id="k_3_dkDdyY0LmlExJvw3-175" value="" style="rounded=0;whiteSpace=wrap;html=1;fillColor=none;strokeColor=#d79b00;strokeWidth=15;" parent="1" vertex="1">
                    <mxGeometry x="990" y="-35" width="773" height="300" as="geometry"/>
                </mxCell>
                <mxCell id="k_3_dkDdyY0LmlExJvw3-164" value="" style="rounded=0;whiteSpace=wrap;html=1;fillColor=none;strokeColor=#FF0000;strokeWidth=15;" parent="1" vertex="1">
                    <mxGeometry x="-110" y="-960" width="1520" height="800" as="geometry"/>
                </mxCell>
                <mxCell id="k_3_dkDdyY0LmlExJvw3-9" style="rounded=0;orthogonalLoop=1;jettySize=auto;html=1;entryX=0;entryY=1;entryDx=0;entryDy=0;" parent="1" source="k_3_dkDdyY0LmlExJvw3-1" target="k_3_dkDdyY0LmlExJvw3-8" edge="1">
                    <mxGeometry relative="1" as="geometry"/>
                </mxCell>
                <mxCell id="k_3_dkDdyY0LmlExJvw3-10" value="HTTP" style="edgeLabel;html=1;align=center;verticalAlign=middle;resizable=0;points=[];" parent="k_3_dkDdyY0LmlExJvw3-9" vertex="1" connectable="0">
                    <mxGeometry x="-0.211" y="-1" relative="1" as="geometry">
                        <mxPoint as="offset"/>
                    </mxGeometry>
                </mxCell>
                <mxCell id="k_3_dkDdyY0LmlExJvw3-26" style="rounded=0;orthogonalLoop=1;jettySize=auto;html=1;entryX=0.25;entryY=0;entryDx=0;entryDy=0;" parent="1" source="k_3_dkDdyY0LmlExJvw3-1" target="k_3_dkDdyY0LmlExJvw3-25" edge="1">
                    <mxGeometry relative="1" as="geometry"/>
                </mxCell>
                <mxCell id="k_3_dkDdyY0LmlExJvw3-28" value="HTTP" style="edgeLabel;html=1;align=center;verticalAlign=middle;resizable=0;points=[];" parent="k_3_dkDdyY0LmlExJvw3-26" vertex="1" connectable="0">
                    <mxGeometry x="-0.5518" relative="1" as="geometry">
                        <mxPoint as="offset"/>
                    </mxGeometry>
                </mxCell>
                <mxCell id="k_3_dkDdyY0LmlExJvw3-1" value="FlightsBookingApp" style="shape=image;verticalLabelPosition=bottom;labelBackgroundColor=default;verticalAlign=top;aspect=fixed;imageAspect=0;image=data:image/png,iVBORw0KGgoAAAANSUhEUgAAAJwAAACcCAMAAAC9ZjJ/AAAAzFBMVEX////DAC/dADHZADHHAC/dAC3dAC/DAC2+AADaAADCACrcACPbABTBACD1zdHuzdD64+bAABDfNUjCACbHNUfcACfAABnbABn++vvtm6Tfm6PbAA788PLcAB6/AAr99fb32Nvzu8Hcj5fYfojns7nofITRZ2/hU1nogofHMUHMTFrxr7bXen7nbnzcHivCGyjrl5nhQFPHPUPkX2vOWWXka3HtpareO0HgoqTskJjjTF3qvr/fL0DEKTfjVGbTcHjLVVniYGHldnbYiIkh2vxAAAAJGElEQVR4nO1ca0OqTBA2jbsoSCIlClqZaVdTT6bdzvn//+kFDJ2FBXbIy/uB59M55eLT7M4zs7OzlEoFChQoUKBAgQIFChT4LTTt2AySYI2vK/LdlXNsHnHYtfsHReFPVfVxULePzYZA7elZUvhyuXJ6ciKo4lm/fmxGP7C08z98iyv78Ml5MExh0tesYzMrueMXqcrx5TIk55lP1sXplXtUauPZqqWUt9iQC+yn3w6ujkTMc4F2u8mVy0nkPPsZovhZP7y8uMObVocvRxAh5/NT9dGle0BiljtvthUuyoxKzoOsisaFexj5085nSpvGLImcbz/dHLzue3otu/fmay2dWjI5f/mpj6OlvT95cXrDitRMZJZKbu0eJ3dXe4kelnv9p9lJmM4QfBo5f/mZxuTS3bX5avNnqcOlGS3g1rgV0tmdCH50e63vjp9z/lKpZtgsgLLoqxnkfBj6ydfFTrxXW75JrUybrQ3Xdpxulul+lp8ujpa/dd/esNFWsmmt0bkvlQYmC7nAft3bu2VuYnZ92GpRtTbBcB3PFJrKZLoAsmHql7mSP3fxIrWYZjOE8tdb5tYny6rbzq8pTvsuiphlzxsPnSaGmU+u549dosj506s+nr2yq7M1a7XZXACCa6xHT2QkOy/56+oDZu/N0loqpPF68JWIJefzM5mndZWDHNf4WdnOLdp0Hrl3ZnIf2OXmofUUjr5gVpMtjBEzuesO3nCrjaRq7+xqEsK8ZCZ3XkWTU663w3FqEkC/YCbXk9DkJBCLNLxLiOyxwkWTU2Zw/ABtOtFlJqe1kdz4JvGXLxEx7IccexJgV5Bawt0QCm99IdVEOGGPsPYbklx7TD7gqosjZ4zYyTkz5jRpbTgl+gQTN6/GgD01toY4cu3z6BP6ONOpd4i8/amFMlwjtpw1XAwzX9m5leaoEAEFOMQdSk1Q5Hqpu9PYrFJ0QEPNq4GpRtV4BDnlg/aIkcHOTRAwlVB3hSDXdmmPqCNimPBOfUQC7D/sQqfMqEmsM2U3nTBB7XIw5Mb0R7yyu4Q8wXArvTGnm9wKDHPd7b8t9rROZk81fdwzqzAhwMN/4D99nZWcOkCRW7CqMMeD5WJJIlB6mzk3MfsocmPWpKm1gKOqXbgA/7FuJrq4onuNMd3kV+52kHPDyV/AdHXWVSfiDnxsRnJEBlxrVk4N+D2saoJINQMjMJKTgOG8TVvlVL0DP2AVYhFXrHPY9tXNNzDGs3blVBChnp4xmU4+wRU6LTahq8L1720oK6fkJu+KSU2MEbIKe80idNwNmA/HiyoeOWECfmaPWNI69RPHrbRgyehaUID9NMsnp0Jd6LOoCVLmvHSTYdPPS2BAsO/wzyFUuB+wWFxCx6SagR0YQkR1CAZo1fCkWofC8MlgOh178LnMrh7yZRcMCIo/wQkOUZRxjUwhFgxs3Zoh3SS2Dk6Q2AfkhEc4r5+ZaoJLNX1ojUyha9XA5+eBd6/PvlS4hpaZ8yqfYQ8kvDiZwa35DD5ufze35IwpVPzMTaL8hT7N+c4iJ8GV4lb5LTlBd8GvMmvE8heWW2mWESKaNzBOvaw1++dIU52CX9lZMczApZo+hhkqrEABDvOE8LyViORZQqyyl1xDZKgwt4KGC+NJSE6Fmp9VI0ZrcGbptQUF2A69JyQnf0HqGTViRMl18/emkuOr8Ns34WRzjK7DL8yoESNKriGsVHIdaLjShxIlR7hExmEdMtUMkEaO56AAa5Lyg6Yagsi8l6kxTMRzSz1jan7DT9YW5yEuQhBNalZaWief5CCXdsYk9XDPek1ZdcY0e3wMKUJHlCCYYCSbLofMpZ4xtefYh10kbyYQJ0tb9BI3/dwzuq9BS2446ebpQqglkussskdHkVwj7ubp70wuvUo5GhoShVgw8pBLTDf99hE8kmrE8m2e3hc7Id3klVr24DjqCeV1GXGytIXzTRe65ixXl1RSjdhg74uA+Esn10EKcIiEGrFxlz2UAvoBGCnAWo1EnQSxnB6papKT3Dk1REiwdmPNpCpESycgwhJxQo1YxdYi1hjTNv2b9pEAbuQYKtIWSXqiJtBMZ+brc67R4lfnCX5kEflItGdTJL6ZWiPWc/l+yaaECP6BWEZtPp2ccQs/Xaetum7OFj9KuqkQAhwLv7FuVzIFp6mJmLN9M2qXcqQGHN/bxsiR+RClRizkyYN9PMeETiEE2C1H2cfICYRLWPEYZpzlJBc7Y+IVQoDjGV+8iZmsvb3GXAJ5srRF7IyJbB+xqgxd/aRL2LHOP3TJNUTsjInMgJdxh6G0f5MHILHSRDfhQDQT0TMmrkn8+iYeeynkyFK5I0bUBHmytEW034o0XK0Sd2YKOWFCmO4yYroc2/01NNIbQf+eD1rvCa2rn4xPdZkwnSDnbbPWnol0UyFKENQDKBq5yPnMgFATfMk1hP1CrCqJeA61CkW9D0G6xJIQYmOa936E9RcKXaR9JK7QSeQiUvYO1QTVxESCSDfbRPrgPtD2ZlRywjthHaJGrP4r5cUTSDe5D1cDoBcr6Ndc1L4NRtbPZPir3OTmwHL8qgFB0ZFEcsL7GQSswqp5ahFr9GBbP89B0DfcCReEBBkCcBP0X9yIWFRxXX6pt5co893995vLTO6HgmkFR5Ez1Kn7C2o+ei8Se18TgpwsTvNP6QbO+IH5CgIzOdl83NXl68WKsXuIlZz5nl9CYtCGUvIFQyw5QRUvd3spUvvbZHBcFnKq+rn7+5rLj2zPyCYni6Md+AEF4+csz8giJ5uTvd2yds4r6VfB0skJ5uNurhgmwL7upHlGKjnVvNz3qxHc62pyzEghZ+h37p6p+ag9J12pTiZndM8O9caG3k0CvaSsRB8d8G0D9rxD9Qx6Jmx2Xw/7Hg5rWKHkwtSt4ePl4V9h4l5LMc+g1ErEg/gBhd53NNmLVTbVr+O9uWQccVySnNA9pB/E4cw5GNIgOUE19hoPWGAvHjo0cqbc/z+8Kse933jGhpwhDtxj8/pBbfYT0jbvyBn8X97g48HqNQLPWHcedt+vjv/yHgLzP511K645wTdO7R32U7VTOTX1i//nK7e0++Y+9ge7wnI/+4MCBQoUKFCgwG7wHz59yhOnw6UMAAAAAElFTkSuQmCC;" parent="1" vertex="1">
                    <mxGeometry x="90" y="50" width="90" height="90" as="geometry"/>
                </mxCell>
                <mxCell id="k_3_dkDdyY0LmlExJvw3-11" style="rounded=0;orthogonalLoop=1;jettySize=auto;html=1;entryX=0;entryY=1;entryDx=0;entryDy=0;" parent="1" source="k_3_dkDdyY0LmlExJvw3-2" target="k_3_dkDdyY0LmlExJvw3-3" edge="1">
                    <mxGeometry relative="1" as="geometry"/>
                </mxCell>
                <mxCell id="k_3_dkDdyY0LmlExJvw3-20" value="HTTP" style="edgeLabel;html=1;align=center;verticalAlign=middle;resizable=0;points=[];" parent="k_3_dkDdyY0LmlExJvw3-11" vertex="1" connectable="0">
                    <mxGeometry x="-0.0861" y="-2" relative="1" as="geometry">
                        <mxPoint as="offset"/>
                    </mxGeometry>
                </mxCell>
                <mxCell id="k_3_dkDdyY0LmlExJvw3-12" style="rounded=0;orthogonalLoop=1;jettySize=auto;html=1;entryX=0;entryY=0.75;entryDx=0;entryDy=0;" parent="1" source="k_3_dkDdyY0LmlExJvw3-2" target="k_3_dkDdyY0LmlExJvw3-4" edge="1">
                    <mxGeometry relative="1" as="geometry"/>
                </mxCell>
                <mxCell id="k_3_dkDdyY0LmlExJvw3-21" value="HTTP" style="edgeLabel;html=1;align=center;verticalAlign=middle;resizable=0;points=[];" parent="k_3_dkDdyY0LmlExJvw3-12" vertex="1" connectable="0">
                    <mxGeometry x="-0.1697" y="-2" relative="1" as="geometry">
                        <mxPoint as="offset"/>
                    </mxGeometry>
                </mxCell>
                <mxCell id="k_3_dkDdyY0LmlExJvw3-13" style="rounded=0;orthogonalLoop=1;jettySize=auto;html=1;entryX=0;entryY=0.5;entryDx=0;entryDy=0;" parent="1" source="k_3_dkDdyY0LmlExJvw3-2" target="k_3_dkDdyY0LmlExJvw3-5" edge="1">
                    <mxGeometry relative="1" as="geometry"/>
                </mxCell>
                <mxCell id="k_3_dkDdyY0LmlExJvw3-22" value="HTTP" style="edgeLabel;html=1;align=center;verticalAlign=middle;resizable=0;points=[];" parent="k_3_dkDdyY0LmlExJvw3-13" vertex="1" connectable="0">
                    <mxGeometry x="-0.2235" y="3" relative="1" as="geometry">
                        <mxPoint x="19" y="-3" as="offset"/>
                    </mxGeometry>
                </mxCell>
                <mxCell id="k_3_dkDdyY0LmlExJvw3-14" style="rounded=0;orthogonalLoop=1;jettySize=auto;html=1;entryX=0;entryY=0.25;entryDx=0;entryDy=0;" parent="1" source="k_3_dkDdyY0LmlExJvw3-2" target="k_3_dkDdyY0LmlExJvw3-6" edge="1">
                    <mxGeometry relative="1" as="geometry"/>
                </mxCell>
                <mxCell id="k_3_dkDdyY0LmlExJvw3-23" value="HTTP" style="edgeLabel;html=1;align=center;verticalAlign=middle;resizable=0;points=[];" parent="k_3_dkDdyY0LmlExJvw3-14" vertex="1" connectable="0">
                    <mxGeometry x="-0.1146" y="1" relative="1" as="geometry">
                        <mxPoint as="offset"/>
                    </mxGeometry>
                </mxCell>
                <mxCell id="k_3_dkDdyY0LmlExJvw3-15" style="rounded=0;orthogonalLoop=1;jettySize=auto;html=1;entryX=0;entryY=0.375;entryDx=0;entryDy=0;entryPerimeter=0;" parent="1" source="k_3_dkDdyY0LmlExJvw3-2" target="k_3_dkDdyY0LmlExJvw3-7" edge="1">
                    <mxGeometry relative="1" as="geometry"/>
                </mxCell>
                <mxCell id="k_3_dkDdyY0LmlExJvw3-24" value="HTTP" style="edgeLabel;html=1;align=center;verticalAlign=middle;resizable=0;points=[];" parent="k_3_dkDdyY0LmlExJvw3-15" vertex="1" connectable="0">
                    <mxGeometry x="-0.1129" y="-2" relative="1" as="geometry">
                        <mxPoint x="-16" y="-8" as="offset"/>
                    </mxGeometry>
                </mxCell>
                <mxCell id="k_3_dkDdyY0LmlExJvw3-27" style="rounded=0;orthogonalLoop=1;jettySize=auto;html=1;entryX=0;entryY=0.25;entryDx=0;entryDy=0;" parent="1" source="k_3_dkDdyY0LmlExJvw3-2" target="k_3_dkDdyY0LmlExJvw3-25" edge="1">
                    <mxGeometry relative="1" as="geometry"/>
                </mxCell>
                <mxCell id="k_3_dkDdyY0LmlExJvw3-29" value="HTTP" style="edgeLabel;html=1;align=center;verticalAlign=middle;resizable=0;points=[];" parent="k_3_dkDdyY0LmlExJvw3-27" vertex="1" connectable="0">
                    <mxGeometry x="-0.1794" y="-2" relative="1" as="geometry">
                        <mxPoint as="offset"/>
                    </mxGeometry>
                </mxCell>
                <mxCell id="k_3_dkDdyY0LmlExJvw3-2" value="AccommodationBookingApp" style="shape=image;verticalLabelPosition=bottom;labelBackgroundColor=default;verticalAlign=top;aspect=fixed;imageAspect=0;image=data:image/png,iVBORw0KGgoAAAANSUhEUgAAAJwAAACcCAMAAAC9ZjJ/AAAAzFBMVEX////DAC/dADHZADHHAC/dAC3dAC/DAC2+AADaAADCACrcACPbABTBACD1zdHuzdD64+bAABDfNUjCACbHNUfcACfAABnbABn++vvtm6Tfm6PbAA788PLcAB6/AAr99fb32Nvzu8Hcj5fYfojns7nofITRZ2/hU1nogofHMUHMTFrxr7bXen7nbnzcHivCGyjrl5nhQFPHPUPkX2vOWWXka3HtpareO0HgoqTskJjjTF3qvr/fL0DEKTfjVGbTcHjLVVniYGHldnbYiIkh2vxAAAAJGElEQVR4nO1ca0OqTBA2jbsoSCIlClqZaVdTT6bdzvn//+kFDJ2FBXbIy/uB59M55eLT7M4zs7OzlEoFChQoUKBAgQIFChT4LTTt2AySYI2vK/LdlXNsHnHYtfsHReFPVfVxULePzYZA7elZUvhyuXJ6ciKo4lm/fmxGP7C08z98iyv78Ml5MExh0tesYzMrueMXqcrx5TIk55lP1sXplXtUauPZqqWUt9iQC+yn3w6ujkTMc4F2u8mVy0nkPPsZovhZP7y8uMObVocvRxAh5/NT9dGle0BiljtvthUuyoxKzoOsisaFexj5085nSpvGLImcbz/dHLzue3otu/fmay2dWjI5f/mpj6OlvT95cXrDitRMZJZKbu0eJ3dXe4kelnv9p9lJmM4QfBo5f/mZxuTS3bX5avNnqcOlGS3g1rgV0tmdCH50e63vjp9z/lKpZtgsgLLoqxnkfBj6ydfFTrxXW75JrUybrQ3Xdpxulul+lp8ujpa/dd/esNFWsmmt0bkvlQYmC7nAft3bu2VuYnZ92GpRtTbBcB3PFJrKZLoAsmHql7mSP3fxIrWYZjOE8tdb5tYny6rbzq8pTvsuiphlzxsPnSaGmU+u549dosj506s+nr2yq7M1a7XZXACCa6xHT2QkOy/56+oDZu/N0loqpPF68JWIJefzM5mndZWDHNf4WdnOLdp0Hrl3ZnIf2OXmofUUjr5gVpMtjBEzuesO3nCrjaRq7+xqEsK8ZCZ3XkWTU663w3FqEkC/YCbXk9DkJBCLNLxLiOyxwkWTU2Zw/ABtOtFlJqe1kdz4JvGXLxEx7IccexJgV5Bawt0QCm99IdVEOGGPsPYbklx7TD7gqosjZ4zYyTkz5jRpbTgl+gQTN6/GgD01toY4cu3z6BP6ONOpd4i8/amFMlwjtpw1XAwzX9m5leaoEAEFOMQdSk1Q5Hqpu9PYrFJ0QEPNq4GpRtV4BDnlg/aIkcHOTRAwlVB3hSDXdmmPqCNimPBOfUQC7D/sQqfMqEmsM2U3nTBB7XIw5Mb0R7yyu4Q8wXArvTGnm9wKDHPd7b8t9rROZk81fdwzqzAhwMN/4D99nZWcOkCRW7CqMMeD5WJJIlB6mzk3MfsocmPWpKm1gKOqXbgA/7FuJrq4onuNMd3kV+52kHPDyV/AdHXWVSfiDnxsRnJEBlxrVk4N+D2saoJINQMjMJKTgOG8TVvlVL0DP2AVYhFXrHPY9tXNNzDGs3blVBChnp4xmU4+wRU6LTahq8L1720oK6fkJu+KSU2MEbIKe80idNwNmA/HiyoeOWECfmaPWNI69RPHrbRgyehaUID9NMsnp0Jd6LOoCVLmvHSTYdPPS2BAsO/wzyFUuB+wWFxCx6SagR0YQkR1CAZo1fCkWofC8MlgOh178LnMrh7yZRcMCIo/wQkOUZRxjUwhFgxs3Zoh3SS2Dk6Q2AfkhEc4r5+ZaoJLNX1ojUyha9XA5+eBd6/PvlS4hpaZ8yqfYQ8kvDiZwa35DD5ufze35IwpVPzMTaL8hT7N+c4iJ8GV4lb5LTlBd8GvMmvE8heWW2mWESKaNzBOvaw1++dIU52CX9lZMczApZo+hhkqrEABDvOE8LyViORZQqyyl1xDZKgwt4KGC+NJSE6Fmp9VI0ZrcGbptQUF2A69JyQnf0HqGTViRMl18/emkuOr8Ns34WRzjK7DL8yoESNKriGsVHIdaLjShxIlR7hExmEdMtUMkEaO56AAa5Lyg6Yagsi8l6kxTMRzSz1jan7DT9YW5yEuQhBNalZaWief5CCXdsYk9XDPek1ZdcY0e3wMKUJHlCCYYCSbLofMpZ4xtefYh10kbyYQJ0tb9BI3/dwzuq9BS2446ebpQqglkussskdHkVwj7ubp70wuvUo5GhoShVgw8pBLTDf99hE8kmrE8m2e3hc7Id3klVr24DjqCeV1GXGytIXzTRe65ixXl1RSjdhg74uA+Esn10EKcIiEGrFxlz2UAvoBGCnAWo1EnQSxnB6papKT3Dk1REiwdmPNpCpESycgwhJxQo1YxdYi1hjTNv2b9pEAbuQYKtIWSXqiJtBMZ+brc67R4lfnCX5kEflItGdTJL6ZWiPWc/l+yaaECP6BWEZtPp2ccQs/Xaetum7OFj9KuqkQAhwLv7FuVzIFp6mJmLN9M2qXcqQGHN/bxsiR+RClRizkyYN9PMeETiEE2C1H2cfICYRLWPEYZpzlJBc7Y+IVQoDjGV+8iZmsvb3GXAJ5srRF7IyJbB+xqgxd/aRL2LHOP3TJNUTsjInMgJdxh6G0f5MHILHSRDfhQDQT0TMmrkn8+iYeeynkyFK5I0bUBHmytEW034o0XK0Sd2YKOWFCmO4yYroc2/01NNIbQf+eD1rvCa2rn4xPdZkwnSDnbbPWnol0UyFKENQDKBq5yPnMgFATfMk1hP1CrCqJeA61CkW9D0G6xJIQYmOa936E9RcKXaR9JK7QSeQiUvYO1QTVxESCSDfbRPrgPtD2ZlRywjthHaJGrP4r5cUTSDe5D1cDoBcr6Ndc1L4NRtbPZPir3OTmwHL8qgFB0ZFEcsL7GQSswqp5ahFr9GBbP89B0DfcCReEBBkCcBP0X9yIWFRxXX6pt5co893995vLTO6HgmkFR5Ez1Kn7C2o+ei8Se18TgpwsTvNP6QbO+IH5CgIzOdl83NXl68WKsXuIlZz5nl9CYtCGUvIFQyw5QRUvd3spUvvbZHBcFnKq+rn7+5rLj2zPyCYni6Md+AEF4+csz8giJ5uTvd2yds4r6VfB0skJ5uNurhgmwL7upHlGKjnVvNz3qxHc62pyzEghZ+h37p6p+ag9J12pTiZndM8O9caG3k0CvaSsRB8d8G0D9rxD9Qx6Jmx2Xw/7Hg5rWKHkwtSt4ePl4V9h4l5LMc+g1ErEg/gBhd53NNmLVTbVr+O9uWQccVySnNA9pB/E4cw5GNIgOUE19hoPWGAvHjo0cqbc/z+8Kse933jGhpwhDtxj8/pBbfYT0jbvyBn8X97g48HqNQLPWHcedt+vjv/yHgLzP511K645wTdO7R32U7VTOTX1i//nK7e0++Y+9ge7wnI/+4MCBQoUKFCgwG7wHz59yhOnw6UMAAAAAElFTkSuQmCC;" parent="1" vertex="1">
                    <mxGeometry x="90" y="280" width="90" height="90" as="geometry"/>
                </mxCell>
                <mxCell id="k_3_dkDdyY0LmlExJvw3-44" style="rounded=0;orthogonalLoop=1;jettySize=auto;html=1;entryX=0.5;entryY=0;entryDx=0;entryDy=0;" parent="1" source="k_3_dkDdyY0LmlExJvw3-3" target="k_3_dkDdyY0LmlExJvw3-6" edge="1">
                    <mxGeometry relative="1" as="geometry"/>
                </mxCell>
                <mxCell id="k_3_dkDdyY0LmlExJvw3-47" value="Grpc" style="edgeLabel;html=1;align=center;verticalAlign=middle;resizable=0;points=[];" parent="k_3_dkDdyY0LmlExJvw3-44" vertex="1" connectable="0">
                    <mxGeometry x="0.28" relative="1" as="geometry">
                        <mxPoint as="offset"/>
                    </mxGeometry>
                </mxCell>
                <mxCell id="k_3_dkDdyY0LmlExJvw3-49" style="rounded=0;orthogonalLoop=1;jettySize=auto;html=1;entryX=0.5;entryY=0;entryDx=0;entryDy=0;exitX=1;exitY=0.5;exitDx=0;exitDy=0;" parent="1" source="k_3_dkDdyY0LmlExJvw3-3" target="k_3_dkDdyY0LmlExJvw3-5" edge="1">
                    <mxGeometry relative="1" as="geometry"/>
                </mxCell>
                <mxCell id="k_3_dkDdyY0LmlExJvw3-52" value="Grpc" style="edgeLabel;html=1;align=center;verticalAlign=middle;resizable=0;points=[];" parent="k_3_dkDdyY0LmlExJvw3-49" vertex="1" connectable="0">
                    <mxGeometry x="-0.2908" y="-1" relative="1" as="geometry">
                        <mxPoint y="1" as="offset"/>
                    </mxGeometry>
                </mxCell>
                <mxCell id="k_3_dkDdyY0LmlExJvw3-64" style="rounded=0;orthogonalLoop=1;jettySize=auto;html=1;" parent="1" source="k_3_dkDdyY0LmlExJvw3-3" target="k_3_dkDdyY0LmlExJvw3-55" edge="1">
                    <mxGeometry relative="1" as="geometry"/>
                </mxCell>
                <mxCell id="k_3_dkDdyY0LmlExJvw3-3" value="AccommodationMicroservice" style="shape=image;verticalLabelPosition=bottom;labelBackgroundColor=default;verticalAlign=top;aspect=fixed;imageAspect=0;image=data:image/png,iVBORw0KGgoAAAANSUhEUgAAAH0AAAB9CAMAAAC4XpwXAAAAgVBMVEVcLZFtQpz///9aKZBrPptfMZNmNZhXI46vncb7+vxpO5rx7vVmPpdhNpWrmsPn4+5bIZKUfrS4qsxPEopTGozb1eWPdLFiL5bTyt9eJ5P9//pHAIaDZKmzoslNC4nNw9ufirqEaanEudV2UKFySp9/Xaff2+To5uuolMF2VaHz8/LdVtspAAAIMklEQVRogb2biZKrKhCGdUQcydwxxp2YaIyOy/s/4AXUuIBbouevOlXHZfJJs3U3IH1tl25Eybf5yFKkSipKs4f5nUSG/sYvSRvBThL/KJpt2ZqmKBKVomjsWvmJE2fjJ2yhn3wzVe52DeWl2HclNf3TEXQ9ctWrNkV+fYF2Vd1otQVW0o1Yu2oL5FbkzdjYkR6Vq9HtB5TRTvTox97GZnz7ZwV/ke6X96XKFku5l/6HdONx317uV/nvj4X6n6f/bqxvjn/9fZvuq9ZHbCpLnTP/DD223qvwoRQrfoN+eto7sKns5+TwN0X3lc9qvC9NmbL+BP1y3cPqrZTrZQvdvO7Iprqa6+mPvaq8kx2Kph4BXQ8/72i8LBGep+sPTz2ALsTzdBfK8r/Cc3QKPwr/WKKbDH4Q3h63/BH9Esjygfhxvx/S/Rf8KLw/TT8hWT4WryinSXo2oB+C155T9ALK8uF4OxbTnTH8GLzlC+ky4OhH4BVVRL/xRT8Gb/3ydOMsgh+Cvxoc3UVi+gF47TGm+94E/Aj83R/RQ0GTOwyvlUN6NF30I/D3aEB/ckUHiEqA14heLqeijaUI7/Yesj/76dMjrreBMKYCPN41TTNtfkbLzLFCRVKe3N1GZYu3ox495Bo8vLEHiTfGK9RBcRtn3+I95cSS7IK726hog4Sm5hndsLiqht9fw+9q8WySWqBPxk7xK0Sp+zyjF3xfb+nGq07U9fTlskta3NJ1wUDT0r8u3hDP043it9M3eaRk3+0lrT/9dfUddhGSpjf0KJigU5DejQSqmO5c7Z7oE6W9sOiMoitW/2Fr+qihm1Nl92nlON23qWL6dOTDepb+n+iR5tb0U8rDa7rDfNCe06G+RxdGpOqJ0X2B4Wu6UbfM3jio7kenDqYkNnxDPzMvrD8DqbvRNZPS9VI0wTR0j3Ups7M9kPaiK6lO6IZwdmvoMqK277cMsBddUhxCF09vLzrzBBLvAPo9IfRY6M+1dNlLKP6B9qeTAVkSTK4Dugwp7hTsTycPJV3s1HT02vavAVdAv/ZkjQHTdDJdSobYm+zocsDm4hL16KbSo+tGT5eBIebpmiH5wmrv02VAJ4Q20qnpSO3oA0X39XQ7kpJlOmSzYez16fWU8xndSiRxCDOgywH1gJtRqaUz/Idl/5bixXonxKf+GnBfdIqvW910TnWh3k1pIoYZ0FvbwwGd4D/qcSSmkSbCiCFd9hza6cGQLquf0ZVMKoXwMR3IrFLPQ7psf0ZPJZFrwdMbP48MuAO69xFdQpIYztHlgE12cFe6upqOHjobcPekS6vpNYlEF7uWfWW9y017c1gN7Fbv69o8s31IC//rcPR3RxvS5vv9HXiBN02vHQ2dp8PJ+H6xv/fGOlT6RpSCSbrstQn2keUDqzfDa6vpZKzrj/MsdJmhQ1NEP/l9Oaa2mm725jhU/3ZdFUK6fPYF9JFu9lo6meOSLXQ51Rfp36vpZH7v+TaANii/sTyNfU8cvZ7sOnqyouxfM75Nz68Dz8hImmwtyFzXffCzL3Cpnu1V5nZ61Hr2WSq9I2Yzv04f9LhzFzYghESTbz+V1Wa2GimDvFRDIJqiE592wp9/S9vyetSfn4hl/gGexTLzacoD8SyOE8ew/wDPYlhx/H48vo7fxbkLoQCCEC29vRZf5y7EeRsRO3jGt1vhCjvidnyTtxHmrHh5oVNhqmrpzXX4/07T+ToeXlTYiR+heakWv3YNvs3XCXOVY0ETV0UAAUDeClOtwL9ylaI8LVd0/BUPPhIFttWMy8CDMgwU9pHB+QxX4V95WlGOelz0Cx6OSkHs6DhPnhRVJje7cMhkidDtrzIuMlrGdzlqUX5+JGDgwQoC/MPVn5PjijhmIMR/N5xXHnjmOP8j/9Ll0vfy84K1iRE8xXm/n8EIOxmCaYLzml65aSh7fzhJEbnJ+vAsvr82IViXGdEJAA0uc2peEDi4gOQKxx4ZimJMQ3wAcsy+dA4/WJdZmmbRAzs9unfBtTuITOwEhK7TqlMcHFrn8/ma4Da+n9JwTWppogPZwPKeg2tHHGRVfqaGoS7Y+VT9URk5bpLqk3hruB43uxZJVeG0e4PQ65YCSgGdqB2/JvDjtci5dVgq6OBugUb2/Ma2IPv6C170vMogc7HAcDGFE7cOO70GzYRcXHW7MmCB67wx+c8FtvTAby3es6MIz69BT66/Nzo7OC8DWjA24lU48wCAKK+ecksnTdDwyFgMg2weL1h//7rN257UNY5i1yz8r3rUv4VZfMLEK2zpJNLBeRw+inyQgeTwor0H4n0XnQC85fUE61OTm+wip6sWtPfXUwBIqvru3L4d8b4L0Z6TgWDq/v4WZglfF25a/0nYmhpm8W/xkEdNaIif2HPC77fhy088q9ZC1Mtq74P+G7wJ+/ip/TbcXqP91OGn9xqN9lkdgZ/bZ7XawXwbP7fHrL+/7hD8/P464mHuGVeN8Ut7C9t9lYfgl/dVHoj3Qo4l2k97DB4+1uyn/dIPKT10V+0lpsbfv+lBVwSa2EO+d8cLNuwh373fB5v2z5NRbzFOXy+ENp4dIGN+tlflw2zzuQmiwtsjpQLg5M6j+fMyjvx58T3ZmSHMnxW6nT+rfWTfZn9/6ZyU+4H5ged+dE6KyA/f5AMv/PSMGOM/4Xb7I/jc43xcXX5rGx9Z4V5nA6mMAgVrP4C8Wex5LpJKj8w0EHjLQwEUpObuZ0KZTr5ZAm/yCwD0QHnQedhauhHFT5quhd3KBUDsGjzjzceRN9KbT/CTW+yGJc1NpWXoxrfEf+sc9P9Tls0ktOvaUwAAAABJRU5ErkJggg==;" parent="1" vertex="1">
                    <mxGeometry x="460" y="50" width="80" height="80" as="geometry"/>
                </mxCell>
                <mxCell id="k_3_dkDdyY0LmlExJvw3-4" value="AccommodationSuggestionMicroservice" style="shape=image;verticalLabelPosition=bottom;labelBackgroundColor=default;verticalAlign=top;aspect=fixed;imageAspect=0;image=data:image/png,iVBORw0KGgoAAAANSUhEUgAAAH0AAAB9CAMAAAC4XpwXAAAAgVBMVEVcLZFtQpz///9aKZBrPptfMZNmNZhXI46vncb7+vxpO5rx7vVmPpdhNpWrmsPn4+5bIZKUfrS4qsxPEopTGozb1eWPdLFiL5bTyt9eJ5P9//pHAIaDZKmzoslNC4nNw9ufirqEaanEudV2UKFySp9/Xaff2+To5uuolMF2VaHz8/LdVtspAAAIMklEQVRogb2biZKrKhCGdUQcydwxxp2YaIyOy/s/4AXUuIBbouevOlXHZfJJs3U3IH1tl25Eybf5yFKkSipKs4f5nUSG/sYvSRvBThL/KJpt2ZqmKBKVomjsWvmJE2fjJ2yhn3wzVe52DeWl2HclNf3TEXQ9ctWrNkV+fYF2Vd1otQVW0o1Yu2oL5FbkzdjYkR6Vq9HtB5TRTvTox97GZnz7ZwV/ke6X96XKFku5l/6HdONx317uV/nvj4X6n6f/bqxvjn/9fZvuq9ZHbCpLnTP/DD223qvwoRQrfoN+eto7sKns5+TwN0X3lc9qvC9NmbL+BP1y3cPqrZTrZQvdvO7Iprqa6+mPvaq8kx2Kph4BXQ8/72i8LBGep+sPTz2ALsTzdBfK8r/Cc3QKPwr/WKKbDH4Q3h63/BH9Esjygfhxvx/S/Rf8KLw/TT8hWT4WryinSXo2oB+C155T9ALK8uF4OxbTnTH8GLzlC+ky4OhH4BVVRL/xRT8Gb/3ydOMsgh+Cvxoc3UVi+gF47TGm+94E/Aj83R/RQ0GTOwyvlUN6NF30I/D3aEB/ckUHiEqA14heLqeijaUI7/Yesj/76dMjrreBMKYCPN41TTNtfkbLzLFCRVKe3N1GZYu3ox495Bo8vLEHiTfGK9RBcRtn3+I95cSS7IK726hog4Sm5hndsLiqht9fw+9q8WySWqBPxk7xK0Sp+zyjF3xfb+nGq07U9fTlskta3NJ1wUDT0r8u3hDP043it9M3eaRk3+0lrT/9dfUddhGSpjf0KJigU5DejQSqmO5c7Z7oE6W9sOiMoitW/2Fr+qihm1Nl92nlON23qWL6dOTDepb+n+iR5tb0U8rDa7rDfNCe06G+RxdGpOqJ0X2B4Wu6UbfM3jio7kenDqYkNnxDPzMvrD8DqbvRNZPS9VI0wTR0j3Ups7M9kPaiK6lO6IZwdmvoMqK277cMsBddUhxCF09vLzrzBBLvAPo9IfRY6M+1dNlLKP6B9qeTAVkSTK4Dugwp7hTsTycPJV3s1HT02vavAVdAv/ZkjQHTdDJdSobYm+zocsDm4hL16KbSo+tGT5eBIebpmiH5wmrv02VAJ4Q20qnpSO3oA0X39XQ7kpJlOmSzYez16fWU8xndSiRxCDOgywH1gJtRqaUz/Idl/5bixXonxKf+GnBfdIqvW910TnWh3k1pIoYZ0FvbwwGd4D/qcSSmkSbCiCFd9hza6cGQLquf0ZVMKoXwMR3IrFLPQ7psf0ZPJZFrwdMbP48MuAO69xFdQpIYztHlgE12cFe6upqOHjobcPekS6vpNYlEF7uWfWW9y017c1gN7Fbv69o8s31IC//rcPR3RxvS5vv9HXiBN02vHQ2dp8PJ+H6xv/fGOlT6RpSCSbrstQn2keUDqzfDa6vpZKzrj/MsdJmhQ1NEP/l9Oaa2mm725jhU/3ZdFUK6fPYF9JFu9lo6meOSLXQ51Rfp36vpZH7v+TaANii/sTyNfU8cvZ7sOnqyouxfM75Nz68Dz8hImmwtyFzXffCzL3Cpnu1V5nZ61Hr2WSq9I2Yzv04f9LhzFzYghESTbz+V1Wa2GimDvFRDIJqiE592wp9/S9vyetSfn4hl/gGexTLzacoD8SyOE8ew/wDPYlhx/H48vo7fxbkLoQCCEC29vRZf5y7EeRsRO3jGt1vhCjvidnyTtxHmrHh5oVNhqmrpzXX4/07T+ToeXlTYiR+heakWv3YNvs3XCXOVY0ETV0UAAUDeClOtwL9ylaI8LVd0/BUPPhIFttWMy8CDMgwU9pHB+QxX4V95WlGOelz0Cx6OSkHs6DhPnhRVJje7cMhkidDtrzIuMlrGdzlqUX5+JGDgwQoC/MPVn5PjijhmIMR/N5xXHnjmOP8j/9Ll0vfy84K1iRE8xXm/n8EIOxmCaYLzml65aSh7fzhJEbnJ+vAsvr82IViXGdEJAA0uc2peEDi4gOQKxx4ZimJMQ3wAcsy+dA4/WJdZmmbRAzs9unfBtTuITOwEhK7TqlMcHFrn8/ma4Da+n9JwTWppogPZwPKeg2tHHGRVfqaGoS7Y+VT9URk5bpLqk3hruB43uxZJVeG0e4PQ65YCSgGdqB2/JvDjtci5dVgq6OBugUb2/Ma2IPv6C170vMogc7HAcDGFE7cOO70GzYRcXHW7MmCB67wx+c8FtvTAby3es6MIz69BT66/Nzo7OC8DWjA24lU48wCAKK+ecksnTdDwyFgMg2weL1h//7rN257UNY5i1yz8r3rUv4VZfMLEK2zpJNLBeRw+inyQgeTwor0H4n0XnQC85fUE61OTm+wip6sWtPfXUwBIqvru3L4d8b4L0Z6TgWDq/v4WZglfF25a/0nYmhpm8W/xkEdNaIif2HPC77fhy088q9ZC1Mtq74P+G7wJ+/ip/TbcXqP91OGn9xqN9lkdgZ/bZ7XawXwbP7fHrL+/7hD8/P464mHuGVeN8Ut7C9t9lYfgl/dVHoj3Qo4l2k97DB4+1uyn/dIPKT10V+0lpsbfv+lBVwSa2EO+d8cLNuwh373fB5v2z5NRbzFOXy+ENp4dIGN+tlflw2zzuQmiwtsjpQLg5M6j+fMyjvx58T3ZmSHMnxW6nT+rfWTfZn9/6ZyU+4H5ged+dE6KyA/f5AMv/PSMGOM/4Xb7I/jc43xcXX5rGx9Z4V5nA6mMAgVrP4C8Wex5LpJKj8w0EHjLQwEUpObuZ0KZTr5ZAm/yCwD0QHnQedhauhHFT5quhd3KBUDsGjzjzceRN9KbT/CTW+yGJc1NpWXoxrfEf+sc9P9Tls0ktOvaUwAAAABJRU5ErkJggg==;" parent="1" vertex="1">
                    <mxGeometry x="650" y="260" width="80" height="80" as="geometry"/>
                </mxCell>
                <mxCell id="k_3_dkDdyY0LmlExJvw3-48" style="rounded=0;orthogonalLoop=1;jettySize=auto;html=1;entryX=1;entryY=0.75;entryDx=0;entryDy=0;exitX=0.25;exitY=0;exitDx=0;exitDy=0;" parent="1" source="k_3_dkDdyY0LmlExJvw3-5" target="k_3_dkDdyY0LmlExJvw3-3" edge="1">
                    <mxGeometry relative="1" as="geometry">
                        <mxPoint x="590" y="160" as="sourcePoint"/>
                    </mxGeometry>
                </mxCell>
                <mxCell id="k_3_dkDdyY0LmlExJvw3-53" value="Grpc" style="edgeLabel;html=1;align=center;verticalAlign=middle;resizable=0;points=[];" parent="k_3_dkDdyY0LmlExJvw3-48" vertex="1" connectable="0">
                    <mxGeometry x="-0.3162" relative="1" as="geometry">
                        <mxPoint as="offset"/>
                    </mxGeometry>
                </mxCell>
                <mxCell id="k_3_dkDdyY0LmlExJvw3-63" style="rounded=0;orthogonalLoop=1;jettySize=auto;html=1;entryX=0;entryY=0.75;entryDx=0;entryDy=0;" parent="1" source="k_3_dkDdyY0LmlExJvw3-5" target="k_3_dkDdyY0LmlExJvw3-56" edge="1">
                    <mxGeometry relative="1" as="geometry"/>
                </mxCell>
                <mxCell id="k_3_dkDdyY0LmlExJvw3-5" value="NotificationMicroservice" style="shape=image;verticalLabelPosition=bottom;labelBackgroundColor=default;verticalAlign=top;aspect=fixed;imageAspect=0;image=data:image/png,iVBORw0KGgoAAAANSUhEUgAAAH0AAAB9CAMAAAC4XpwXAAAAgVBMVEVcLZFtQpz///9aKZBrPptfMZNmNZhXI46vncb7+vxpO5rx7vVmPpdhNpWrmsPn4+5bIZKUfrS4qsxPEopTGozb1eWPdLFiL5bTyt9eJ5P9//pHAIaDZKmzoslNC4nNw9ufirqEaanEudV2UKFySp9/Xaff2+To5uuolMF2VaHz8/LdVtspAAAIMklEQVRogb2biZKrKhCGdUQcydwxxp2YaIyOy/s/4AXUuIBbouevOlXHZfJJs3U3IH1tl25Eybf5yFKkSipKs4f5nUSG/sYvSRvBThL/KJpt2ZqmKBKVomjsWvmJE2fjJ2yhn3wzVe52DeWl2HclNf3TEXQ9ctWrNkV+fYF2Vd1otQVW0o1Yu2oL5FbkzdjYkR6Vq9HtB5TRTvTox97GZnz7ZwV/ke6X96XKFku5l/6HdONx317uV/nvj4X6n6f/bqxvjn/9fZvuq9ZHbCpLnTP/DD223qvwoRQrfoN+eto7sKns5+TwN0X3lc9qvC9NmbL+BP1y3cPqrZTrZQvdvO7Iprqa6+mPvaq8kx2Kph4BXQ8/72i8LBGep+sPTz2ALsTzdBfK8r/Cc3QKPwr/WKKbDH4Q3h63/BH9Esjygfhxvx/S/Rf8KLw/TT8hWT4WryinSXo2oB+C155T9ALK8uF4OxbTnTH8GLzlC+ky4OhH4BVVRL/xRT8Gb/3ydOMsgh+Cvxoc3UVi+gF47TGm+94E/Aj83R/RQ0GTOwyvlUN6NF30I/D3aEB/ckUHiEqA14heLqeijaUI7/Yesj/76dMjrreBMKYCPN41TTNtfkbLzLFCRVKe3N1GZYu3ox495Bo8vLEHiTfGK9RBcRtn3+I95cSS7IK726hog4Sm5hndsLiqht9fw+9q8WySWqBPxk7xK0Sp+zyjF3xfb+nGq07U9fTlskta3NJ1wUDT0r8u3hDP043it9M3eaRk3+0lrT/9dfUddhGSpjf0KJigU5DejQSqmO5c7Z7oE6W9sOiMoitW/2Fr+qihm1Nl92nlON23qWL6dOTDepb+n+iR5tb0U8rDa7rDfNCe06G+RxdGpOqJ0X2B4Wu6UbfM3jio7kenDqYkNnxDPzMvrD8DqbvRNZPS9VI0wTR0j3Ups7M9kPaiK6lO6IZwdmvoMqK277cMsBddUhxCF09vLzrzBBLvAPo9IfRY6M+1dNlLKP6B9qeTAVkSTK4Dugwp7hTsTycPJV3s1HT02vavAVdAv/ZkjQHTdDJdSobYm+zocsDm4hL16KbSo+tGT5eBIebpmiH5wmrv02VAJ4Q20qnpSO3oA0X39XQ7kpJlOmSzYez16fWU8xndSiRxCDOgywH1gJtRqaUz/Idl/5bixXonxKf+GnBfdIqvW910TnWh3k1pIoYZ0FvbwwGd4D/qcSSmkSbCiCFd9hza6cGQLquf0ZVMKoXwMR3IrFLPQ7psf0ZPJZFrwdMbP48MuAO69xFdQpIYztHlgE12cFe6upqOHjobcPekS6vpNYlEF7uWfWW9y017c1gN7Fbv69o8s31IC//rcPR3RxvS5vv9HXiBN02vHQ2dp8PJ+H6xv/fGOlT6RpSCSbrstQn2keUDqzfDa6vpZKzrj/MsdJmhQ1NEP/l9Oaa2mm725jhU/3ZdFUK6fPYF9JFu9lo6meOSLXQ51Rfp36vpZH7v+TaANii/sTyNfU8cvZ7sOnqyouxfM75Nz68Dz8hImmwtyFzXffCzL3Cpnu1V5nZ61Hr2WSq9I2Yzv04f9LhzFzYghESTbz+V1Wa2GimDvFRDIJqiE592wp9/S9vyetSfn4hl/gGexTLzacoD8SyOE8ew/wDPYlhx/H48vo7fxbkLoQCCEC29vRZf5y7EeRsRO3jGt1vhCjvidnyTtxHmrHh5oVNhqmrpzXX4/07T+ToeXlTYiR+heakWv3YNvs3XCXOVY0ETV0UAAUDeClOtwL9ylaI8LVd0/BUPPhIFttWMy8CDMgwU9pHB+QxX4V95WlGOelz0Cx6OSkHs6DhPnhRVJje7cMhkidDtrzIuMlrGdzlqUX5+JGDgwQoC/MPVn5PjijhmIMR/N5xXHnjmOP8j/9Ll0vfy84K1iRE8xXm/n8EIOxmCaYLzml65aSh7fzhJEbnJ+vAsvr82IViXGdEJAA0uc2peEDi4gOQKxx4ZimJMQ3wAcsy+dA4/WJdZmmbRAzs9unfBtTuITOwEhK7TqlMcHFrn8/ma4Da+n9JwTWppogPZwPKeg2tHHGRVfqaGoS7Y+VT9URk5bpLqk3hruB43uxZJVeG0e4PQ65YCSgGdqB2/JvDjtci5dVgq6OBugUb2/Ma2IPv6C170vMogc7HAcDGFE7cOO70GzYRcXHW7MmCB67wx+c8FtvTAby3es6MIz69BT66/Nzo7OC8DWjA24lU48wCAKK+ecksnTdDwyFgMg2weL1h//7rN257UNY5i1yz8r3rUv4VZfMLEK2zpJNLBeRw+inyQgeTwor0H4n0XnQC85fUE61OTm+wip6sWtPfXUwBIqvru3L4d8b4L0Z6TgWDq/v4WZglfF25a/0nYmhpm8W/xkEdNaIif2HPC77fhy088q9ZC1Mtq74P+G7wJ+/ip/TbcXqP91OGn9xqN9lkdgZ/bZ7XawXwbP7fHrL+/7hD8/P464mHuGVeN8Ut7C9t9lYfgl/dVHoj3Qo4l2k97DB4+1uyn/dIPKT10V+0lpsbfv+lBVwSa2EO+d8cLNuwh373fB5v2z5NRbzFOXy+ENp4dIGN+tlflw2zzuQmiwtsjpQLg5M6j+fMyjvx58T3ZmSHMnxW6nT+rfWTfZn9/6ZyU+4H5ged+dE6KyA/f5AMv/PSMGOM/4Xb7I/jc43xcXX5rGx9Z4V5nA6mMAgVrP4C8Wex5LpJKj8w0EHjLQwEUpObuZ0KZTr5ZAm/yCwD0QHnQedhauhHFT5quhd3KBUDsGjzjzceRN9KbT/CTW+yGJc1NpWXoxrfEf+sc9P9Tls0ktOvaUwAAAABJRU5ErkJggg==;" parent="1" vertex="1">
                    <mxGeometry x="610" y="160" width="80" height="80" as="geometry"/>
                </mxCell>
                <mxCell id="k_3_dkDdyY0LmlExJvw3-31" style="rounded=0;orthogonalLoop=1;jettySize=auto;html=1;entryX=1;entryY=0.663;entryDx=0;entryDy=0;exitX=-0.025;exitY=0.638;exitDx=0;exitDy=0;exitPerimeter=0;entryPerimeter=0;" parent="1" source="k_3_dkDdyY0LmlExJvw3-6" target="k_3_dkDdyY0LmlExJvw3-25" edge="1">
                    <mxGeometry relative="1" as="geometry"/>
                </mxCell>
                <mxCell id="k_3_dkDdyY0LmlExJvw3-34" value="HTTP" style="edgeLabel;html=1;align=center;verticalAlign=middle;resizable=0;points=[];" parent="k_3_dkDdyY0LmlExJvw3-31" vertex="1" connectable="0">
                    <mxGeometry x="0.1674" y="5" relative="1" as="geometry">
                        <mxPoint x="7" y="-3" as="offset"/>
                    </mxGeometry>
                </mxCell>
                <mxCell id="k_3_dkDdyY0LmlExJvw3-45" style="rounded=0;orthogonalLoop=1;jettySize=auto;html=1;entryX=0.75;entryY=1;entryDx=0;entryDy=0;exitX=0.75;exitY=0;exitDx=0;exitDy=0;" parent="1" source="k_3_dkDdyY0LmlExJvw3-6" target="k_3_dkDdyY0LmlExJvw3-3" edge="1">
                    <mxGeometry relative="1" as="geometry"/>
                </mxCell>
                <mxCell id="k_3_dkDdyY0LmlExJvw3-46" value="Grpc" style="edgeLabel;html=1;align=center;verticalAlign=middle;resizable=0;points=[];" parent="k_3_dkDdyY0LmlExJvw3-45" vertex="1" connectable="0">
                    <mxGeometry x="-0.2455" y="-1" relative="1" as="geometry">
                        <mxPoint x="-3" y="-9" as="offset"/>
                    </mxGeometry>
                </mxCell>
                <mxCell id="k_3_dkDdyY0LmlExJvw3-60" style="rounded=0;orthogonalLoop=1;jettySize=auto;html=1;entryX=0;entryY=0.25;entryDx=0;entryDy=0;" parent="1" source="k_3_dkDdyY0LmlExJvw3-6" target="k_3_dkDdyY0LmlExJvw3-59" edge="1">
                    <mxGeometry relative="1" as="geometry"/>
                </mxCell>
                <mxCell id="k_3_dkDdyY0LmlExJvw3-6" value="UserManagementMicroservice" style="shape=image;verticalLabelPosition=bottom;labelBackgroundColor=default;verticalAlign=top;aspect=fixed;imageAspect=0;image=data:image/png,iVBORw0KGgoAAAANSUhEUgAAAH0AAAB9CAMAAAC4XpwXAAAAgVBMVEVcLZFtQpz///9aKZBrPptfMZNmNZhXI46vncb7+vxpO5rx7vVmPpdhNpWrmsPn4+5bIZKUfrS4qsxPEopTGozb1eWPdLFiL5bTyt9eJ5P9//pHAIaDZKmzoslNC4nNw9ufirqEaanEudV2UKFySp9/Xaff2+To5uuolMF2VaHz8/LdVtspAAAIMklEQVRogb2biZKrKhCGdUQcydwxxp2YaIyOy/s/4AXUuIBbouevOlXHZfJJs3U3IH1tl25Eybf5yFKkSipKs4f5nUSG/sYvSRvBThL/KJpt2ZqmKBKVomjsWvmJE2fjJ2yhn3wzVe52DeWl2HclNf3TEXQ9ctWrNkV+fYF2Vd1otQVW0o1Yu2oL5FbkzdjYkR6Vq9HtB5TRTvTox97GZnz7ZwV/ke6X96XKFku5l/6HdONx317uV/nvj4X6n6f/bqxvjn/9fZvuq9ZHbCpLnTP/DD223qvwoRQrfoN+eto7sKns5+TwN0X3lc9qvC9NmbL+BP1y3cPqrZTrZQvdvO7Iprqa6+mPvaq8kx2Kph4BXQ8/72i8LBGep+sPTz2ALsTzdBfK8r/Cc3QKPwr/WKKbDH4Q3h63/BH9Esjygfhxvx/S/Rf8KLw/TT8hWT4WryinSXo2oB+C155T9ALK8uF4OxbTnTH8GLzlC+ky4OhH4BVVRL/xRT8Gb/3ydOMsgh+Cvxoc3UVi+gF47TGm+94E/Aj83R/RQ0GTOwyvlUN6NF30I/D3aEB/ckUHiEqA14heLqeijaUI7/Yesj/76dMjrreBMKYCPN41TTNtfkbLzLFCRVKe3N1GZYu3ox495Bo8vLEHiTfGK9RBcRtn3+I95cSS7IK726hog4Sm5hndsLiqht9fw+9q8WySWqBPxk7xK0Sp+zyjF3xfb+nGq07U9fTlskta3NJ1wUDT0r8u3hDP043it9M3eaRk3+0lrT/9dfUddhGSpjf0KJigU5DejQSqmO5c7Z7oE6W9sOiMoitW/2Fr+qihm1Nl92nlON23qWL6dOTDepb+n+iR5tb0U8rDa7rDfNCe06G+RxdGpOqJ0X2B4Wu6UbfM3jio7kenDqYkNnxDPzMvrD8DqbvRNZPS9VI0wTR0j3Ups7M9kPaiK6lO6IZwdmvoMqK277cMsBddUhxCF09vLzrzBBLvAPo9IfRY6M+1dNlLKP6B9qeTAVkSTK4Dugwp7hTsTycPJV3s1HT02vavAVdAv/ZkjQHTdDJdSobYm+zocsDm4hL16KbSo+tGT5eBIebpmiH5wmrv02VAJ4Q20qnpSO3oA0X39XQ7kpJlOmSzYez16fWU8xndSiRxCDOgywH1gJtRqaUz/Idl/5bixXonxKf+GnBfdIqvW910TnWh3k1pIoYZ0FvbwwGd4D/qcSSmkSbCiCFd9hza6cGQLquf0ZVMKoXwMR3IrFLPQ7psf0ZPJZFrwdMbP48MuAO69xFdQpIYztHlgE12cFe6upqOHjobcPekS6vpNYlEF7uWfWW9y017c1gN7Fbv69o8s31IC//rcPR3RxvS5vv9HXiBN02vHQ2dp8PJ+H6xv/fGOlT6RpSCSbrstQn2keUDqzfDa6vpZKzrj/MsdJmhQ1NEP/l9Oaa2mm725jhU/3ZdFUK6fPYF9JFu9lo6meOSLXQ51Rfp36vpZH7v+TaANii/sTyNfU8cvZ7sOnqyouxfM75Nz68Dz8hImmwtyFzXffCzL3Cpnu1V5nZ61Hr2WSq9I2Yzv04f9LhzFzYghESTbz+V1Wa2GimDvFRDIJqiE592wp9/S9vyetSfn4hl/gGexTLzacoD8SyOE8ew/wDPYlhx/H48vo7fxbkLoQCCEC29vRZf5y7EeRsRO3jGt1vhCjvidnyTtxHmrHh5oVNhqmrpzXX4/07T+ToeXlTYiR+heakWv3YNvs3XCXOVY0ETV0UAAUDeClOtwL9ylaI8LVd0/BUPPhIFttWMy8CDMgwU9pHB+QxX4V95WlGOelz0Cx6OSkHs6DhPnhRVJje7cMhkidDtrzIuMlrGdzlqUX5+JGDgwQoC/MPVn5PjijhmIMR/N5xXHnjmOP8j/9Ll0vfy84K1iRE8xXm/n8EIOxmCaYLzml65aSh7fzhJEbnJ+vAsvr82IViXGdEJAA0uc2peEDi4gOQKxx4ZimJMQ3wAcsy+dA4/WJdZmmbRAzs9unfBtTuITOwEhK7TqlMcHFrn8/ma4Da+n9JwTWppogPZwPKeg2tHHGRVfqaGoS7Y+VT9URk5bpLqk3hruB43uxZJVeG0e4PQ65YCSgGdqB2/JvDjtci5dVgq6OBugUb2/Ma2IPv6C170vMogc7HAcDGFE7cOO70GzYRcXHW7MmCB67wx+c8FtvTAby3es6MIz69BT66/Nzo7OC8DWjA24lU48wCAKK+ecksnTdDwyFgMg2weL1h//7rN257UNY5i1yz8r3rUv4VZfMLEK2zpJNLBeRw+inyQgeTwor0H4n0XnQC85fUE61OTm+wip6sWtPfXUwBIqvru3L4d8b4L0Z6TgWDq/v4WZglfF25a/0nYmhpm8W/xkEdNaIif2HPC77fhy088q9ZC1Mtq74P+G7wJ+/ip/TbcXqP91OGn9xqN9lkdgZ/bZ7XawXwbP7fHrL+/7hD8/P464mHuGVeN8Ut7C9t9lYfgl/dVHoj3Qo4l2k97DB4+1uyn/dIPKT10V+0lpsbfv+lBVwSa2EO+d8cLNuwh373fB5v2z5NRbzFOXy+ENp4dIGN+tlflw2zzuQmiwtsjpQLg5M6j+fMyjvx58T3ZmSHMnxW6nT+rfWTfZn9/6ZyU+4H5ged+dE6KyA/f5AMv/PSMGOM/4Xb7I/jc43xcXX5rGx9Z4V5nA6mMAgVrP4C8Wex5LpJKj8w0EHjLQwEUpObuZ0KZTr5ZAm/yCwD0QHnQedhauhHFT5quhd3KBUDsGjzjzceRN9KbT/CTW+yGJc1NpWXoxrfEf+sc9P9Tls0ktOvaUwAAAABJRU5ErkJggg==;" parent="1" vertex="1">
                    <mxGeometry x="500" y="530" width="80" height="80" as="geometry"/>
                </mxCell>
                <mxCell id="k_3_dkDdyY0LmlExJvw3-7" value="AccommodationGradingMicroservice" style="shape=image;verticalLabelPosition=bottom;labelBackgroundColor=default;verticalAlign=top;aspect=fixed;imageAspect=0;image=data:image/png,iVBORw0KGgoAAAANSUhEUgAAAH0AAAB9CAMAAAC4XpwXAAAAgVBMVEVcLZFtQpz///9aKZBrPptfMZNmNZhXI46vncb7+vxpO5rx7vVmPpdhNpWrmsPn4+5bIZKUfrS4qsxPEopTGozb1eWPdLFiL5bTyt9eJ5P9//pHAIaDZKmzoslNC4nNw9ufirqEaanEudV2UKFySp9/Xaff2+To5uuolMF2VaHz8/LdVtspAAAIMklEQVRogb2biZKrKhCGdUQcydwxxp2YaIyOy/s/4AXUuIBbouevOlXHZfJJs3U3IH1tl25Eybf5yFKkSipKs4f5nUSG/sYvSRvBThL/KJpt2ZqmKBKVomjsWvmJE2fjJ2yhn3wzVe52DeWl2HclNf3TEXQ9ctWrNkV+fYF2Vd1otQVW0o1Yu2oL5FbkzdjYkR6Vq9HtB5TRTvTox97GZnz7ZwV/ke6X96XKFku5l/6HdONx317uV/nvj4X6n6f/bqxvjn/9fZvuq9ZHbCpLnTP/DD223qvwoRQrfoN+eto7sKns5+TwN0X3lc9qvC9NmbL+BP1y3cPqrZTrZQvdvO7Iprqa6+mPvaq8kx2Kph4BXQ8/72i8LBGep+sPTz2ALsTzdBfK8r/Cc3QKPwr/WKKbDH4Q3h63/BH9Esjygfhxvx/S/Rf8KLw/TT8hWT4WryinSXo2oB+C155T9ALK8uF4OxbTnTH8GLzlC+ky4OhH4BVVRL/xRT8Gb/3ydOMsgh+Cvxoc3UVi+gF47TGm+94E/Aj83R/RQ0GTOwyvlUN6NF30I/D3aEB/ckUHiEqA14heLqeijaUI7/Yesj/76dMjrreBMKYCPN41TTNtfkbLzLFCRVKe3N1GZYu3ox495Bo8vLEHiTfGK9RBcRtn3+I95cSS7IK726hog4Sm5hndsLiqht9fw+9q8WySWqBPxk7xK0Sp+zyjF3xfb+nGq07U9fTlskta3NJ1wUDT0r8u3hDP043it9M3eaRk3+0lrT/9dfUddhGSpjf0KJigU5DejQSqmO5c7Z7oE6W9sOiMoitW/2Fr+qihm1Nl92nlON23qWL6dOTDepb+n+iR5tb0U8rDa7rDfNCe06G+RxdGpOqJ0X2B4Wu6UbfM3jio7kenDqYkNnxDPzMvrD8DqbvRNZPS9VI0wTR0j3Ups7M9kPaiK6lO6IZwdmvoMqK277cMsBddUhxCF09vLzrzBBLvAPo9IfRY6M+1dNlLKP6B9qeTAVkSTK4Dugwp7hTsTycPJV3s1HT02vavAVdAv/ZkjQHTdDJdSobYm+zocsDm4hL16KbSo+tGT5eBIebpmiH5wmrv02VAJ4Q20qnpSO3oA0X39XQ7kpJlOmSzYez16fWU8xndSiRxCDOgywH1gJtRqaUz/Idl/5bixXonxKf+GnBfdIqvW910TnWh3k1pIoYZ0FvbwwGd4D/qcSSmkSbCiCFd9hza6cGQLquf0ZVMKoXwMR3IrFLPQ7psf0ZPJZFrwdMbP48MuAO69xFdQpIYztHlgE12cFe6upqOHjobcPekS6vpNYlEF7uWfWW9y017c1gN7Fbv69o8s31IC//rcPR3RxvS5vv9HXiBN02vHQ2dp8PJ+H6xv/fGOlT6RpSCSbrstQn2keUDqzfDa6vpZKzrj/MsdJmhQ1NEP/l9Oaa2mm725jhU/3ZdFUK6fPYF9JFu9lo6meOSLXQ51Rfp36vpZH7v+TaANii/sTyNfU8cvZ7sOnqyouxfM75Nz68Dz8hImmwtyFzXffCzL3Cpnu1V5nZ61Hr2WSq9I2Yzv04f9LhzFzYghESTbz+V1Wa2GimDvFRDIJqiE592wp9/S9vyetSfn4hl/gGexTLzacoD8SyOE8ew/wDPYlhx/H48vo7fxbkLoQCCEC29vRZf5y7EeRsRO3jGt1vhCjvidnyTtxHmrHh5oVNhqmrpzXX4/07T+ToeXlTYiR+heakWv3YNvs3XCXOVY0ETV0UAAUDeClOtwL9ylaI8LVd0/BUPPhIFttWMy8CDMgwU9pHB+QxX4V95WlGOelz0Cx6OSkHs6DhPnhRVJje7cMhkidDtrzIuMlrGdzlqUX5+JGDgwQoC/MPVn5PjijhmIMR/N5xXHnjmOP8j/9Ll0vfy84K1iRE8xXm/n8EIOxmCaYLzml65aSh7fzhJEbnJ+vAsvr82IViXGdEJAA0uc2peEDi4gOQKxx4ZimJMQ3wAcsy+dA4/WJdZmmbRAzs9unfBtTuITOwEhK7TqlMcHFrn8/ma4Da+n9JwTWppogPZwPKeg2tHHGRVfqaGoS7Y+VT9URk5bpLqk3hruB43uxZJVeG0e4PQ65YCSgGdqB2/JvDjtci5dVgq6OBugUb2/Ma2IPv6C170vMogc7HAcDGFE7cOO70GzYRcXHW7MmCB67wx+c8FtvTAby3es6MIz69BT66/Nzo7OC8DWjA24lU48wCAKK+ecksnTdDwyFgMg2weL1h//7rN257UNY5i1yz8r3rUv4VZfMLEK2zpJNLBeRw+inyQgeTwor0H4n0XnQC85fUE61OTm+wip6sWtPfXUwBIqvru3L4d8b4L0Z6TgWDq/v4WZglfF25a/0nYmhpm8W/xkEdNaIif2HPC77fhy088q9ZC1Mtq74P+G7wJ+/ip/TbcXqP91OGn9xqN9lkdgZ/bZ7XawXwbP7fHrL+/7hD8/P464mHuGVeN8Ut7C9t9lYfgl/dVHoj3Qo4l2k97DB4+1uyn/dIPKT10V+0lpsbfv+lBVwSa2EO+d8cLNuwh373fB5v2z5NRbzFOXy+ENp4dIGN+tlflw2zzuQmiwtsjpQLg5M6j+fMyjvx58T3ZmSHMnxW6nT+rfWTfZn9/6ZyU+4H5ged+dE6KyA/f5AMv/PSMGOM/4Xb7I/jc43xcXX5rGx9Z4V5nA6mMAgVrP4C8Wex5LpJKj8w0EHjLQwEUpObuZ0KZTr5ZAm/yCwD0QHnQedhauhHFT5quhd3KBUDsGjzjzceRN9KbT/CTW+yGJc1NpWXoxrfEf+sc9P9Tls0ktOvaUwAAAABJRU5ErkJggg==;" parent="1" vertex="1">
                    <mxGeometry x="640" y="410" width="80" height="80" as="geometry"/>
                </mxCell>
                <mxCell id="k_3_dkDdyY0LmlExJvw3-65" style="rounded=0;orthogonalLoop=1;jettySize=auto;html=1;entryX=0.75;entryY=1;entryDx=0;entryDy=0;" parent="1" source="k_3_dkDdyY0LmlExJvw3-8" target="k_3_dkDdyY0LmlExJvw3-54" edge="1">
                    <mxGeometry relative="1" as="geometry"/>
                </mxCell>
                <mxCell id="k_3_dkDdyY0LmlExJvw3-8" value="FlightsBookingApi" style="shape=image;verticalLabelPosition=bottom;labelBackgroundColor=default;verticalAlign=top;aspect=fixed;imageAspect=0;image=data:image/png,iVBORw0KGgoAAAANSUhEUgAAAH0AAAB9CAMAAAC4XpwXAAAAgVBMVEVcLZFtQpz///9aKZBrPptfMZNmNZhXI46vncb7+vxpO5rx7vVmPpdhNpWrmsPn4+5bIZKUfrS4qsxPEopTGozb1eWPdLFiL5bTyt9eJ5P9//pHAIaDZKmzoslNC4nNw9ufirqEaanEudV2UKFySp9/Xaff2+To5uuolMF2VaHz8/LdVtspAAAIMklEQVRogb2biZKrKhCGdUQcydwxxp2YaIyOy/s/4AXUuIBbouevOlXHZfJJs3U3IH1tl25Eybf5yFKkSipKs4f5nUSG/sYvSRvBThL/KJpt2ZqmKBKVomjsWvmJE2fjJ2yhn3wzVe52DeWl2HclNf3TEXQ9ctWrNkV+fYF2Vd1otQVW0o1Yu2oL5FbkzdjYkR6Vq9HtB5TRTvTox97GZnz7ZwV/ke6X96XKFku5l/6HdONx317uV/nvj4X6n6f/bqxvjn/9fZvuq9ZHbCpLnTP/DD223qvwoRQrfoN+eto7sKns5+TwN0X3lc9qvC9NmbL+BP1y3cPqrZTrZQvdvO7Iprqa6+mPvaq8kx2Kph4BXQ8/72i8LBGep+sPTz2ALsTzdBfK8r/Cc3QKPwr/WKKbDH4Q3h63/BH9Esjygfhxvx/S/Rf8KLw/TT8hWT4WryinSXo2oB+C155T9ALK8uF4OxbTnTH8GLzlC+ky4OhH4BVVRL/xRT8Gb/3ydOMsgh+Cvxoc3UVi+gF47TGm+94E/Aj83R/RQ0GTOwyvlUN6NF30I/D3aEB/ckUHiEqA14heLqeijaUI7/Yesj/76dMjrreBMKYCPN41TTNtfkbLzLFCRVKe3N1GZYu3ox495Bo8vLEHiTfGK9RBcRtn3+I95cSS7IK726hog4Sm5hndsLiqht9fw+9q8WySWqBPxk7xK0Sp+zyjF3xfb+nGq07U9fTlskta3NJ1wUDT0r8u3hDP043it9M3eaRk3+0lrT/9dfUddhGSpjf0KJigU5DejQSqmO5c7Z7oE6W9sOiMoitW/2Fr+qihm1Nl92nlON23qWL6dOTDepb+n+iR5tb0U8rDa7rDfNCe06G+RxdGpOqJ0X2B4Wu6UbfM3jio7kenDqYkNnxDPzMvrD8DqbvRNZPS9VI0wTR0j3Ups7M9kPaiK6lO6IZwdmvoMqK277cMsBddUhxCF09vLzrzBBLvAPo9IfRY6M+1dNlLKP6B9qeTAVkSTK4Dugwp7hTsTycPJV3s1HT02vavAVdAv/ZkjQHTdDJdSobYm+zocsDm4hL16KbSo+tGT5eBIebpmiH5wmrv02VAJ4Q20qnpSO3oA0X39XQ7kpJlOmSzYez16fWU8xndSiRxCDOgywH1gJtRqaUz/Idl/5bixXonxKf+GnBfdIqvW910TnWh3k1pIoYZ0FvbwwGd4D/qcSSmkSbCiCFd9hza6cGQLquf0ZVMKoXwMR3IrFLPQ7psf0ZPJZFrwdMbP48MuAO69xFdQpIYztHlgE12cFe6upqOHjobcPekS6vpNYlEF7uWfWW9y017c1gN7Fbv69o8s31IC//rcPR3RxvS5vv9HXiBN02vHQ2dp8PJ+H6xv/fGOlT6RpSCSbrstQn2keUDqzfDa6vpZKzrj/MsdJmhQ1NEP/l9Oaa2mm725jhU/3ZdFUK6fPYF9JFu9lo6meOSLXQ51Rfp36vpZH7v+TaANii/sTyNfU8cvZ7sOnqyouxfM75Nz68Dz8hImmwtyFzXffCzL3Cpnu1V5nZ61Hr2WSq9I2Yzv04f9LhzFzYghESTbz+V1Wa2GimDvFRDIJqiE592wp9/S9vyetSfn4hl/gGexTLzacoD8SyOE8ew/wDPYlhx/H48vo7fxbkLoQCCEC29vRZf5y7EeRsRO3jGt1vhCjvidnyTtxHmrHh5oVNhqmrpzXX4/07T+ToeXlTYiR+heakWv3YNvs3XCXOVY0ETV0UAAUDeClOtwL9ylaI8LVd0/BUPPhIFttWMy8CDMgwU9pHB+QxX4V95WlGOelz0Cx6OSkHs6DhPnhRVJje7cMhkidDtrzIuMlrGdzlqUX5+JGDgwQoC/MPVn5PjijhmIMR/N5xXHnjmOP8j/9Ll0vfy84K1iRE8xXm/n8EIOxmCaYLzml65aSh7fzhJEbnJ+vAsvr82IViXGdEJAA0uc2peEDi4gOQKxx4ZimJMQ3wAcsy+dA4/WJdZmmbRAzs9unfBtTuITOwEhK7TqlMcHFrn8/ma4Da+n9JwTWppogPZwPKeg2tHHGRVfqaGoS7Y+VT9URk5bpLqk3hruB43uxZJVeG0e4PQ65YCSgGdqB2/JvDjtci5dVgq6OBugUb2/Ma2IPv6C170vMogc7HAcDGFE7cOO70GzYRcXHW7MmCB67wx+c8FtvTAby3es6MIz69BT66/Nzo7OC8DWjA24lU48wCAKK+ecksnTdDwyFgMg2weL1h//7rN257UNY5i1yz8r3rUv4VZfMLEK2zpJNLBeRw+inyQgeTwor0H4n0XnQC85fUE61OTm+wip6sWtPfXUwBIqvru3L4d8b4L0Z6TgWDq/v4WZglfF25a/0nYmhpm8W/xkEdNaIif2HPC77fhy088q9ZC1Mtq74P+G7wJ+/ip/TbcXqP91OGn9xqN9lkdgZ/bZ7XawXwbP7fHrL+/7hD8/P464mHuGVeN8Ut7C9t9lYfgl/dVHoj3Qo4l2k97DB4+1uyn/dIPKT10V+0lpsbfv+lBVwSa2EO+d8cLNuwh373fB5v2z5NRbzFOXy+ENp4dIGN+tlflw2zzuQmiwtsjpQLg5M6j+fMyjvx58T3ZmSHMnxW6nT+rfWTfZn9/6ZyU+4H5ged+dE6KyA/f5AMv/PSMGOM/4Xb7I/jc43xcXX5rGx9Z4V5nA6mMAgVrP4C8Wex5LpJKj8w0EHjLQwEUpObuZ0KZTr5ZAm/yCwD0QHnQedhauhHFT5quhd3KBUDsGjzjzceRN9KbT/CTW+yGJc1NpWXoxrfEf+sc9P9Tls0ktOvaUwAAAABJRU5ErkJggg==;" parent="1" vertex="1">
                    <mxGeometry x="300" y="10" width="80" height="80" as="geometry"/>
                </mxCell>
                <mxCell id="k_3_dkDdyY0LmlExJvw3-30" style="rounded=0;orthogonalLoop=1;jettySize=auto;html=1;entryX=0;entryY=0.5;entryDx=0;entryDy=0;entryPerimeter=0;" parent="1" source="k_3_dkDdyY0LmlExJvw3-25" target="k_3_dkDdyY0LmlExJvw3-6" edge="1">
                    <mxGeometry relative="1" as="geometry"/>
                </mxCell>
                <mxCell id="k_3_dkDdyY0LmlExJvw3-33" value="HTTP" style="edgeLabel;html=1;align=center;verticalAlign=middle;resizable=0;points=[];" parent="k_3_dkDdyY0LmlExJvw3-30" vertex="1" connectable="0">
                    <mxGeometry x="-0.3672" y="-2" relative="1" as="geometry">
                        <mxPoint as="offset"/>
                    </mxGeometry>
                </mxCell>
                <mxCell id="k_3_dkDdyY0LmlExJvw3-35" style="rounded=0;orthogonalLoop=1;jettySize=auto;html=1;entryX=0;entryY=0.5;entryDx=0;entryDy=0;" parent="1" source="k_3_dkDdyY0LmlExJvw3-25" target="k_3_dkDdyY0LmlExJvw3-7" edge="1">
                    <mxGeometry relative="1" as="geometry"/>
                </mxCell>
                <mxCell id="k_3_dkDdyY0LmlExJvw3-43" value="HTTP" style="edgeLabel;html=1;align=center;verticalAlign=middle;resizable=0;points=[];" parent="k_3_dkDdyY0LmlExJvw3-35" vertex="1" connectable="0">
                    <mxGeometry x="0.1233" y="-1" relative="1" as="geometry">
                        <mxPoint as="offset"/>
                    </mxGeometry>
                </mxCell>
                <mxCell id="k_3_dkDdyY0LmlExJvw3-36" style="rounded=0;orthogonalLoop=1;jettySize=auto;html=1;entryX=0;entryY=0.75;entryDx=0;entryDy=0;" parent="1" source="k_3_dkDdyY0LmlExJvw3-25" target="k_3_dkDdyY0LmlExJvw3-5" edge="1">
                    <mxGeometry relative="1" as="geometry"/>
                </mxCell>
                <mxCell id="k_3_dkDdyY0LmlExJvw3-42" value="HTTP" style="edgeLabel;html=1;align=center;verticalAlign=middle;resizable=0;points=[];" parent="k_3_dkDdyY0LmlExJvw3-36" vertex="1" connectable="0">
                    <mxGeometry x="-0.1678" y="-2" relative="1" as="geometry">
                        <mxPoint x="-38" y="44" as="offset"/>
                    </mxGeometry>
                </mxCell>
                <mxCell id="k_3_dkDdyY0LmlExJvw3-37" value="HTTP" style="rounded=0;orthogonalLoop=1;jettySize=auto;html=1;entryX=0;entryY=1;entryDx=0;entryDy=0;" parent="1" source="k_3_dkDdyY0LmlExJvw3-25" target="k_3_dkDdyY0LmlExJvw3-4" edge="1">
                    <mxGeometry relative="1" as="geometry"/>
                </mxCell>
                <mxCell id="k_3_dkDdyY0LmlExJvw3-38" style="rounded=0;orthogonalLoop=1;jettySize=auto;html=1;entryX=0.25;entryY=1;entryDx=0;entryDy=0;" parent="1" source="k_3_dkDdyY0LmlExJvw3-25" target="k_3_dkDdyY0LmlExJvw3-3" edge="1">
                    <mxGeometry relative="1" as="geometry"/>
                </mxCell>
                <mxCell id="k_3_dkDdyY0LmlExJvw3-41" value="HTTP" style="edgeLabel;html=1;align=center;verticalAlign=middle;resizable=0;points=[];" parent="k_3_dkDdyY0LmlExJvw3-38" vertex="1" connectable="0">
                    <mxGeometry x="0.1042" y="-1" relative="1" as="geometry">
                        <mxPoint as="offset"/>
                    </mxGeometry>
                </mxCell>
                <mxCell id="k_3_dkDdyY0LmlExJvw3-39" style="rounded=0;orthogonalLoop=1;jettySize=auto;html=1;entryX=0.5;entryY=1;entryDx=0;entryDy=0;" parent="1" source="k_3_dkDdyY0LmlExJvw3-25" target="k_3_dkDdyY0LmlExJvw3-8" edge="1">
                    <mxGeometry relative="1" as="geometry"/>
                </mxCell>
                <mxCell id="k_3_dkDdyY0LmlExJvw3-40" value="HTTP" style="edgeLabel;html=1;align=center;verticalAlign=middle;resizable=0;points=[];" parent="k_3_dkDdyY0LmlExJvw3-39" vertex="1" connectable="0">
                    <mxGeometry x="0.3533" relative="1" as="geometry">
                        <mxPoint as="offset"/>
                    </mxGeometry>
                </mxCell>
                <mxCell id="k_3_dkDdyY0LmlExJvw3-25" value="KeyCloak" style="shape=image;verticalLabelPosition=bottom;labelBackgroundColor=default;verticalAlign=top;aspect=fixed;imageAspect=0;image=data:image/jpeg,/9j/4AAQSkZJRgABAQAAAQABAAD/2wCEAAkGBwgHBgkIBwgKCgkLDRYPDQwMDRsUFRAWIB0iIiAdHx8kKDQsJCYxJx8fLT0tMTU3Ojo6Iys/RD84QzQ5OjcBCgoKDQwNGg8PGjclHyU3Nzc3Nzc3Nzc3Nzc3Nzc3Nzc3Nzc3Nzc3Nzc3Nzc3Nzc3Nzc3Nzc3Nzc3Nzc3Nzc3N//AABEIAH4AfgMBEQACEQEDEQH/xAAcAAEAAgIDAQAAAAAAAAAAAAAABQYCBwEDBAj/xAA9EAABAwIDBAQLBwQDAAAAAAABAAIDBBEFITEGEkFREyJhgQcUFRcjMlRxkZTSQlWTobHB0VJigpIkZOH/xAAbAQEAAwEBAQEAAAAAAAAAAAAABAUGAwIBB//EAC0RAAICAQMEAQIGAgMAAAAAAAABAgMEERIxBRMhQXEUYTKBkbHB8FHRFSJC/9oADAMBAAIRAxEAPwDeKAIAgCAIAgCAIAgCAIAgCAIAgCAIAgCAxkkZGxz5HBrGglzicgOaA1hUeFotqJG0uENlgDiI3uqS0ubfIkbuV0Bh525/uSP5s/QgHnbn+5I/mz9CAeduf7kj+bP0IB525/uSP5s/QgHnbn+5I/mz9CAeduf7kj+bP0ICW2X8JDMZxiLD6ugbSdNcRyCffBfwB6o1zQF+QBAEAQBAEAQGvPC1tD4pQswalf6aqbvTkH1Y+X+R/IHmgNSIAgCAIAgCAIDlj3xva+Nxa9pBa4ag8CgN/wCxWPN2gwKGqcR4yz0dQ0cHjj35HvQE8gCAIAgCA8mK4hBheHVFdVOtFAwvdzPYO06ID53xfEZ8XxKor6o+lnfvEcGjgB2AZIDyIDujpnyN3gQB2qTXizsjuRX5HUaqJ7Gm2ZmimET5BZzWC7rL7PDsjBy50PFPVaLbFXo03weZRSzOWgucGgXJyAHFfUtXoj42ktWTMWzVVJGHiaEX4Z5fkpv0Fn+Sn/5uh8RZ4sTwyfDnMExa5rxk5t7KPdRKrTUnYmZXlJ7PR4lxJZZvB9tCcBx1nTOtR1REc44D+l3cfyJQG9wbi4QHKAIAgCAovhFw7GMebDQYZ0DaSM78xkl3S9/AWtoP19yAo3m9x7/p/jH+EB5cS2OxPC6bxmtdStiDgOrLcm/ACy6VVuyaicMm9UVObPE1ujWjsAV1GOi0Rj5zcm5SJmnhEUIYQCT63apUYpR0ZXTsblqjrbsLi1Q0TUog6B+cfSSWdbtFlnLoKFjjHg3+JbO6iFk15aOW7KV+ESMqcQbEWXszo373W7clK6fXGVur9Fd1y6deOox4lz/fuSNJJuu3DodFcTXsydM9HoZYpRNr6N0BIDtWOPAqLdUrYbSyxMh49qn69/BEt2Dxt7Q5vihBzBExz/JUbTT0Zs4yUlquDk7BY3oRSfin+F8Pps/ZGrraLBYaPGwDUQdRskbt/fYNL9vDuQE15Tp/7vggHlOn/u+CA9qA6aqXo4zb1jkEBFnU3QAoDWe2uMeUMSNPE7ep6clvY53E/srXFq2R3PlmZ6nld23ZHiP7kTh0O87pXDIeqp1cdfJSXz0W1FhwPDziFc1jh6JnWk93LvXnKv7Nevt8HbpuH9Veov8ACvL/AL9y/AAAAZAaLPG7Xg6K+lZWUklPJo8WvyPArpVY65qa9HDJojkVOuXs15URSU074ZBZ7HWK0kJqcVJez8/uqlTY4S5R7YJOkjB46FcpLRneEty1LBgVZvRmmkPWZmz3clV5tWj7iNL0jK3R7EuVx8EtqoBdmLkBwgCAs6AiqmbpZSR6oyagOs6oCA2vxjyXhjhE7/kT3ZGOI5u7v1IUjGq7k/siD1DJ7FXjl8GsImOlkDBqSrhLXwZOUklqyajYGNaxjTllbmpKWi0K9tzlqX7AcP8AJ9C1rh6V/Wk9/LuVBl396zVcI3PTMP6WhJ/ifl/37EiSAopYmBN0BXNq6DeY2tiHWb1ZLcuBVn0+/R9t/kZzruFuisiPrn/ZXaeTo32+ycirWUdUZque1knBK6GVssfrNNwo84KcXFk+qyVU1OPKLVTTsqIGyxm7XfkeIVFZB1ycWbSi6N9asjwzsOa8HUxQHBNkBPV0u5GGA5v/AE4oCNuAOxAYulAHIIDU+0WKuxbE5JwT0LepE08GhXNNarhoZHNyXfa5evRzhtK8R9KWG7tMuCmVpLyyrvbfhFl2Zw/pqw1ErepDYgHi7h8NVFzr9kNseWWXRcPu3d2XEf3La6WxtZUhsDEuJQHF0BjIxsjHMeAWuBDgeIX1Np6o8yipxcZcMoeJwNoK2SB729U3bc6g6LRUXKyCkYHMxJY90q/0+DmGraYCA4FzcsivW3WXg8KbjDySmzFc6Oc0rzdsly3sdZQ+oUbo9xei36FmOFnYlxLj5LQH81TGsOCbIDAnmUBZKyEzQkN9cZtQEH77oAgNfbT4H4ri4libalnu/LRp4t/fvVvhWdxbXyjKdXp+nnvjxLj5MqOWx6MmwPqqfNeylpn50ZL4ZVmkqQ5xPRuyeP3UTJq7kNFyWuBlfT3Jvh+GWInezVIbAA2QGQN0B58QrIsPopaqf1I23tzPAfFe4Qc5KKOV1saq3OXo1XV1MtZVS1Ex3pJHXP8ACuoRUYqKMfba7ZucvZJUsIhiAt1jm5S4R2orLJ75Fq2aodyM1cg6zso/dxKquoX6y7S9cmm6Fh7Y/USXl8E254CrDRHQ953hmgOQboC5ICJxKDo5ekaOq/X3oDxIDy4lRtr6N8Dsic2HkV2otdVikRc3FjlUut/l8lDe18Mpa4Fr2GxHIrRpqS1XB+fyjKuWkvDR74XiRgPxC4taMlxkpLUsGD1XSw9C49ePTtCqMynZLeuGanpWV3a+3J+Y/sSChlsEBR9tsW8Zqm0MLvRQG7yPtP8A/FZ4lW2O9+zO9Vyd8+1Hhc/JB4dDvv6Rw6rdO0qwrjq9ShvntWiJzD6U1lUyLMN1ceQX3IuVNbkMHFeVeq1x7+C4ghrAxjd1jRYAcAs425PVm+jGMIqMeEcL4ejB2qA4BIQF2QHXPE2aJ0btDx5ICCexzHlrxmDYoDFAVnarD917a2MZO6snv4FW/Tr9V22ZfruHo1kR4fh/wQdLJ0clj6rlYzjqigqno9CTppnU8zZW6jUcxyUa2tWQcWWFF8qLFZH0WaN7ZGNew3a4XBVFKLi9GbSuyNkVOPDI/aDEhheGvmBHSu6sQP8AVz7tV0oq7k9PRwzMj6epy9+jWg35pbXLnvOp1JVyl6RkJS5kyZijEUbWN0AUqK0WhXSluepa8Eo/FqXfePSSZnsHAKjzb+7ZouEbTo+H9PRul+KXn8vSJEKEWw4oDrOpQBAXZAEBQfCphNU+gbi+HTTRyUwtUNjkLd6P+rLiP0PYgNUeUa/26q/Hd/KA5biNaHAuq53gG+6+VxB7iV6hNwkpL0c7qo21uuXDLJTTNqIGSs0cNOR4haSqxWQU17Pz7Jx5Y9rrlyiQbVsipXyzOsIm3d7lztagnJ8HfGjK6ShHllNqMUrZpnyCqnjDjcMZK4BvZa6oJzc5OT9m5oqjTWq4+jGOsnfIBUTyyN4dI8u3fiuuNbsn54ZF6hj9+rxyibw6CwMpGZyar2uPtmLyJ/8AkYtV+K0/VNpJMm/uVxzb+1XouWTOk4f1N+6S/wCsfL/hEF49We2VP4zv5VAbc5ZWV73NbHVVTnuIDWtlcSSdAM0BvXZLAG4VgkMNcBUVbuvM+U75Dj9kE8BogJnxOl9mh/0CACkphpTw/wCgQHegCAwmiZNE+KVoex7S1zToQdQgPn7a/An7PY3NRkOMB69O8/aYdO8adyAhUB2R1E0Td2KV7BrYHJdIW2QWkXocLcam162QTfwcyVVRKwskmkcw6tLskndZNaSk2fK8WiqW6EEn8HUuZICA7xWVLWhonkAGg3tF2WRalopMivBxW9XWv0OuWWSZwdK9zyMruN1znOU3rJ6naqmupba4pL7GC8nQvngo2e8fxI4vUsvTUbrRAj15ef8Aj+pHJAbiGSAIAgCAIAgKn4RtnfLuCGSnZvVtJeSG2rh9pvfb4gIDRgIIuNEBygCAIAgCAID0YbRT4lX09DStvNO8MYP39wFz3ID6HwPC4MGwqmw+mHUhbYu4udqXH3m5QHvQBAEAQBAEAQFXqfB/s1U1Es8tA7pJXl7t2d7Rc5mwBsEB1+bnZf2CT5mT6kA83Oy/sEnzMn1IB5udl/YJPmZPqQDzc7L+wSfMyfUgHm52X9gk+Zk+pAPNzsv7BJ8zJ9SA92C7IYJglZ43h1GWT7paHule+wOtrk2QE8gCAIAgCAIAgCAIAgCAIAgCAIAgCAIAgCA//9k=;" parent="1" vertex="1">
                    <mxGeometry x="290" y="520" width="80" height="80" as="geometry"/>
                </mxCell>
                <mxCell id="k_3_dkDdyY0LmlExJvw3-221" style="rounded=0;orthogonalLoop=1;jettySize=auto;html=1;entryX=1;entryY=0.142;entryDx=0;entryDy=0;entryPerimeter=0;" parent="1" source="k_3_dkDdyY0LmlExJvw3-54" target="k_3_dkDdyY0LmlExJvw3-220" edge="1">
                    <mxGeometry relative="1" as="geometry"/>
                </mxCell>
                <mxCell id="k_3_dkDdyY0LmlExJvw3-54" value="" style="shape=image;verticalLabelPosition=bottom;labelBackgroundColor=default;verticalAlign=top;aspect=fixed;imageAspect=0;image=data:image/png,iVBORw0KGgoAAAANSUhEUgAAAMIAAAEECAMAAABN+RseAAABMlBMVEX///8AK08Skk8QqlAAJ0wAJkwAKU4RplAAI0oAIUn19vjF0NgXQ2QADkAyTWkAJErr7/IAADpEVW1re40AHUcAMFbT2N06VG9bdIvh5uq0wMtmcoQAFUO4xMJPaIAAJk8yRmKwtb0mSGZpgpcZNleIkZ4AADliboGTmqY7W3YAI08AGEQAN1w6T2kTlk/d4+kOnVAAi0EQhk8RjE8FTE8Oe08MbE9yzJfE5NOLnKOMoLB3jJ+bqbYDPU8JW08AL08DN08IZU8DO08GRE8LgFBMYHgFSE8KalAHUk8KYU8Jc08GWFARsVAAHE8jPVw2j3BNsHsenF3k8uuT2K6z48ayzsI0m2ZYpn+e0rdQvnp0rpJ9wp4ys2SZuazn8uyK06ZPtHpjqYR5mJiCqJuaq66vvLwqkKsRAAASVklEQVR4nO2de3ubSJaHjUxVKBASMghJWEbWLbaELCV2nO0IEifdIYmTtLZnZruz25v0zux2f/+vsBTogriWCiTFz6PfPyECQ73U/dSpw9FRXuIdSfxE0yzTNLuDddWd36aaJkgSvozP7aE5SZpMVLU9lfVOsVKpNJsGQohjwZo45zel2RQrlWpRr5uWpqoT6bsgaQha+1IedKDoJJwDLJMuyJY5xRCVUa3et9qCKu0x+c6L71+URoqTdhYSpD2E4pDAzkDuW0JjD8mfWLJd6rE48RSp94kFCFU7JxdTYafpF7odp3BTvfpoQcCVATOwdpIZUkOrKyIiTv0dMQUDy4ZYmqpbxlA1udhEm7zedxvlFGQNpWYJW6vgvNavGWizwtN6tdHlWMCYydZkKwDTixkCm5b+1vuXm1cYiKonspo7gHXOcBS1d3j7obX5XzlZwc3quTZRklVtApqUMMOb6xZduwWRqOdWnHhtIFI2n+Dlk8InqmzAQs1pPs2TajbLlGmArdtHhbc/UncfUKm1cxhGtWubNKLrGn548qhQeM/Qd4Fcz8zcwvarNLXYU+vlzbGDcENXoz1BUMtYIwYK/RtsvSwcY4Tx9U90bYEnrpWlfZV0hfrJcPhs/NlFKIxvX2cZTbE9jZqA727YF/sJ4Ksnx8ceQmH8fOM+0S+uRp0P1h09AXjz6HiJUCjcDzMgMEinbFzVDnURhq17j2CBcPMqQ5VmGGVK1bZKMn1r2ro/Pl5DKFw/y8IAIVXTqlapi9Hw/nMQYXz9LEt1UEwaBKtJ+7zWh0fHQQTctGbIB3ZEQeA0R5SPGz57chxGKIzf/pihe3hMURl4naN7WOunm+MoBKd7yGApECnaVb5IYhMKC969PY5GKBSeD6kZRIrZAyUCZD4exyIU7qm7uB0irJrTKISbD98/QuunJ0kIY+rJw84QICwcJyEUxh8pJw87Qxh+PE5GKBQoJw+7Qmh9epKKUKAbO+4IAbwMFqMIBMreYTcI8C5UjKJyoUA1aN0NAvgQKkaRCFTz0J0gwLubMEEUQuE5RXXYCcLwPoIgEuGGYu6wCwR494gUgcYcsAuE4cfPpAiF8auNa8MOEEBwZJGEULjeOBt2gNB6G0kQgzB+s6lFY/sIragGNR6hcLNpo7R1BMjEZEIcgjP7+c4QWs9iMiEW4eblZjV62wiRQ4tkhML7zUrSthHAy/HGCBsOM6gQNjBHgjdxBPEIhfuNsoEKoU5shAnP1QgQNpyD0iAcmcRrC+BdZMeckgvjVxsgwAoFwZFmkN7/57gWNRnhdoO+AQxoEBqklSFmgJeGUChsUKFFiwaBvyTMhtareIIkhDF598Z26NZIJjaZYfjnqKkOSS4UiG17YpuKwKkNPZKuIW6Mmo4wJjXIoD71ArpFskoyfJ9QFZIRbolKEuTqGfwYLAJTdOs6gSC5IN0QTRsUO5Njj6WktRowwnhEikBkjxHrGZf/tWJKD9d6lVSOUhBuU5tVVszuhDHRUeJzWtFzZjKE6xSfMYh6VB1CUFYJxbdM8HVC15yKkFKSUE/OVIhW+TcxZ7HeJOCnxKqQgpBoq+egvXK+oGmTeL/vhmBWY6qEf4GWAuE2drhaRnrbl26adWd+rSGQVNOIzAnwJrEqpBWkm3eRFQ0CsaatvfgTqhXP9YrEN7otMeRe5Uw5MyGMIyoDBIrYEdb7Y4GhmniGXWg0fcasV214l9ixpSO8D4y4IYd6V2aw5EunFSoEwwyPTITpaQn4Wln4Y9IAiQBhzbyK02/LEQ5UFqSc/qOoNpkX2mapZcyLFHyZTJCGULhZ9gysIhbrl1pUK6rNACUCO4ruV3hVu9SrIh57tJ4lV4VUhLFbnyFqGjWzHeM1r51z1EYYUI3rG3mpIZgDoyJ+yorwCRliZVRvN2I39gg9LoMdCYKI+uCTav17VoTn+lRIfIbF4AaE3hQGDT25Qf63jHWh8EtyMiTT646yWPOUjpU0VMyM8LfERGj2fFSQySDJKlHNXG4ITxPSoJrVxfQ9o00VzeI3RGwRQeqXVn6yWc3CEPTipk7ZEf4eAzDtQN/4KbtlG6KKHrlLKDvCD1EPV7sVY20kk4txnmvWrPBmxn/kj8BPtDoXHNvns74AQXMktwON+H/kjTDR+iUlbIPLbYkEIlCSLf/d8kWYWKZdjTSa5LnKAxAzs83lDX/I2Dv7ENRp/arHlaOncTkvVEG8d3lgCnjj9R95IPD8xNJHCleON7Lmv9YG8dQKDbqWmrkg/apO9ZFopOy32dZyIUBNJnahkBBhzIgKwXah7a14wtfZJp4YgchCv0WEjNN/Z9q2bwQGvs+I8HbvCK1P2QrS+Hb/CLHeF4QIhI4M2yxIL5NW2ggQCFeft4lwd5sN4RnZyu023UiGz7MhEC4+bxMhwk97E4RrQk+MbSJkWmsrjD8SOhpuFQHQr3hiP0Oih2zZpWr4nHbdGesToR/GVhHAO9rVf1wVopdIckIg3dcGh0mD1bSFKlKfWyoE4t2Fw/f0CM9J/XkqNKvPFqlLVeIaQzLCDWmECdiiIDgSiGNwDBOa1WxL50uhOg2CJJM657XuaXzzsG5JNzIYdJ4kGukWtCTPtmSEe0IERaZzSOL7pHUNxk/dcnDmYZhyh9aPoaETNkrgGVUujD+SOeeBGX0UCZUwmEqCESARgaxfAz1azzyXIc0baa5WrMdzEsI1mV9bkz4PsCZ1orhC8f4wSU6eJJUZcq1sBLhOV0kGGrETnwQEksoMMkQiWUmzufQiC1/HZEOCw/Ob9DeDZtnd2rAa/U56bJi4bIhHuEmdcnJG0kIlgXydibBaeYzNhrtNNoXhTEjbJgkMu73KAprMWPMK49WumAIxjB5lxO8iSWxRIWiWNH+yabwM+e66T8ekriSHzfs5MhtiET4mbHsGnFIMFCGdatYWBJemdlLwv1ZkFx2HEL+VB6DqlRxMsAaoEOzQwITX+vZIiVlKgndvI4pSHELM9kJW4UpyOKAnL9N5hUX6q6sOBYxekgFR5tUYhOuougyUZse0otLa7tFN/8vVyLEJ31AtvSUqIetAMBBJAsI4tOMZcobSMWOi9AoljtKCAZi4ZpmXBLP4uKmsR4UlCl/gEvjrMoQAGZWqbsVGS5ZKiNoIkzLC0kz9fFZlOATmlTxis2rklm13rzB0Ws6y0/H3ZifdxHC2k2omrzCYFqRLtabyhd2ZQUVBZaCkh/Io4MgwHIcUjumc2LKZFgCW11xvkgxeYbBLMMxqCJp12Zf12mwUKkoRCM9rtVP50rI0gvjU0rTqtr4ZrHkQ2aQdozRRBeHXYMN6EyL4cqaqDcK5sHAxrzWZDJJc73ST8e4/Agy/BQn+FuW9E5OG7nk+XmGQq24w5P0j4KH0JUDw9D+JU2DNuGXLndkrTIFT0qw/+vt/+Qk+/z5eJ/hvwts0rFHT1/Xk4BVmKH3S2NE/fPUzfHu6RvAvojfBq+1Oc63/zsM4D5WRHNn5h+X3UXp05s+Fp1/+IPh7qW12jMAoMCevMMRcmYlOqwv9zwrh65m/Pn+J8SX0SzDtUXjzUG5LJAD1zusEk8FVdfjnma8+pzdGqlmblaMGkTmu8kAWNR8PrEbKdywWDJ9/P/u2LEm/JRHwPK/VjYoCoqdCeS9UlY1mp6upk/hCtWiWPn87+/ZbKoEz+BX6AyUpmv0W1toAalZrstUWJtHZMWf4+uvZmdesPo0hwJ/R6OtFUUk2V21nuRAPkmHHlvtTLaK99ZrWf56dzbPhlxCBpDojK/OiVlUI3MK2uOLJcgjB3rkz5uxamuCfqv7gVQVHvzvj6198bRFOuylfnFzNekDhyPZtbz0aCf4mBgfcb3p0BrppOkNoTfj29fjrN4xw9q/Cl78EQXN+rw8GzjQEsvgP8PXEAQx2FLENj83xNAYpiiE6el345czT/yrOf5uKU2LK5Q3SvXOEkFrv/s8j+JM+xu+eEZiW7BL8ZWeJdr5fBE7/CyO86GX/dMy+EGDxT4wgU4b4/R4QGPQC14Ra9nK0RwRcGV7McvgE0d4QgO1UhhfZ77NHBNjBCPSB31faGwIDMAL9RxxW2h9C8899IgxyaEcYxdxnQaKOOe8XbpJeEH8tLEEVmigSU+JAWwnidAdhlP0+UKEgOFLzKMJ5IdB5hTVoQ//7BYv5IFS27BW2fQSlTukVZubQJlVf5IBQPqf1JZkMshclyMgX1Yz3YDP4VKlF2m+E+Rjov3G1UEoMhWQ1hjlU6YyCYpceADOUMn2aKQdxTNY4VZLZ22dGQO4k+ycM+XYtj26aTqgaCtJDJbVvZK/VNILiIK+vkvLCIBzcaevpB0Z1mudnVbUaJDR+5gTAgVmuAFiCfl6O8UTKPf0sqtq5A7gQfZtJiKCXmzhUkq1tfUJ84n5YeKtZAQxFt5KjDWWUNNHqcGt1GxjGYOsfeD7C63oajrKVb+2GLIeMyoDcxyC7JtP61ayay7fCIeDwOpFtZnUv31y8YPUvajPGQAnhK1JTryjVmi5PtX18ct6VpGrtS1kvVkVD2SRHcLlRms3ioN632tv7Ljg5R0MVNMus10bDitg0kJMrbAQOhCwLEE75Y3FUrHcv24I62dvLjxIvSVKjIbStelfvFIvVx5V1Pa4Ui85b75ptrdFwrk1xHzjooIMOOuiggw466KCDDjrooIMOOuigZE3UgJbmskbozHdqi7Jh1a/RyL701m2lbmv9TFHvZ1/R3YZOOLguoHRcHwxJVoJnjFKWiDdb00nY/wYUsSeMJIdd7bjS95gPEQiM+3GaKASo9Ped3ggtEACO5j03kIOB5EPgELc8w118V8ZxT3OEni3Lp6cDzzMNjnwInHwqy7LtuYYAPeMH6bYhDwF2LMmRVgwjVPAJaeLFcICDHIIP5a0Fgrv0JnkvG1b9CN51I68ozRFU/RxrNhXcgyt3v7/mHte6qyqv1a/OF7JNLwP5rvd/WTDdf3Vt2d2o3Zp7pWaV3FO9+Z0E7/fz4O2jEOZumvEIi1xQa4hlWVCFIgfwAarUpYFYnh/rXqIaJe+spzKqdPHvfF3BVzFVA7mXc815M8d35zcrK06JxX/ixUThBxW0ug3gKrqUBWGZC94+j96qsVJ8XnlN17GMLwVcbyHAAVfm31CurlwIFdttI6ahZVDP7boe8G6CKODAmQnB78no/35Xzy1XYiBFDIvfd8RnoJvW6pYhBCG0NQkGouJlQghp8bQpfntckA1y7UgEDr9WLezk4CJMw0/hLnNEgADC5XIrXG4DLOOSdD6/BIniImBV04/ALq9nO87z2s3QbVyERffUcm4zL5mBDpa2Os/TN51O615xgj187Pn5olOM4EX2KGmCILSNEALsTqemrxGfI7D455ovGoeXDNiznNsIzdwROOyeLpTcU2XbOZ54BZdbIbg0R1IliMAOnDos6XD5vDmCG4z2UlkhnM4R3Oc+pkIQ3bnCxHsAN++d5wgIFxjNQ+D0aISLaISy3sDPCyM08kdgRFfeMZqHKX1gCD7BhTv3w0VgF87QDxcBnkweJALHOfMFb/SwnPI8LATuAqvu9QPoQnqACN58QfJuCmz1ISJ410V2bQ8RgTkgHBAOCLtC2MJIdccIONl8H1EjSHo5GWHzRhXYE6dXUUVSBKZaLC72R64hqLh3SkRo4yuEWFOYBCgRmLtSXdfndoJEhLmhAq4ch/0Tz2rRuc2cLRKB6Q2cK/R5KBZY9A8wdKz55k12g955MLfKAG75kUclAUEL7011EUwudBsUiYCv4BZBygNmYd8ZdEo+RpqGdnDDkRaPIJ2GrncRrHCQnsCnvCON85cxxnlmk5HqvAr77yvzQQRmiXCk9ZBnuoALm5iLwM+CKUQnUgoChBD/aRRCeSYsELBBkjVchA6Hj5E3/XePFbcZ0nplzm9J9CbenkHSudxFAPiCsotwpNqzHjbA9Owau0I4msyA7zYsh84DVtUTxK4JcsgLui3JyvoZAFBvkYOqXsLqmM6xYHvHGGdS845l9yrB9E65qul9N6G82fEuwRaMrntcGsxfq2BNHWm8v19wbuq/TcmWg+sDeqe0LnsedVsyw2eWhkBeFVzhu0nC6pifHy9M+BNhpcb6byq/uk3Q4r+OgOPMhW+zkioEtGScxJ7ZjvjJUiZaR3goateuFpoxDxPBaoG5Fn0bVUCRfcoKtv/saN9J2lRBBKhk3QC/cwUQgBIVhP/7ltUUm0tVRL394AiOGppP/GEL2EEHHXTQQQcddNBBBx20H/0/CzGPVR6JzKEAAAAASUVORK5CYII=;" parent="1" vertex="1">
                    <mxGeometry x="250" y="-130" width="67.16" height="90" as="geometry"/>
                </mxCell>
                <mxCell id="k_3_dkDdyY0LmlExJvw3-166" style="rounded=0;orthogonalLoop=1;jettySize=auto;html=1;entryX=0.5;entryY=1;entryDx=0;entryDy=0;" parent="1" source="k_3_dkDdyY0LmlExJvw3-55" target="k_3_dkDdyY0LmlExJvw3-164" edge="1">
                    <mxGeometry relative="1" as="geometry"/>
                </mxCell>
                <mxCell id="k_3_dkDdyY0LmlExJvw3-55" value="" style="shape=image;verticalLabelPosition=bottom;labelBackgroundColor=default;verticalAlign=top;aspect=fixed;imageAspect=0;image=data:image/png,iVBORw0KGgoAAAANSUhEUgAAAMIAAAEECAMAAABN+RseAAABMlBMVEX///8AK08Skk8QqlAAJ0wAJkwAKU4RplAAI0oAIUn19vjF0NgXQ2QADkAyTWkAJErr7/IAADpEVW1re40AHUcAMFbT2N06VG9bdIvh5uq0wMtmcoQAFUO4xMJPaIAAJk8yRmKwtb0mSGZpgpcZNleIkZ4AADliboGTmqY7W3YAI08AGEQAN1w6T2kTlk/d4+kOnVAAi0EQhk8RjE8FTE8Oe08MbE9yzJfE5NOLnKOMoLB3jJ+bqbYDPU8JW08AL08DN08IZU8DO08GRE8LgFBMYHgFSE8KalAHUk8KYU8Jc08GWFARsVAAHE8jPVw2j3BNsHsenF3k8uuT2K6z48ayzsI0m2ZYpn+e0rdQvnp0rpJ9wp4ys2SZuazn8uyK06ZPtHpjqYR5mJiCqJuaq66vvLwqkKsRAAASVklEQVR4nO2de3ubSJaHjUxVKBASMghJWEbWLbaELCV2nO0IEifdIYmTtLZnZruz25v0zux2f/+vsBTogriWCiTFz6PfPyECQ73U/dSpw9FRXuIdSfxE0yzTNLuDddWd36aaJkgSvozP7aE5SZpMVLU9lfVOsVKpNJsGQohjwZo45zel2RQrlWpRr5uWpqoT6bsgaQha+1IedKDoJJwDLJMuyJY5xRCVUa3et9qCKu0x+c6L71+URoqTdhYSpD2E4pDAzkDuW0JjD8mfWLJd6rE48RSp94kFCFU7JxdTYafpF7odp3BTvfpoQcCVATOwdpIZUkOrKyIiTv0dMQUDy4ZYmqpbxlA1udhEm7zedxvlFGQNpWYJW6vgvNavGWizwtN6tdHlWMCYydZkKwDTixkCm5b+1vuXm1cYiKonspo7gHXOcBS1d3j7obX5XzlZwc3quTZRklVtApqUMMOb6xZduwWRqOdWnHhtIFI2n+Dlk8InqmzAQs1pPs2TajbLlGmArdtHhbc/UncfUKm1cxhGtWubNKLrGn548qhQeM/Qd4Fcz8zcwvarNLXYU+vlzbGDcENXoz1BUMtYIwYK/RtsvSwcY4Tx9U90bYEnrpWlfZV0hfrJcPhs/NlFKIxvX2cZTbE9jZqA727YF/sJ4Ksnx8ceQmH8fOM+0S+uRp0P1h09AXjz6HiJUCjcDzMgMEinbFzVDnURhq17j2CBcPMqQ5VmGGVK1bZKMn1r2ro/Pl5DKFw/y8IAIVXTqlapi9Hw/nMQYXz9LEt1UEwaBKtJ+7zWh0fHQQTctGbIB3ZEQeA0R5SPGz57chxGKIzf/pihe3hMURl4naN7WOunm+MoBKd7yGApECnaVb5IYhMKC969PY5GKBSeD6kZRIrZAyUCZD4exyIU7qm7uB0irJrTKISbD98/QuunJ0kIY+rJw84QICwcJyEUxh8pJw87Qxh+PE5GKBQoJw+7Qmh9epKKUKAbO+4IAbwMFqMIBMreYTcI8C5UjKJyoUA1aN0NAvgQKkaRCFTz0J0gwLubMEEUQuE5RXXYCcLwPoIgEuGGYu6wCwR494gUgcYcsAuE4cfPpAiF8auNa8MOEEBwZJGEULjeOBt2gNB6G0kQgzB+s6lFY/sIragGNR6hcLNpo7R1BMjEZEIcgjP7+c4QWs9iMiEW4eblZjV62wiRQ4tkhML7zUrSthHAy/HGCBsOM6gQNjBHgjdxBPEIhfuNsoEKoU5shAnP1QgQNpyD0iAcmcRrC+BdZMeckgvjVxsgwAoFwZFmkN7/57gWNRnhdoO+AQxoEBqklSFmgJeGUChsUKFFiwaBvyTMhtareIIkhDF598Z26NZIJjaZYfjnqKkOSS4UiG17YpuKwKkNPZKuIW6Mmo4wJjXIoD71ArpFskoyfJ9QFZIRbolKEuTqGfwYLAJTdOs6gSC5IN0QTRsUO5Njj6WktRowwnhEikBkjxHrGZf/tWJKD9d6lVSOUhBuU5tVVszuhDHRUeJzWtFzZjKE6xSfMYh6VB1CUFYJxbdM8HVC15yKkFKSUE/OVIhW+TcxZ7HeJOCnxKqQgpBoq+egvXK+oGmTeL/vhmBWY6qEf4GWAuE2drhaRnrbl26adWd+rSGQVNOIzAnwJrEqpBWkm3eRFQ0CsaatvfgTqhXP9YrEN7otMeRe5Uw5MyGMIyoDBIrYEdb7Y4GhmniGXWg0fcasV214l9ixpSO8D4y4IYd6V2aw5EunFSoEwwyPTITpaQn4Wln4Y9IAiQBhzbyK02/LEQ5UFqSc/qOoNpkX2mapZcyLFHyZTJCGULhZ9gysIhbrl1pUK6rNACUCO4ruV3hVu9SrIh57tJ4lV4VUhLFbnyFqGjWzHeM1r51z1EYYUI3rG3mpIZgDoyJ+yorwCRliZVRvN2I39gg9LoMdCYKI+uCTav17VoTn+lRIfIbF4AaE3hQGDT25Qf63jHWh8EtyMiTT646yWPOUjpU0VMyM8LfERGj2fFSQySDJKlHNXG4ITxPSoJrVxfQ9o00VzeI3RGwRQeqXVn6yWc3CEPTipk7ZEf4eAzDtQN/4KbtlG6KKHrlLKDvCD1EPV7sVY20kk4txnmvWrPBmxn/kj8BPtDoXHNvns74AQXMktwON+H/kjTDR+iUlbIPLbYkEIlCSLf/d8kWYWKZdjTSa5LnKAxAzs83lDX/I2Dv7ENRp/arHlaOncTkvVEG8d3lgCnjj9R95IPD8xNJHCleON7Lmv9YG8dQKDbqWmrkg/apO9ZFopOy32dZyIUBNJnahkBBhzIgKwXah7a14wtfZJp4YgchCv0WEjNN/Z9q2bwQGvs+I8HbvCK1P2QrS+Hb/CLHeF4QIhI4M2yxIL5NW2ggQCFeft4lwd5sN4RnZyu023UiGz7MhEC4+bxMhwk97E4RrQk+MbSJkWmsrjD8SOhpuFQHQr3hiP0Oih2zZpWr4nHbdGesToR/GVhHAO9rVf1wVopdIckIg3dcGh0mD1bSFKlKfWyoE4t2Fw/f0CM9J/XkqNKvPFqlLVeIaQzLCDWmECdiiIDgSiGNwDBOa1WxL50uhOg2CJJM657XuaXzzsG5JNzIYdJ4kGukWtCTPtmSEe0IERaZzSOL7pHUNxk/dcnDmYZhyh9aPoaETNkrgGVUujD+SOeeBGX0UCZUwmEqCESARgaxfAz1azzyXIc0baa5WrMdzEsI1mV9bkz4PsCZ1orhC8f4wSU6eJJUZcq1sBLhOV0kGGrETnwQEksoMMkQiWUmzufQiC1/HZEOCw/Ob9DeDZtnd2rAa/U56bJi4bIhHuEmdcnJG0kIlgXydibBaeYzNhrtNNoXhTEjbJgkMu73KAprMWPMK49WumAIxjB5lxO8iSWxRIWiWNH+yabwM+e66T8ekriSHzfs5MhtiET4mbHsGnFIMFCGdatYWBJemdlLwv1ZkFx2HEL+VB6DqlRxMsAaoEOzQwITX+vZIiVlKgndvI4pSHELM9kJW4UpyOKAnL9N5hUX6q6sOBYxekgFR5tUYhOuougyUZse0otLa7tFN/8vVyLEJ31AtvSUqIetAMBBJAsI4tOMZcobSMWOi9AoljtKCAZi4ZpmXBLP4uKmsR4UlCl/gEvjrMoQAGZWqbsVGS5ZKiNoIkzLC0kz9fFZlOATmlTxis2rklm13rzB0Ws6y0/H3ZifdxHC2k2omrzCYFqRLtabyhd2ZQUVBZaCkh/Io4MgwHIcUjumc2LKZFgCW11xvkgxeYbBLMMxqCJp12Zf12mwUKkoRCM9rtVP50rI0gvjU0rTqtr4ZrHkQ2aQdozRRBeHXYMN6EyL4cqaqDcK5sHAxrzWZDJJc73ST8e4/Agy/BQn+FuW9E5OG7nk+XmGQq24w5P0j4KH0JUDw9D+JU2DNuGXLndkrTIFT0qw/+vt/+Qk+/z5eJ/hvwts0rFHT1/Xk4BVmKH3S2NE/fPUzfHu6RvAvojfBq+1Oc63/zsM4D5WRHNn5h+X3UXp05s+Fp1/+IPh7qW12jMAoMCevMMRcmYlOqwv9zwrh65m/Pn+J8SX0SzDtUXjzUG5LJAD1zusEk8FVdfjnma8+pzdGqlmblaMGkTmu8kAWNR8PrEbKdywWDJ9/P/u2LEm/JRHwPK/VjYoCoqdCeS9UlY1mp6upk/hCtWiWPn87+/ZbKoEz+BX6AyUpmv0W1toAalZrstUWJtHZMWf4+uvZmdesPo0hwJ/R6OtFUUk2V21nuRAPkmHHlvtTLaK99ZrWf56dzbPhlxCBpDojK/OiVlUI3MK2uOLJcgjB3rkz5uxamuCfqv7gVQVHvzvj6198bRFOuylfnFzNekDhyPZtbz0aCf4mBgfcb3p0BrppOkNoTfj29fjrN4xw9q/Cl78EQXN+rw8GzjQEsvgP8PXEAQx2FLENj83xNAYpiiE6el345czT/yrOf5uKU2LK5Q3SvXOEkFrv/s8j+JM+xu+eEZiW7BL8ZWeJdr5fBE7/CyO86GX/dMy+EGDxT4wgU4b4/R4QGPQC14Ra9nK0RwRcGV7McvgE0d4QgO1UhhfZ77NHBNjBCPSB31faGwIDMAL9RxxW2h9C8899IgxyaEcYxdxnQaKOOe8XbpJeEH8tLEEVmigSU+JAWwnidAdhlP0+UKEgOFLzKMJ5IdB5hTVoQ//7BYv5IFS27BW2fQSlTukVZubQJlVf5IBQPqf1JZkMshclyMgX1Yz3YDP4VKlF2m+E+Rjov3G1UEoMhWQ1hjlU6YyCYpceADOUMn2aKQdxTNY4VZLZ22dGQO4k+ycM+XYtj26aTqgaCtJDJbVvZK/VNILiIK+vkvLCIBzcaevpB0Z1mudnVbUaJDR+5gTAgVmuAFiCfl6O8UTKPf0sqtq5A7gQfZtJiKCXmzhUkq1tfUJ84n5YeKtZAQxFt5KjDWWUNNHqcGt1GxjGYOsfeD7C63oajrKVb+2GLIeMyoDcxyC7JtP61ayay7fCIeDwOpFtZnUv31y8YPUvajPGQAnhK1JTryjVmi5PtX18ct6VpGrtS1kvVkVD2SRHcLlRms3ioN632tv7Ljg5R0MVNMus10bDitg0kJMrbAQOhCwLEE75Y3FUrHcv24I62dvLjxIvSVKjIbStelfvFIvVx5V1Pa4Ui85b75ptrdFwrk1xHzjooIMOOuiggw466KCDDjrooIMOOuigZE3UgJbmskbozHdqi7Jh1a/RyL701m2lbmv9TFHvZ1/R3YZOOLguoHRcHwxJVoJnjFKWiDdb00nY/wYUsSeMJIdd7bjS95gPEQiM+3GaKASo9Ped3ggtEACO5j03kIOB5EPgELc8w118V8ZxT3OEni3Lp6cDzzMNjnwInHwqy7LtuYYAPeMH6bYhDwF2LMmRVgwjVPAJaeLFcICDHIIP5a0Fgrv0JnkvG1b9CN51I68ozRFU/RxrNhXcgyt3v7/mHte6qyqv1a/OF7JNLwP5rvd/WTDdf3Vt2d2o3Zp7pWaV3FO9+Z0E7/fz4O2jEOZumvEIi1xQa4hlWVCFIgfwAarUpYFYnh/rXqIaJe+spzKqdPHvfF3BVzFVA7mXc815M8d35zcrK06JxX/ixUThBxW0ug3gKrqUBWGZC94+j96qsVJ8XnlN17GMLwVcbyHAAVfm31CurlwIFdttI6ahZVDP7boe8G6CKODAmQnB78no/35Xzy1XYiBFDIvfd8RnoJvW6pYhBCG0NQkGouJlQghp8bQpfntckA1y7UgEDr9WLezk4CJMw0/hLnNEgADC5XIrXG4DLOOSdD6/BIniImBV04/ALq9nO87z2s3QbVyERffUcm4zL5mBDpa2Os/TN51O615xgj187Pn5olOM4EX2KGmCILSNEALsTqemrxGfI7D455ovGoeXDNiznNsIzdwROOyeLpTcU2XbOZ54BZdbIbg0R1IliMAOnDos6XD5vDmCG4z2UlkhnM4R3Oc+pkIQ3bnCxHsAN++d5wgIFxjNQ+D0aISLaISy3sDPCyM08kdgRFfeMZqHKX1gCD7BhTv3w0VgF87QDxcBnkweJALHOfMFb/SwnPI8LATuAqvu9QPoQnqACN58QfJuCmz1ISJ410V2bQ8RgTkgHBAOCLtC2MJIdccIONl8H1EjSHo5GWHzRhXYE6dXUUVSBKZaLC72R64hqLh3SkRo4yuEWFOYBCgRmLtSXdfndoJEhLmhAq4ch/0Tz2rRuc2cLRKB6Q2cK/R5KBZY9A8wdKz55k12g955MLfKAG75kUclAUEL7011EUwudBsUiYCv4BZBygNmYd8ZdEo+RpqGdnDDkRaPIJ2GrncRrHCQnsCnvCON85cxxnlmk5HqvAr77yvzQQRmiXCk9ZBnuoALm5iLwM+CKUQnUgoChBD/aRRCeSYsELBBkjVchA6Hj5E3/XePFbcZ0nplzm9J9CbenkHSudxFAPiCsotwpNqzHjbA9Owau0I4msyA7zYsh84DVtUTxK4JcsgLui3JyvoZAFBvkYOqXsLqmM6xYHvHGGdS845l9yrB9E65qul9N6G82fEuwRaMrntcGsxfq2BNHWm8v19wbuq/TcmWg+sDeqe0LnsedVsyw2eWhkBeFVzhu0nC6pifHy9M+BNhpcb6byq/uk3Q4r+OgOPMhW+zkioEtGScxJ7ZjvjJUiZaR3goateuFpoxDxPBaoG5Fn0bVUCRfcoKtv/saN9J2lRBBKhk3QC/cwUQgBIVhP/7ltUUm0tVRL394AiOGppP/GEL2EEHHXTQQQcddNBBBx20H/0/CzGPVR6JzKEAAAAASUVORK5CYII=;" parent="1" vertex="1">
                    <mxGeometry x="622.84" y="-50" width="67.16" height="90" as="geometry"/>
                </mxCell>
                <mxCell id="k_3_dkDdyY0LmlExJvw3-176" style="rounded=0;orthogonalLoop=1;jettySize=auto;html=1;entryX=0.002;entryY=0.573;entryDx=0;entryDy=0;entryPerimeter=0;" parent="1" source="k_3_dkDdyY0LmlExJvw3-56" target="k_3_dkDdyY0LmlExJvw3-175" edge="1">
                    <mxGeometry relative="1" as="geometry"/>
                </mxCell>
                <mxCell id="k_3_dkDdyY0LmlExJvw3-56" value="" style="shape=image;verticalLabelPosition=bottom;labelBackgroundColor=default;verticalAlign=top;aspect=fixed;imageAspect=0;image=data:image/png,iVBORw0KGgoAAAANSUhEUgAAAMIAAAEECAMAAABN+RseAAABMlBMVEX///8AK08Skk8QqlAAJ0wAJkwAKU4RplAAI0oAIUn19vjF0NgXQ2QADkAyTWkAJErr7/IAADpEVW1re40AHUcAMFbT2N06VG9bdIvh5uq0wMtmcoQAFUO4xMJPaIAAJk8yRmKwtb0mSGZpgpcZNleIkZ4AADliboGTmqY7W3YAI08AGEQAN1w6T2kTlk/d4+kOnVAAi0EQhk8RjE8FTE8Oe08MbE9yzJfE5NOLnKOMoLB3jJ+bqbYDPU8JW08AL08DN08IZU8DO08GRE8LgFBMYHgFSE8KalAHUk8KYU8Jc08GWFARsVAAHE8jPVw2j3BNsHsenF3k8uuT2K6z48ayzsI0m2ZYpn+e0rdQvnp0rpJ9wp4ys2SZuazn8uyK06ZPtHpjqYR5mJiCqJuaq66vvLwqkKsRAAASVklEQVR4nO2de3ubSJaHjUxVKBASMghJWEbWLbaELCV2nO0IEifdIYmTtLZnZruz25v0zux2f/+vsBTogriWCiTFz6PfPyECQ73U/dSpw9FRXuIdSfxE0yzTNLuDddWd36aaJkgSvozP7aE5SZpMVLU9lfVOsVKpNJsGQohjwZo45zel2RQrlWpRr5uWpqoT6bsgaQha+1IedKDoJJwDLJMuyJY5xRCVUa3et9qCKu0x+c6L71+URoqTdhYSpD2E4pDAzkDuW0JjD8mfWLJd6rE48RSp94kFCFU7JxdTYafpF7odp3BTvfpoQcCVATOwdpIZUkOrKyIiTv0dMQUDy4ZYmqpbxlA1udhEm7zedxvlFGQNpWYJW6vgvNavGWizwtN6tdHlWMCYydZkKwDTixkCm5b+1vuXm1cYiKonspo7gHXOcBS1d3j7obX5XzlZwc3quTZRklVtApqUMMOb6xZduwWRqOdWnHhtIFI2n+Dlk8InqmzAQs1pPs2TajbLlGmArdtHhbc/UncfUKm1cxhGtWubNKLrGn548qhQeM/Qd4Fcz8zcwvarNLXYU+vlzbGDcENXoz1BUMtYIwYK/RtsvSwcY4Tx9U90bYEnrpWlfZV0hfrJcPhs/NlFKIxvX2cZTbE9jZqA727YF/sJ4Ksnx8ceQmH8fOM+0S+uRp0P1h09AXjz6HiJUCjcDzMgMEinbFzVDnURhq17j2CBcPMqQ5VmGGVK1bZKMn1r2ro/Pl5DKFw/y8IAIVXTqlapi9Hw/nMQYXz9LEt1UEwaBKtJ+7zWh0fHQQTctGbIB3ZEQeA0R5SPGz57chxGKIzf/pihe3hMURl4naN7WOunm+MoBKd7yGApECnaVb5IYhMKC969PY5GKBSeD6kZRIrZAyUCZD4exyIU7qm7uB0irJrTKISbD98/QuunJ0kIY+rJw84QICwcJyEUxh8pJw87Qxh+PE5GKBQoJw+7Qmh9epKKUKAbO+4IAbwMFqMIBMreYTcI8C5UjKJyoUA1aN0NAvgQKkaRCFTz0J0gwLubMEEUQuE5RXXYCcLwPoIgEuGGYu6wCwR494gUgcYcsAuE4cfPpAiF8auNa8MOEEBwZJGEULjeOBt2gNB6G0kQgzB+s6lFY/sIragGNR6hcLNpo7R1BMjEZEIcgjP7+c4QWs9iMiEW4eblZjV62wiRQ4tkhML7zUrSthHAy/HGCBsOM6gQNjBHgjdxBPEIhfuNsoEKoU5shAnP1QgQNpyD0iAcmcRrC+BdZMeckgvjVxsgwAoFwZFmkN7/57gWNRnhdoO+AQxoEBqklSFmgJeGUChsUKFFiwaBvyTMhtareIIkhDF598Z26NZIJjaZYfjnqKkOSS4UiG17YpuKwKkNPZKuIW6Mmo4wJjXIoD71ArpFskoyfJ9QFZIRbolKEuTqGfwYLAJTdOs6gSC5IN0QTRsUO5Njj6WktRowwnhEikBkjxHrGZf/tWJKD9d6lVSOUhBuU5tVVszuhDHRUeJzWtFzZjKE6xSfMYh6VB1CUFYJxbdM8HVC15yKkFKSUE/OVIhW+TcxZ7HeJOCnxKqQgpBoq+egvXK+oGmTeL/vhmBWY6qEf4GWAuE2drhaRnrbl26adWd+rSGQVNOIzAnwJrEqpBWkm3eRFQ0CsaatvfgTqhXP9YrEN7otMeRe5Uw5MyGMIyoDBIrYEdb7Y4GhmniGXWg0fcasV214l9ixpSO8D4y4IYd6V2aw5EunFSoEwwyPTITpaQn4Wln4Y9IAiQBhzbyK02/LEQ5UFqSc/qOoNpkX2mapZcyLFHyZTJCGULhZ9gysIhbrl1pUK6rNACUCO4ruV3hVu9SrIh57tJ4lV4VUhLFbnyFqGjWzHeM1r51z1EYYUI3rG3mpIZgDoyJ+yorwCRliZVRvN2I39gg9LoMdCYKI+uCTav17VoTn+lRIfIbF4AaE3hQGDT25Qf63jHWh8EtyMiTT646yWPOUjpU0VMyM8LfERGj2fFSQySDJKlHNXG4ITxPSoJrVxfQ9o00VzeI3RGwRQeqXVn6yWc3CEPTipk7ZEf4eAzDtQN/4KbtlG6KKHrlLKDvCD1EPV7sVY20kk4txnmvWrPBmxn/kj8BPtDoXHNvns74AQXMktwON+H/kjTDR+iUlbIPLbYkEIlCSLf/d8kWYWKZdjTSa5LnKAxAzs83lDX/I2Dv7ENRp/arHlaOncTkvVEG8d3lgCnjj9R95IPD8xNJHCleON7Lmv9YG8dQKDbqWmrkg/apO9ZFopOy32dZyIUBNJnahkBBhzIgKwXah7a14wtfZJp4YgchCv0WEjNN/Z9q2bwQGvs+I8HbvCK1P2QrS+Hb/CLHeF4QIhI4M2yxIL5NW2ggQCFeft4lwd5sN4RnZyu023UiGz7MhEC4+bxMhwk97E4RrQk+MbSJkWmsrjD8SOhpuFQHQr3hiP0Oih2zZpWr4nHbdGesToR/GVhHAO9rVf1wVopdIckIg3dcGh0mD1bSFKlKfWyoE4t2Fw/f0CM9J/XkqNKvPFqlLVeIaQzLCDWmECdiiIDgSiGNwDBOa1WxL50uhOg2CJJM657XuaXzzsG5JNzIYdJ4kGukWtCTPtmSEe0IERaZzSOL7pHUNxk/dcnDmYZhyh9aPoaETNkrgGVUujD+SOeeBGX0UCZUwmEqCESARgaxfAz1azzyXIc0baa5WrMdzEsI1mV9bkz4PsCZ1orhC8f4wSU6eJJUZcq1sBLhOV0kGGrETnwQEksoMMkQiWUmzufQiC1/HZEOCw/Ob9DeDZtnd2rAa/U56bJi4bIhHuEmdcnJG0kIlgXydibBaeYzNhrtNNoXhTEjbJgkMu73KAprMWPMK49WumAIxjB5lxO8iSWxRIWiWNH+yabwM+e66T8ekriSHzfs5MhtiET4mbHsGnFIMFCGdatYWBJemdlLwv1ZkFx2HEL+VB6DqlRxMsAaoEOzQwITX+vZIiVlKgndvI4pSHELM9kJW4UpyOKAnL9N5hUX6q6sOBYxekgFR5tUYhOuougyUZse0otLa7tFN/8vVyLEJ31AtvSUqIetAMBBJAsI4tOMZcobSMWOi9AoljtKCAZi4ZpmXBLP4uKmsR4UlCl/gEvjrMoQAGZWqbsVGS5ZKiNoIkzLC0kz9fFZlOATmlTxis2rklm13rzB0Ws6y0/H3ZifdxHC2k2omrzCYFqRLtabyhd2ZQUVBZaCkh/Io4MgwHIcUjumc2LKZFgCW11xvkgxeYbBLMMxqCJp12Zf12mwUKkoRCM9rtVP50rI0gvjU0rTqtr4ZrHkQ2aQdozRRBeHXYMN6EyL4cqaqDcK5sHAxrzWZDJJc73ST8e4/Agy/BQn+FuW9E5OG7nk+XmGQq24w5P0j4KH0JUDw9D+JU2DNuGXLndkrTIFT0qw/+vt/+Qk+/z5eJ/hvwts0rFHT1/Xk4BVmKH3S2NE/fPUzfHu6RvAvojfBq+1Oc63/zsM4D5WRHNn5h+X3UXp05s+Fp1/+IPh7qW12jMAoMCevMMRcmYlOqwv9zwrh65m/Pn+J8SX0SzDtUXjzUG5LJAD1zusEk8FVdfjnma8+pzdGqlmblaMGkTmu8kAWNR8PrEbKdywWDJ9/P/u2LEm/JRHwPK/VjYoCoqdCeS9UlY1mp6upk/hCtWiWPn87+/ZbKoEz+BX6AyUpmv0W1toAalZrstUWJtHZMWf4+uvZmdesPo0hwJ/R6OtFUUk2V21nuRAPkmHHlvtTLaK99ZrWf56dzbPhlxCBpDojK/OiVlUI3MK2uOLJcgjB3rkz5uxamuCfqv7gVQVHvzvj6198bRFOuylfnFzNekDhyPZtbz0aCf4mBgfcb3p0BrppOkNoTfj29fjrN4xw9q/Cl78EQXN+rw8GzjQEsvgP8PXEAQx2FLENj83xNAYpiiE6el345czT/yrOf5uKU2LK5Q3SvXOEkFrv/s8j+JM+xu+eEZiW7BL8ZWeJdr5fBE7/CyO86GX/dMy+EGDxT4wgU4b4/R4QGPQC14Ra9nK0RwRcGV7McvgE0d4QgO1UhhfZ77NHBNjBCPSB31faGwIDMAL9RxxW2h9C8899IgxyaEcYxdxnQaKOOe8XbpJeEH8tLEEVmigSU+JAWwnidAdhlP0+UKEgOFLzKMJ5IdB5hTVoQ//7BYv5IFS27BW2fQSlTukVZubQJlVf5IBQPqf1JZkMshclyMgX1Yz3YDP4VKlF2m+E+Rjov3G1UEoMhWQ1hjlU6YyCYpceADOUMn2aKQdxTNY4VZLZ22dGQO4k+ycM+XYtj26aTqgaCtJDJbVvZK/VNILiIK+vkvLCIBzcaevpB0Z1mudnVbUaJDR+5gTAgVmuAFiCfl6O8UTKPf0sqtq5A7gQfZtJiKCXmzhUkq1tfUJ84n5YeKtZAQxFt5KjDWWUNNHqcGt1GxjGYOsfeD7C63oajrKVb+2GLIeMyoDcxyC7JtP61ayay7fCIeDwOpFtZnUv31y8YPUvajPGQAnhK1JTryjVmi5PtX18ct6VpGrtS1kvVkVD2SRHcLlRms3ioN632tv7Ljg5R0MVNMus10bDitg0kJMrbAQOhCwLEE75Y3FUrHcv24I62dvLjxIvSVKjIbStelfvFIvVx5V1Pa4Ui85b75ptrdFwrk1xHzjooIMOOuiggw466KCDDjrooIMOOuigZE3UgJbmskbozHdqi7Jh1a/RyL701m2lbmv9TFHvZ1/R3YZOOLguoHRcHwxJVoJnjFKWiDdb00nY/wYUsSeMJIdd7bjS95gPEQiM+3GaKASo9Ped3ggtEACO5j03kIOB5EPgELc8w118V8ZxT3OEni3Lp6cDzzMNjnwInHwqy7LtuYYAPeMH6bYhDwF2LMmRVgwjVPAJaeLFcICDHIIP5a0Fgrv0JnkvG1b9CN51I68ozRFU/RxrNhXcgyt3v7/mHte6qyqv1a/OF7JNLwP5rvd/WTDdf3Vt2d2o3Zp7pWaV3FO9+Z0E7/fz4O2jEOZumvEIi1xQa4hlWVCFIgfwAarUpYFYnh/rXqIaJe+spzKqdPHvfF3BVzFVA7mXc815M8d35zcrK06JxX/ixUThBxW0ug3gKrqUBWGZC94+j96qsVJ8XnlN17GMLwVcbyHAAVfm31CurlwIFdttI6ahZVDP7boe8G6CKODAmQnB78no/35Xzy1XYiBFDIvfd8RnoJvW6pYhBCG0NQkGouJlQghp8bQpfntckA1y7UgEDr9WLezk4CJMw0/hLnNEgADC5XIrXG4DLOOSdD6/BIniImBV04/ALq9nO87z2s3QbVyERffUcm4zL5mBDpa2Os/TN51O615xgj187Pn5olOM4EX2KGmCILSNEALsTqemrxGfI7D455ovGoeXDNiznNsIzdwROOyeLpTcU2XbOZ54BZdbIbg0R1IliMAOnDos6XD5vDmCG4z2UlkhnM4R3Oc+pkIQ3bnCxHsAN++d5wgIFxjNQ+D0aISLaISy3sDPCyM08kdgRFfeMZqHKX1gCD7BhTv3w0VgF87QDxcBnkweJALHOfMFb/SwnPI8LATuAqvu9QPoQnqACN58QfJuCmz1ISJ410V2bQ8RgTkgHBAOCLtC2MJIdccIONl8H1EjSHo5GWHzRhXYE6dXUUVSBKZaLC72R64hqLh3SkRo4yuEWFOYBCgRmLtSXdfndoJEhLmhAq4ch/0Tz2rRuc2cLRKB6Q2cK/R5KBZY9A8wdKz55k12g955MLfKAG75kUclAUEL7011EUwudBsUiYCv4BZBygNmYd8ZdEo+RpqGdnDDkRaPIJ2GrncRrHCQnsCnvCON85cxxnlmk5HqvAr77yvzQQRmiXCk9ZBnuoALm5iLwM+CKUQnUgoChBD/aRRCeSYsELBBkjVchA6Hj5E3/XePFbcZ0nplzm9J9CbenkHSudxFAPiCsotwpNqzHjbA9Owau0I4msyA7zYsh84DVtUTxK4JcsgLui3JyvoZAFBvkYOqXsLqmM6xYHvHGGdS845l9yrB9E65qul9N6G82fEuwRaMrntcGsxfq2BNHWm8v19wbuq/TcmWg+sDeqe0LnsedVsyw2eWhkBeFVzhu0nC6pifHy9M+BNhpcb6byq/uk3Q4r+OgOPMhW+zkioEtGScxJ7ZjvjJUiZaR3goateuFpoxDxPBaoG5Fn0bVUCRfcoKtv/saN9J2lRBBKhk3QC/cwUQgBIVhP/7ltUUm0tVRL394AiOGppP/GEL2EEHHXTQQQcddNBBBx20H/0/CzGPVR6JzKEAAAAASUVORK5CYII=;" parent="1" vertex="1">
                    <mxGeometry x="740" y="90" width="67.16" height="90" as="geometry"/>
                </mxCell>
                <mxCell id="k_3_dkDdyY0LmlExJvw3-193" style="rounded=0;orthogonalLoop=1;jettySize=auto;html=1;" parent="1" source="k_3_dkDdyY0LmlExJvw3-59" target="k_3_dkDdyY0LmlExJvw3-192" edge="1">
                    <mxGeometry relative="1" as="geometry"/>
                </mxCell>
                <mxCell id="k_3_dkDdyY0LmlExJvw3-59" value="" style="shape=image;verticalLabelPosition=bottom;labelBackgroundColor=default;verticalAlign=top;aspect=fixed;imageAspect=0;image=data:image/png,iVBORw0KGgoAAAANSUhEUgAAAMIAAAEECAMAAABN+RseAAABMlBMVEX///8AK08Skk8QqlAAJ0wAJkwAKU4RplAAI0oAIUn19vjF0NgXQ2QADkAyTWkAJErr7/IAADpEVW1re40AHUcAMFbT2N06VG9bdIvh5uq0wMtmcoQAFUO4xMJPaIAAJk8yRmKwtb0mSGZpgpcZNleIkZ4AADliboGTmqY7W3YAI08AGEQAN1w6T2kTlk/d4+kOnVAAi0EQhk8RjE8FTE8Oe08MbE9yzJfE5NOLnKOMoLB3jJ+bqbYDPU8JW08AL08DN08IZU8DO08GRE8LgFBMYHgFSE8KalAHUk8KYU8Jc08GWFARsVAAHE8jPVw2j3BNsHsenF3k8uuT2K6z48ayzsI0m2ZYpn+e0rdQvnp0rpJ9wp4ys2SZuazn8uyK06ZPtHpjqYR5mJiCqJuaq66vvLwqkKsRAAASVklEQVR4nO2de3ubSJaHjUxVKBASMghJWEbWLbaELCV2nO0IEifdIYmTtLZnZruz25v0zux2f/+vsBTogriWCiTFz6PfPyECQ73U/dSpw9FRXuIdSfxE0yzTNLuDddWd36aaJkgSvozP7aE5SZpMVLU9lfVOsVKpNJsGQohjwZo45zel2RQrlWpRr5uWpqoT6bsgaQha+1IedKDoJJwDLJMuyJY5xRCVUa3et9qCKu0x+c6L71+URoqTdhYSpD2E4pDAzkDuW0JjD8mfWLJd6rE48RSp94kFCFU7JxdTYafpF7odp3BTvfpoQcCVATOwdpIZUkOrKyIiTv0dMQUDy4ZYmqpbxlA1udhEm7zedxvlFGQNpWYJW6vgvNavGWizwtN6tdHlWMCYydZkKwDTixkCm5b+1vuXm1cYiKonspo7gHXOcBS1d3j7obX5XzlZwc3quTZRklVtApqUMMOb6xZduwWRqOdWnHhtIFI2n+Dlk8InqmzAQs1pPs2TajbLlGmArdtHhbc/UncfUKm1cxhGtWubNKLrGn548qhQeM/Qd4Fcz8zcwvarNLXYU+vlzbGDcENXoz1BUMtYIwYK/RtsvSwcY4Tx9U90bYEnrpWlfZV0hfrJcPhs/NlFKIxvX2cZTbE9jZqA727YF/sJ4Ksnx8ceQmH8fOM+0S+uRp0P1h09AXjz6HiJUCjcDzMgMEinbFzVDnURhq17j2CBcPMqQ5VmGGVK1bZKMn1r2ro/Pl5DKFw/y8IAIVXTqlapi9Hw/nMQYXz9LEt1UEwaBKtJ+7zWh0fHQQTctGbIB3ZEQeA0R5SPGz57chxGKIzf/pihe3hMURl4naN7WOunm+MoBKd7yGApECnaVb5IYhMKC969PY5GKBSeD6kZRIrZAyUCZD4exyIU7qm7uB0irJrTKISbD98/QuunJ0kIY+rJw84QICwcJyEUxh8pJw87Qxh+PE5GKBQoJw+7Qmh9epKKUKAbO+4IAbwMFqMIBMreYTcI8C5UjKJyoUA1aN0NAvgQKkaRCFTz0J0gwLubMEEUQuE5RXXYCcLwPoIgEuGGYu6wCwR494gUgcYcsAuE4cfPpAiF8auNa8MOEEBwZJGEULjeOBt2gNB6G0kQgzB+s6lFY/sIragGNR6hcLNpo7R1BMjEZEIcgjP7+c4QWs9iMiEW4eblZjV62wiRQ4tkhML7zUrSthHAy/HGCBsOM6gQNjBHgjdxBPEIhfuNsoEKoU5shAnP1QgQNpyD0iAcmcRrC+BdZMeckgvjVxsgwAoFwZFmkN7/57gWNRnhdoO+AQxoEBqklSFmgJeGUChsUKFFiwaBvyTMhtareIIkhDF598Z26NZIJjaZYfjnqKkOSS4UiG17YpuKwKkNPZKuIW6Mmo4wJjXIoD71ArpFskoyfJ9QFZIRbolKEuTqGfwYLAJTdOs6gSC5IN0QTRsUO5Njj6WktRowwnhEikBkjxHrGZf/tWJKD9d6lVSOUhBuU5tVVszuhDHRUeJzWtFzZjKE6xSfMYh6VB1CUFYJxbdM8HVC15yKkFKSUE/OVIhW+TcxZ7HeJOCnxKqQgpBoq+egvXK+oGmTeL/vhmBWY6qEf4GWAuE2drhaRnrbl26adWd+rSGQVNOIzAnwJrEqpBWkm3eRFQ0CsaatvfgTqhXP9YrEN7otMeRe5Uw5MyGMIyoDBIrYEdb7Y4GhmniGXWg0fcasV214l9ixpSO8D4y4IYd6V2aw5EunFSoEwwyPTITpaQn4Wln4Y9IAiQBhzbyK02/LEQ5UFqSc/qOoNpkX2mapZcyLFHyZTJCGULhZ9gysIhbrl1pUK6rNACUCO4ruV3hVu9SrIh57tJ4lV4VUhLFbnyFqGjWzHeM1r51z1EYYUI3rG3mpIZgDoyJ+yorwCRliZVRvN2I39gg9LoMdCYKI+uCTav17VoTn+lRIfIbF4AaE3hQGDT25Qf63jHWh8EtyMiTT646yWPOUjpU0VMyM8LfERGj2fFSQySDJKlHNXG4ITxPSoJrVxfQ9o00VzeI3RGwRQeqXVn6yWc3CEPTipk7ZEf4eAzDtQN/4KbtlG6KKHrlLKDvCD1EPV7sVY20kk4txnmvWrPBmxn/kj8BPtDoXHNvns74AQXMktwON+H/kjTDR+iUlbIPLbYkEIlCSLf/d8kWYWKZdjTSa5LnKAxAzs83lDX/I2Dv7ENRp/arHlaOncTkvVEG8d3lgCnjj9R95IPD8xNJHCleON7Lmv9YG8dQKDbqWmrkg/apO9ZFopOy32dZyIUBNJnahkBBhzIgKwXah7a14wtfZJp4YgchCv0WEjNN/Z9q2bwQGvs+I8HbvCK1P2QrS+Hb/CLHeF4QIhI4M2yxIL5NW2ggQCFeft4lwd5sN4RnZyu023UiGz7MhEC4+bxMhwk97E4RrQk+MbSJkWmsrjD8SOhpuFQHQr3hiP0Oih2zZpWr4nHbdGesToR/GVhHAO9rVf1wVopdIckIg3dcGh0mD1bSFKlKfWyoE4t2Fw/f0CM9J/XkqNKvPFqlLVeIaQzLCDWmECdiiIDgSiGNwDBOa1WxL50uhOg2CJJM657XuaXzzsG5JNzIYdJ4kGukWtCTPtmSEe0IERaZzSOL7pHUNxk/dcnDmYZhyh9aPoaETNkrgGVUujD+SOeeBGX0UCZUwmEqCESARgaxfAz1azzyXIc0baa5WrMdzEsI1mV9bkz4PsCZ1orhC8f4wSU6eJJUZcq1sBLhOV0kGGrETnwQEksoMMkQiWUmzufQiC1/HZEOCw/Ob9DeDZtnd2rAa/U56bJi4bIhHuEmdcnJG0kIlgXydibBaeYzNhrtNNoXhTEjbJgkMu73KAprMWPMK49WumAIxjB5lxO8iSWxRIWiWNH+yabwM+e66T8ekriSHzfs5MhtiET4mbHsGnFIMFCGdatYWBJemdlLwv1ZkFx2HEL+VB6DqlRxMsAaoEOzQwITX+vZIiVlKgndvI4pSHELM9kJW4UpyOKAnL9N5hUX6q6sOBYxekgFR5tUYhOuougyUZse0otLa7tFN/8vVyLEJ31AtvSUqIetAMBBJAsI4tOMZcobSMWOi9AoljtKCAZi4ZpmXBLP4uKmsR4UlCl/gEvjrMoQAGZWqbsVGS5ZKiNoIkzLC0kz9fFZlOATmlTxis2rklm13rzB0Ws6y0/H3ZifdxHC2k2omrzCYFqRLtabyhd2ZQUVBZaCkh/Io4MgwHIcUjumc2LKZFgCW11xvkgxeYbBLMMxqCJp12Zf12mwUKkoRCM9rtVP50rI0gvjU0rTqtr4ZrHkQ2aQdozRRBeHXYMN6EyL4cqaqDcK5sHAxrzWZDJJc73ST8e4/Agy/BQn+FuW9E5OG7nk+XmGQq24w5P0j4KH0JUDw9D+JU2DNuGXLndkrTIFT0qw/+vt/+Qk+/z5eJ/hvwts0rFHT1/Xk4BVmKH3S2NE/fPUzfHu6RvAvojfBq+1Oc63/zsM4D5WRHNn5h+X3UXp05s+Fp1/+IPh7qW12jMAoMCevMMRcmYlOqwv9zwrh65m/Pn+J8SX0SzDtUXjzUG5LJAD1zusEk8FVdfjnma8+pzdGqlmblaMGkTmu8kAWNR8PrEbKdywWDJ9/P/u2LEm/JRHwPK/VjYoCoqdCeS9UlY1mp6upk/hCtWiWPn87+/ZbKoEz+BX6AyUpmv0W1toAalZrstUWJtHZMWf4+uvZmdesPo0hwJ/R6OtFUUk2V21nuRAPkmHHlvtTLaK99ZrWf56dzbPhlxCBpDojK/OiVlUI3MK2uOLJcgjB3rkz5uxamuCfqv7gVQVHvzvj6198bRFOuylfnFzNekDhyPZtbz0aCf4mBgfcb3p0BrppOkNoTfj29fjrN4xw9q/Cl78EQXN+rw8GzjQEsvgP8PXEAQx2FLENj83xNAYpiiE6el345czT/yrOf5uKU2LK5Q3SvXOEkFrv/s8j+JM+xu+eEZiW7BL8ZWeJdr5fBE7/CyO86GX/dMy+EGDxT4wgU4b4/R4QGPQC14Ra9nK0RwRcGV7McvgE0d4QgO1UhhfZ77NHBNjBCPSB31faGwIDMAL9RxxW2h9C8899IgxyaEcYxdxnQaKOOe8XbpJeEH8tLEEVmigSU+JAWwnidAdhlP0+UKEgOFLzKMJ5IdB5hTVoQ//7BYv5IFS27BW2fQSlTukVZubQJlVf5IBQPqf1JZkMshclyMgX1Yz3YDP4VKlF2m+E+Rjov3G1UEoMhWQ1hjlU6YyCYpceADOUMn2aKQdxTNY4VZLZ22dGQO4k+ycM+XYtj26aTqgaCtJDJbVvZK/VNILiIK+vkvLCIBzcaevpB0Z1mudnVbUaJDR+5gTAgVmuAFiCfl6O8UTKPf0sqtq5A7gQfZtJiKCXmzhUkq1tfUJ84n5YeKtZAQxFt5KjDWWUNNHqcGt1GxjGYOsfeD7C63oajrKVb+2GLIeMyoDcxyC7JtP61ayay7fCIeDwOpFtZnUv31y8YPUvajPGQAnhK1JTryjVmi5PtX18ct6VpGrtS1kvVkVD2SRHcLlRms3ioN632tv7Ljg5R0MVNMus10bDitg0kJMrbAQOhCwLEE75Y3FUrHcv24I62dvLjxIvSVKjIbStelfvFIvVx5V1Pa4Ui85b75ptrdFwrk1xHzjooIMOOuiggw466KCDDjrooIMOOuigZE3UgJbmskbozHdqi7Jh1a/RyL701m2lbmv9TFHvZ1/R3YZOOLguoHRcHwxJVoJnjFKWiDdb00nY/wYUsSeMJIdd7bjS95gPEQiM+3GaKASo9Ped3ggtEACO5j03kIOB5EPgELc8w118V8ZxT3OEni3Lp6cDzzMNjnwInHwqy7LtuYYAPeMH6bYhDwF2LMmRVgwjVPAJaeLFcICDHIIP5a0Fgrv0JnkvG1b9CN51I68ozRFU/RxrNhXcgyt3v7/mHte6qyqv1a/OF7JNLwP5rvd/WTDdf3Vt2d2o3Zp7pWaV3FO9+Z0E7/fz4O2jEOZumvEIi1xQa4hlWVCFIgfwAarUpYFYnh/rXqIaJe+spzKqdPHvfF3BVzFVA7mXc815M8d35zcrK06JxX/ixUThBxW0ug3gKrqUBWGZC94+j96qsVJ8XnlN17GMLwVcbyHAAVfm31CurlwIFdttI6ahZVDP7boe8G6CKODAmQnB78no/35Xzy1XYiBFDIvfd8RnoJvW6pYhBCG0NQkGouJlQghp8bQpfntckA1y7UgEDr9WLezk4CJMw0/hLnNEgADC5XIrXG4DLOOSdD6/BIniImBV04/ALq9nO87z2s3QbVyERffUcm4zL5mBDpa2Os/TN51O615xgj187Pn5olOM4EX2KGmCILSNEALsTqemrxGfI7D455ovGoeXDNiznNsIzdwROOyeLpTcU2XbOZ54BZdbIbg0R1IliMAOnDos6XD5vDmCG4z2UlkhnM4R3Oc+pkIQ3bnCxHsAN++d5wgIFxjNQ+D0aISLaISy3sDPCyM08kdgRFfeMZqHKX1gCD7BhTv3w0VgF87QDxcBnkweJALHOfMFb/SwnPI8LATuAqvu9QPoQnqACN58QfJuCmz1ISJ410V2bQ8RgTkgHBAOCLtC2MJIdccIONl8H1EjSHo5GWHzRhXYE6dXUUVSBKZaLC72R64hqLh3SkRo4yuEWFOYBCgRmLtSXdfndoJEhLmhAq4ch/0Tz2rRuc2cLRKB6Q2cK/R5KBZY9A8wdKz55k12g955MLfKAG75kUclAUEL7011EUwudBsUiYCv4BZBygNmYd8ZdEo+RpqGdnDDkRaPIJ2GrncRrHCQnsCnvCON85cxxnlmk5HqvAr77yvzQQRmiXCk9ZBnuoALm5iLwM+CKUQnUgoChBD/aRRCeSYsELBBkjVchA6Hj5E3/XePFbcZ0nplzm9J9CbenkHSudxFAPiCsotwpNqzHjbA9Owau0I4msyA7zYsh84DVtUTxK4JcsgLui3JyvoZAFBvkYOqXsLqmM6xYHvHGGdS845l9yrB9E65qul9N6G82fEuwRaMrntcGsxfq2BNHWm8v19wbuq/TcmWg+sDeqe0LnsedVsyw2eWhkBeFVzhu0nC6pifHy9M+BNhpcb6byq/uk3Q4r+OgOPMhW+zkioEtGScxJ7ZjvjJUiZaR3goateuFpoxDxPBaoG5Fn0bVUCRfcoKtv/saN9J2lRBBKhk3QC/cwUQgBIVhP/7ltUUm0tVRL394AiOGppP/GEL2EEHHXTQQQcddNBBBx20H/0/CzGPVR6JzKEAAAAASUVORK5CYII=;" parent="1" vertex="1">
                    <mxGeometry x="672.84" y="590" width="67.16" height="90" as="geometry"/>
                </mxCell>
                <mxCell id="k_3_dkDdyY0LmlExJvw3-66" value="Accommodation" style="swimlane;fontStyle=0;childLayout=stackLayout;horizontal=1;startSize=30;horizontalStack=0;resizeParent=1;resizeParentMax=0;resizeLast=0;collapsible=1;marginBottom=0;whiteSpace=wrap;html=1;" parent="1" vertex="1">
                    <mxGeometry x="710" y="-886" width="310" height="390" as="geometry"/>
                </mxCell>
                <mxCell id="k_3_dkDdyY0LmlExJvw3-67" value="Guid Id" style="text;strokeColor=none;fillColor=none;align=left;verticalAlign=middle;spacingLeft=4;spacingRight=4;overflow=hidden;points=[[0,0.5],[1,0.5]];portConstraint=eastwest;rotatable=0;whiteSpace=wrap;html=1;" parent="k_3_dkDdyY0LmlExJvw3-66" vertex="1">
                    <mxGeometry y="30" width="310" height="30" as="geometry"/>
                </mxCell>
                <mxCell id="k_3_dkDdyY0LmlExJvw3-68" value="string Name" style="text;strokeColor=none;fillColor=none;align=left;verticalAlign=middle;spacingLeft=4;spacingRight=4;overflow=hidden;points=[[0,0.5],[1,0.5]];portConstraint=eastwest;rotatable=0;whiteSpace=wrap;html=1;" parent="k_3_dkDdyY0LmlExJvw3-66" vertex="1">
                    <mxGeometry y="60" width="310" height="30" as="geometry"/>
                </mxCell>
                <mxCell id="k_3_dkDdyY0LmlExJvw3-69" value="Address Address" style="text;strokeColor=none;fillColor=none;align=left;verticalAlign=middle;spacingLeft=4;spacingRight=4;overflow=hidden;points=[[0,0.5],[1,0.5]];portConstraint=eastwest;rotatable=0;whiteSpace=wrap;html=1;" parent="k_3_dkDdyY0LmlExJvw3-66" vertex="1">
                    <mxGeometry y="90" width="310" height="30" as="geometry"/>
                </mxCell>
                <mxCell id="k_3_dkDdyY0LmlExJvw3-70" value="PriceCalculation PriceCalculation" style="text;strokeColor=none;fillColor=none;align=left;verticalAlign=middle;spacingLeft=4;spacingRight=4;overflow=hidden;points=[[0,0.5],[1,0.5]];portConstraint=eastwest;rotatable=0;whiteSpace=wrap;html=1;" parent="k_3_dkDdyY0LmlExJvw3-66" vertex="1">
                    <mxGeometry y="120" width="310" height="30" as="geometry"/>
                </mxCell>
                <mxCell id="k_3_dkDdyY0LmlExJvw3-71" value="List&amp;lt;Price&amp;gt; Prices" style="text;strokeColor=none;fillColor=none;align=left;verticalAlign=middle;spacingLeft=4;spacingRight=4;overflow=hidden;points=[[0,0.5],[1,0.5]];portConstraint=eastwest;rotatable=0;whiteSpace=wrap;html=1;" parent="k_3_dkDdyY0LmlExJvw3-66" vertex="1">
                    <mxGeometry y="150" width="310" height="30" as="geometry"/>
                </mxCell>
                <mxCell id="k_3_dkDdyY0LmlExJvw3-78" value="List&amp;lt;Benefit&amp;gt; Benefits" style="text;strokeColor=none;fillColor=none;align=left;verticalAlign=middle;spacingLeft=4;spacingRight=4;overflow=hidden;points=[[0,0.5],[1,0.5]];portConstraint=eastwest;rotatable=0;whiteSpace=wrap;html=1;" parent="k_3_dkDdyY0LmlExJvw3-66" vertex="1">
                    <mxGeometry y="180" width="310" height="30" as="geometry"/>
                </mxCell>
                <mxCell id="k_3_dkDdyY0LmlExJvw3-119" value="List&amp;lt;Pictures&amp;gt; Pictures" style="text;strokeColor=none;fillColor=none;align=left;verticalAlign=middle;spacingLeft=4;spacingRight=4;overflow=hidden;points=[[0,0.5],[1,0.5]];portConstraint=eastwest;rotatable=0;whiteSpace=wrap;html=1;" parent="k_3_dkDdyY0LmlExJvw3-66" vertex="1">
                    <mxGeometry y="210" width="310" height="30" as="geometry"/>
                </mxCell>
                <mxCell id="k_3_dkDdyY0LmlExJvw3-125" value="Capacity Capacity" style="text;strokeColor=none;fillColor=none;align=left;verticalAlign=middle;spacingLeft=4;spacingRight=4;overflow=hidden;points=[[0,0.5],[1,0.5]];portConstraint=eastwest;rotatable=0;whiteSpace=wrap;html=1;" parent="k_3_dkDdyY0LmlExJvw3-66" vertex="1">
                    <mxGeometry y="240" width="310" height="30" as="geometry"/>
                </mxCell>
                <mxCell id="k_3_dkDdyY0LmlExJvw3-130" value="List&amp;lt;Reservation&amp;gt; Reservations" style="text;strokeColor=none;fillColor=none;align=left;verticalAlign=middle;spacingLeft=4;spacingRight=4;overflow=hidden;points=[[0,0.5],[1,0.5]];portConstraint=eastwest;rotatable=0;whiteSpace=wrap;html=1;" parent="k_3_dkDdyY0LmlExJvw3-66" vertex="1">
                    <mxGeometry y="270" width="310" height="30" as="geometry"/>
                </mxCell>
                <mxCell id="k_3_dkDdyY0LmlExJvw3-144" value="List&amp;lt;ReservationRequest&amp;gt; ReservationRequests" style="text;strokeColor=none;fillColor=none;align=left;verticalAlign=middle;spacingLeft=4;spacingRight=4;overflow=hidden;points=[[0,0.5],[1,0.5]];portConstraint=eastwest;rotatable=0;whiteSpace=wrap;html=1;" parent="k_3_dkDdyY0LmlExJvw3-66" vertex="1">
                    <mxGeometry y="300" width="310" height="30" as="geometry"/>
                </mxCell>
                <mxCell id="k_3_dkDdyY0LmlExJvw3-160" value="bool ReserveAutomatically" style="text;strokeColor=none;fillColor=none;align=left;verticalAlign=middle;spacingLeft=4;spacingRight=4;overflow=hidden;points=[[0,0.5],[1,0.5]];portConstraint=eastwest;rotatable=0;whiteSpace=wrap;html=1;" parent="k_3_dkDdyY0LmlExJvw3-66" vertex="1">
                    <mxGeometry y="330" width="310" height="30" as="geometry"/>
                </mxCell>
                <mxCell id="k_3_dkDdyY0LmlExJvw3-161" value="Email HostEmail" style="text;strokeColor=none;fillColor=none;align=left;verticalAlign=middle;spacingLeft=4;spacingRight=4;overflow=hidden;points=[[0,0.5],[1,0.5]];portConstraint=eastwest;rotatable=0;whiteSpace=wrap;html=1;" parent="k_3_dkDdyY0LmlExJvw3-66" vertex="1">
                    <mxGeometry y="360" width="310" height="30" as="geometry"/>
                </mxCell>
                <mxCell id="k_3_dkDdyY0LmlExJvw3-79" value="Address" style="swimlane;fontStyle=0;childLayout=stackLayout;horizontal=1;startSize=30;horizontalStack=0;resizeParent=1;resizeParentMax=0;resizeLast=0;collapsible=1;marginBottom=0;whiteSpace=wrap;html=1;" parent="1" vertex="1">
                    <mxGeometry x="1080" y="-936" width="227.16" height="150" as="geometry"/>
                </mxCell>
                <mxCell id="k_3_dkDdyY0LmlExJvw3-80" value="string Country" style="text;strokeColor=none;fillColor=none;align=left;verticalAlign=middle;spacingLeft=4;spacingRight=4;overflow=hidden;points=[[0,0.5],[1,0.5]];portConstraint=eastwest;rotatable=0;whiteSpace=wrap;html=1;" parent="k_3_dkDdyY0LmlExJvw3-79" vertex="1">
                    <mxGeometry y="30" width="227.16" height="30" as="geometry"/>
                </mxCell>
                <mxCell id="k_3_dkDdyY0LmlExJvw3-81" value="string City" style="text;strokeColor=none;fillColor=none;align=left;verticalAlign=middle;spacingLeft=4;spacingRight=4;overflow=hidden;points=[[0,0.5],[1,0.5]];portConstraint=eastwest;rotatable=0;whiteSpace=wrap;html=1;" parent="k_3_dkDdyY0LmlExJvw3-79" vertex="1">
                    <mxGeometry y="60" width="227.16" height="30" as="geometry"/>
                </mxCell>
                <mxCell id="k_3_dkDdyY0LmlExJvw3-82" value="string Street" style="text;strokeColor=none;fillColor=none;align=left;verticalAlign=middle;spacingLeft=4;spacingRight=4;overflow=hidden;points=[[0,0.5],[1,0.5]];portConstraint=eastwest;rotatable=0;whiteSpace=wrap;html=1;" parent="k_3_dkDdyY0LmlExJvw3-79" vertex="1">
                    <mxGeometry y="90" width="227.16" height="30" as="geometry"/>
                </mxCell>
                <mxCell id="k_3_dkDdyY0LmlExJvw3-83" value="string Number" style="text;strokeColor=none;fillColor=none;align=left;verticalAlign=middle;spacingLeft=4;spacingRight=4;overflow=hidden;points=[[0,0.5],[1,0.5]];portConstraint=eastwest;rotatable=0;whiteSpace=wrap;html=1;" parent="k_3_dkDdyY0LmlExJvw3-79" vertex="1">
                    <mxGeometry y="120" width="227.16" height="30" as="geometry"/>
                </mxCell>
                <mxCell id="k_3_dkDdyY0LmlExJvw3-86" style="edgeStyle=orthogonalEdgeStyle;rounded=0;orthogonalLoop=1;jettySize=auto;html=1;" parent="1" source="k_3_dkDdyY0LmlExJvw3-69" target="k_3_dkDdyY0LmlExJvw3-80" edge="1">
                    <mxGeometry relative="1" as="geometry"/>
                </mxCell>
                <mxCell id="k_3_dkDdyY0LmlExJvw3-89" value="&amp;lt;&amp;lt;enum&amp;gt;&amp;gt;&lt;br&gt;PriceCalculation" style="swimlane;fontStyle=0;childLayout=stackLayout;horizontal=1;startSize=30;horizontalStack=0;resizeParent=1;resizeParentMax=0;resizeLast=0;collapsible=1;marginBottom=0;whiteSpace=wrap;html=1;" parent="1" vertex="1">
                    <mxGeometry x="402.84000000000003" y="-896" width="227.16" height="90" as="geometry"/>
                </mxCell>
                <mxCell id="k_3_dkDdyY0LmlExJvw3-92" value="PER_PERSON" style="text;strokeColor=none;fillColor=none;align=left;verticalAlign=middle;spacingLeft=4;spacingRight=4;overflow=hidden;points=[[0,0.5],[1,0.5]];portConstraint=eastwest;rotatable=0;whiteSpace=wrap;html=1;" parent="k_3_dkDdyY0LmlExJvw3-89" vertex="1">
                    <mxGeometry y="30" width="227.16" height="30" as="geometry"/>
                </mxCell>
                <mxCell id="k_3_dkDdyY0LmlExJvw3-93" value="PER_ACCOMMODATION_UNIT" style="text;strokeColor=none;fillColor=none;align=left;verticalAlign=middle;spacingLeft=4;spacingRight=4;overflow=hidden;points=[[0,0.5],[1,0.5]];portConstraint=eastwest;rotatable=0;whiteSpace=wrap;html=1;" parent="k_3_dkDdyY0LmlExJvw3-89" vertex="1">
                    <mxGeometry y="60" width="227.16" height="30" as="geometry"/>
                </mxCell>
                <mxCell id="k_3_dkDdyY0LmlExJvw3-94" style="edgeStyle=orthogonalEdgeStyle;rounded=0;orthogonalLoop=1;jettySize=auto;html=1;entryX=1;entryY=0.25;entryDx=0;entryDy=0;" parent="1" source="k_3_dkDdyY0LmlExJvw3-70" target="k_3_dkDdyY0LmlExJvw3-89" edge="1">
                    <mxGeometry relative="1" as="geometry"/>
                </mxCell>
                <mxCell id="k_3_dkDdyY0LmlExJvw3-95" value="Price" style="swimlane;fontStyle=0;childLayout=stackLayout;horizontal=1;startSize=30;horizontalStack=0;resizeParent=1;resizeParentMax=0;resizeLast=0;collapsible=1;marginBottom=0;whiteSpace=wrap;html=1;" parent="1" vertex="1">
                    <mxGeometry x="392.84000000000003" y="-743" width="227.16" height="90" as="geometry"/>
                </mxCell>
                <mxCell id="k_3_dkDdyY0LmlExJvw3-96" value="double Value" style="text;strokeColor=none;fillColor=none;align=left;verticalAlign=middle;spacingLeft=4;spacingRight=4;overflow=hidden;points=[[0,0.5],[1,0.5]];portConstraint=eastwest;rotatable=0;whiteSpace=wrap;html=1;" parent="k_3_dkDdyY0LmlExJvw3-95" vertex="1">
                    <mxGeometry y="30" width="227.16" height="30" as="geometry"/>
                </mxCell>
                <mxCell id="k_3_dkDdyY0LmlExJvw3-97" value="DateRange DateRange" style="text;strokeColor=none;fillColor=none;align=left;verticalAlign=middle;spacingLeft=4;spacingRight=4;overflow=hidden;points=[[0,0.5],[1,0.5]];portConstraint=eastwest;rotatable=0;whiteSpace=wrap;html=1;" parent="k_3_dkDdyY0LmlExJvw3-95" vertex="1">
                    <mxGeometry y="60" width="227.16" height="30" as="geometry"/>
                </mxCell>
                <mxCell id="k_3_dkDdyY0LmlExJvw3-101" value="DateRange" style="swimlane;fontStyle=0;childLayout=stackLayout;horizontal=1;startSize=30;horizontalStack=0;resizeParent=1;resizeParentMax=0;resizeLast=0;collapsible=1;marginBottom=0;whiteSpace=wrap;html=1;" parent="1" vertex="1">
                    <mxGeometry x="80.00000000000003" y="-713" width="227.16" height="90" as="geometry"/>
                </mxCell>
                <mxCell id="k_3_dkDdyY0LmlExJvw3-102" value="DateTime Start" style="text;strokeColor=none;fillColor=none;align=left;verticalAlign=middle;spacingLeft=4;spacingRight=4;overflow=hidden;points=[[0,0.5],[1,0.5]];portConstraint=eastwest;rotatable=0;whiteSpace=wrap;html=1;" parent="k_3_dkDdyY0LmlExJvw3-101" vertex="1">
                    <mxGeometry y="30" width="227.16" height="30" as="geometry"/>
                </mxCell>
                <mxCell id="k_3_dkDdyY0LmlExJvw3-103" value="DateTime End" style="text;strokeColor=none;fillColor=none;align=left;verticalAlign=middle;spacingLeft=4;spacingRight=4;overflow=hidden;points=[[0,0.5],[1,0.5]];portConstraint=eastwest;rotatable=0;whiteSpace=wrap;html=1;" parent="k_3_dkDdyY0LmlExJvw3-101" vertex="1">
                    <mxGeometry y="60" width="227.16" height="30" as="geometry"/>
                </mxCell>
                <mxCell id="k_3_dkDdyY0LmlExJvw3-106" style="edgeStyle=orthogonalEdgeStyle;rounded=0;orthogonalLoop=1;jettySize=auto;html=1;entryX=1;entryY=0.25;entryDx=0;entryDy=0;" parent="1" source="k_3_dkDdyY0LmlExJvw3-71" target="k_3_dkDdyY0LmlExJvw3-95" edge="1">
                    <mxGeometry relative="1" as="geometry"/>
                </mxCell>
                <mxCell id="k_3_dkDdyY0LmlExJvw3-107" style="edgeStyle=orthogonalEdgeStyle;rounded=0;orthogonalLoop=1;jettySize=auto;html=1;entryX=1;entryY=0.5;entryDx=0;entryDy=0;" parent="1" source="k_3_dkDdyY0LmlExJvw3-97" target="k_3_dkDdyY0LmlExJvw3-102" edge="1">
                    <mxGeometry relative="1" as="geometry"/>
                </mxCell>
                <mxCell id="k_3_dkDdyY0LmlExJvw3-108" value="&amp;lt;&amp;lt;enum&amp;gt;&amp;gt;&lt;br&gt;Benefit" style="swimlane;fontStyle=0;childLayout=stackLayout;horizontal=1;startSize=30;horizontalStack=0;resizeParent=1;resizeParentMax=0;resizeLast=0;collapsible=1;marginBottom=0;whiteSpace=wrap;html=1;" parent="1" vertex="1">
                    <mxGeometry x="1109" y="-710" width="227.16" height="300" as="geometry"/>
                </mxCell>
                <mxCell id="k_3_dkDdyY0LmlExJvw3-109" value="WI_FI" style="text;strokeColor=none;fillColor=none;align=left;verticalAlign=middle;spacingLeft=4;spacingRight=4;overflow=hidden;points=[[0,0.5],[1,0.5]];portConstraint=eastwest;rotatable=0;whiteSpace=wrap;html=1;" parent="k_3_dkDdyY0LmlExJvw3-108" vertex="1">
                    <mxGeometry y="30" width="227.16" height="30" as="geometry"/>
                </mxCell>
                <mxCell id="k_3_dkDdyY0LmlExJvw3-110" value="KICHEN" style="text;strokeColor=none;fillColor=none;align=left;verticalAlign=middle;spacingLeft=4;spacingRight=4;overflow=hidden;points=[[0,0.5],[1,0.5]];portConstraint=eastwest;rotatable=0;whiteSpace=wrap;html=1;" parent="k_3_dkDdyY0LmlExJvw3-108" vertex="1">
                    <mxGeometry y="60" width="227.16" height="30" as="geometry"/>
                </mxCell>
                <mxCell id="k_3_dkDdyY0LmlExJvw3-111" value="AIR_CONDITIONING" style="text;strokeColor=none;fillColor=none;align=left;verticalAlign=middle;spacingLeft=4;spacingRight=4;overflow=hidden;points=[[0,0.5],[1,0.5]];portConstraint=eastwest;rotatable=0;whiteSpace=wrap;html=1;" parent="k_3_dkDdyY0LmlExJvw3-108" vertex="1">
                    <mxGeometry y="90" width="227.16" height="30" as="geometry"/>
                </mxCell>
                <mxCell id="k_3_dkDdyY0LmlExJvw3-112" value="PARKING_SPOT" style="text;strokeColor=none;fillColor=none;align=left;verticalAlign=middle;spacingLeft=4;spacingRight=4;overflow=hidden;points=[[0,0.5],[1,0.5]];portConstraint=eastwest;rotatable=0;whiteSpace=wrap;html=1;" parent="k_3_dkDdyY0LmlExJvw3-108" vertex="1">
                    <mxGeometry y="120" width="227.16" height="30" as="geometry"/>
                </mxCell>
                <mxCell id="k_3_dkDdyY0LmlExJvw3-113" value="TV" style="text;strokeColor=none;fillColor=none;align=left;verticalAlign=middle;spacingLeft=4;spacingRight=4;overflow=hidden;points=[[0,0.5],[1,0.5]];portConstraint=eastwest;rotatable=0;whiteSpace=wrap;html=1;" parent="k_3_dkDdyY0LmlExJvw3-108" vertex="1">
                    <mxGeometry y="150" width="227.16" height="30" as="geometry"/>
                </mxCell>
                <mxCell id="k_3_dkDdyY0LmlExJvw3-114" value="GYM" style="text;strokeColor=none;fillColor=none;align=left;verticalAlign=middle;spacingLeft=4;spacingRight=4;overflow=hidden;points=[[0,0.5],[1,0.5]];portConstraint=eastwest;rotatable=0;whiteSpace=wrap;html=1;" parent="k_3_dkDdyY0LmlExJvw3-108" vertex="1">
                    <mxGeometry y="180" width="227.16" height="30" as="geometry"/>
                </mxCell>
                <mxCell id="k_3_dkDdyY0LmlExJvw3-115" value="ROOM_SERVICE" style="text;strokeColor=none;fillColor=none;align=left;verticalAlign=middle;spacingLeft=4;spacingRight=4;overflow=hidden;points=[[0,0.5],[1,0.5]];portConstraint=eastwest;rotatable=0;whiteSpace=wrap;html=1;" parent="k_3_dkDdyY0LmlExJvw3-108" vertex="1">
                    <mxGeometry y="210" width="227.16" height="30" as="geometry"/>
                </mxCell>
                <mxCell id="k_3_dkDdyY0LmlExJvw3-116" value="SPA" style="text;strokeColor=none;fillColor=none;align=left;verticalAlign=middle;spacingLeft=4;spacingRight=4;overflow=hidden;points=[[0,0.5],[1,0.5]];portConstraint=eastwest;rotatable=0;whiteSpace=wrap;html=1;" parent="k_3_dkDdyY0LmlExJvw3-108" vertex="1">
                    <mxGeometry y="240" width="227.16" height="30" as="geometry"/>
                </mxCell>
                <mxCell id="k_3_dkDdyY0LmlExJvw3-117" value="PET_FRIENDLY" style="text;strokeColor=none;fillColor=none;align=left;verticalAlign=middle;spacingLeft=4;spacingRight=4;overflow=hidden;points=[[0,0.5],[1,0.5]];portConstraint=eastwest;rotatable=0;whiteSpace=wrap;html=1;" parent="k_3_dkDdyY0LmlExJvw3-108" vertex="1">
                    <mxGeometry y="270" width="227.16" height="30" as="geometry"/>
                </mxCell>
                <mxCell id="k_3_dkDdyY0LmlExJvw3-118" style="edgeStyle=orthogonalEdgeStyle;rounded=0;orthogonalLoop=1;jettySize=auto;html=1;entryX=0.009;entryY=0.063;entryDx=0;entryDy=0;entryPerimeter=0;" parent="1" source="k_3_dkDdyY0LmlExJvw3-78" target="k_3_dkDdyY0LmlExJvw3-108" edge="1">
                    <mxGeometry relative="1" as="geometry"/>
                </mxCell>
                <mxCell id="k_3_dkDdyY0LmlExJvw3-120" value="Picture" style="swimlane;fontStyle=0;childLayout=stackLayout;horizontal=1;startSize=30;horizontalStack=0;resizeParent=1;resizeParentMax=0;resizeLast=0;collapsible=1;marginBottom=0;whiteSpace=wrap;html=1;" parent="1" vertex="1">
                    <mxGeometry x="370" y="-623" width="227.16" height="120" as="geometry"/>
                </mxCell>
                <mxCell id="k_3_dkDdyY0LmlExJvw3-123" value="Guid Id" style="text;strokeColor=none;fillColor=none;align=left;verticalAlign=middle;spacingLeft=4;spacingRight=4;overflow=hidden;points=[[0,0.5],[1,0.5]];portConstraint=eastwest;rotatable=0;whiteSpace=wrap;html=1;" parent="k_3_dkDdyY0LmlExJvw3-120" vertex="1">
                    <mxGeometry y="30" width="227.16" height="30" as="geometry"/>
                </mxCell>
                <mxCell id="k_3_dkDdyY0LmlExJvw3-121" value="string FileName" style="text;strokeColor=none;fillColor=none;align=left;verticalAlign=middle;spacingLeft=4;spacingRight=4;overflow=hidden;points=[[0,0.5],[1,0.5]];portConstraint=eastwest;rotatable=0;whiteSpace=wrap;html=1;" parent="k_3_dkDdyY0LmlExJvw3-120" vertex="1">
                    <mxGeometry y="60" width="227.16" height="30" as="geometry"/>
                </mxCell>
                <mxCell id="k_3_dkDdyY0LmlExJvw3-122" value="Base64 image" style="text;strokeColor=none;fillColor=none;align=left;verticalAlign=middle;spacingLeft=4;spacingRight=4;overflow=hidden;points=[[0,0.5],[1,0.5]];portConstraint=eastwest;rotatable=0;whiteSpace=wrap;html=1;" parent="k_3_dkDdyY0LmlExJvw3-120" vertex="1">
                    <mxGeometry y="90" width="227.16" height="30" as="geometry"/>
                </mxCell>
                <mxCell id="k_3_dkDdyY0LmlExJvw3-124" style="edgeStyle=orthogonalEdgeStyle;rounded=0;orthogonalLoop=1;jettySize=auto;html=1;entryX=1;entryY=0.5;entryDx=0;entryDy=0;" parent="1" source="k_3_dkDdyY0LmlExJvw3-119" target="k_3_dkDdyY0LmlExJvw3-123" edge="1">
                    <mxGeometry relative="1" as="geometry"/>
                </mxCell>
                <mxCell id="k_3_dkDdyY0LmlExJvw3-126" value="Capacity" style="swimlane;fontStyle=0;childLayout=stackLayout;horizontal=1;startSize=30;horizontalStack=0;resizeParent=1;resizeParentMax=0;resizeLast=0;collapsible=1;marginBottom=0;whiteSpace=wrap;html=1;" parent="1" vertex="1">
                    <mxGeometry x="840" y="-476" width="227.16" height="90" as="geometry"/>
                </mxCell>
                <mxCell id="k_3_dkDdyY0LmlExJvw3-127" value="int Min" style="text;strokeColor=none;fillColor=none;align=left;verticalAlign=middle;spacingLeft=4;spacingRight=4;overflow=hidden;points=[[0,0.5],[1,0.5]];portConstraint=eastwest;rotatable=0;whiteSpace=wrap;html=1;" parent="k_3_dkDdyY0LmlExJvw3-126" vertex="1">
                    <mxGeometry y="30" width="227.16" height="30" as="geometry"/>
                </mxCell>
                <mxCell id="k_3_dkDdyY0LmlExJvw3-128" value="int Max" style="text;strokeColor=none;fillColor=none;align=left;verticalAlign=middle;spacingLeft=4;spacingRight=4;overflow=hidden;points=[[0,0.5],[1,0.5]];portConstraint=eastwest;rotatable=0;whiteSpace=wrap;html=1;" parent="k_3_dkDdyY0LmlExJvw3-126" vertex="1">
                    <mxGeometry y="60" width="227.16" height="30" as="geometry"/>
                </mxCell>
                <mxCell id="k_3_dkDdyY0LmlExJvw3-129" style="edgeStyle=orthogonalEdgeStyle;rounded=0;orthogonalLoop=1;jettySize=auto;html=1;entryX=1.004;entryY=0.194;entryDx=0;entryDy=0;entryPerimeter=0;" parent="1" source="k_3_dkDdyY0LmlExJvw3-125" target="k_3_dkDdyY0LmlExJvw3-126" edge="1">
                    <mxGeometry relative="1" as="geometry"/>
                </mxCell>
                <mxCell id="k_3_dkDdyY0LmlExJvw3-131" value="Reservation" style="swimlane;fontStyle=0;childLayout=stackLayout;horizontal=1;startSize=30;horizontalStack=0;resizeParent=1;resizeParentMax=0;resizeLast=0;collapsible=1;marginBottom=0;whiteSpace=wrap;html=1;" parent="1" vertex="1">
                    <mxGeometry x="330" y="-476" width="227.16" height="180" as="geometry"/>
                </mxCell>
                <mxCell id="k_3_dkDdyY0LmlExJvw3-132" value="Guid Id" style="text;strokeColor=none;fillColor=none;align=left;verticalAlign=middle;spacingLeft=4;spacingRight=4;overflow=hidden;points=[[0,0.5],[1,0.5]];portConstraint=eastwest;rotatable=0;whiteSpace=wrap;html=1;" parent="k_3_dkDdyY0LmlExJvw3-131" vertex="1">
                    <mxGeometry y="30" width="227.16" height="30" as="geometry"/>
                </mxCell>
                <mxCell id="k_3_dkDdyY0LmlExJvw3-134" value="DateRange ReservationDate" style="text;strokeColor=none;fillColor=none;align=left;verticalAlign=middle;spacingLeft=4;spacingRight=4;overflow=hidden;points=[[0,0.5],[1,0.5]];portConstraint=eastwest;rotatable=0;whiteSpace=wrap;html=1;" parent="k_3_dkDdyY0LmlExJvw3-131" vertex="1">
                    <mxGeometry y="60" width="227.16" height="30" as="geometry"/>
                </mxCell>
                <mxCell id="k_3_dkDdyY0LmlExJvw3-133" value="Email GuestEmail" style="text;strokeColor=none;fillColor=none;align=left;verticalAlign=middle;spacingLeft=4;spacingRight=4;overflow=hidden;points=[[0,0.5],[1,0.5]];portConstraint=eastwest;rotatable=0;whiteSpace=wrap;html=1;" parent="k_3_dkDdyY0LmlExJvw3-131" vertex="1">
                    <mxGeometry y="90" width="227.16" height="30" as="geometry"/>
                </mxCell>
                <mxCell id="k_3_dkDdyY0LmlExJvw3-141" value="int TotalPrice" style="text;strokeColor=none;fillColor=none;align=left;verticalAlign=middle;spacingLeft=4;spacingRight=4;overflow=hidden;points=[[0,0.5],[1,0.5]];portConstraint=eastwest;rotatable=0;whiteSpace=wrap;html=1;" parent="k_3_dkDdyY0LmlExJvw3-131" vertex="1">
                    <mxGeometry y="120" width="227.16" height="30" as="geometry"/>
                </mxCell>
                <mxCell id="k_3_dkDdyY0LmlExJvw3-142" value="bool IsCanceled" style="text;strokeColor=none;fillColor=none;align=left;verticalAlign=middle;spacingLeft=4;spacingRight=4;overflow=hidden;points=[[0,0.5],[1,0.5]];portConstraint=eastwest;rotatable=0;whiteSpace=wrap;html=1;" parent="k_3_dkDdyY0LmlExJvw3-131" vertex="1">
                    <mxGeometry y="150" width="227.16" height="30" as="geometry"/>
                </mxCell>
                <mxCell id="k_3_dkDdyY0LmlExJvw3-135" value="Email" style="swimlane;fontStyle=0;childLayout=stackLayout;horizontal=1;startSize=30;horizontalStack=0;resizeParent=1;resizeParentMax=0;resizeLast=0;collapsible=1;marginBottom=0;whiteSpace=wrap;html=1;" parent="1" vertex="1">
                    <mxGeometry x="10.000000000000028" y="-356" width="227.16" height="60" as="geometry"/>
                </mxCell>
                <mxCell id="k_3_dkDdyY0LmlExJvw3-136" value="string EmailAddress" style="text;strokeColor=none;fillColor=none;align=left;verticalAlign=middle;spacingLeft=4;spacingRight=4;overflow=hidden;points=[[0,0.5],[1,0.5]];portConstraint=eastwest;rotatable=0;whiteSpace=wrap;html=1;" parent="k_3_dkDdyY0LmlExJvw3-135" vertex="1">
                    <mxGeometry y="30" width="227.16" height="30" as="geometry"/>
                </mxCell>
                <mxCell id="k_3_dkDdyY0LmlExJvw3-140" style="edgeStyle=orthogonalEdgeStyle;rounded=0;orthogonalLoop=1;jettySize=auto;html=1;" parent="1" source="k_3_dkDdyY0LmlExJvw3-134" edge="1">
                    <mxGeometry relative="1" as="geometry">
                        <mxPoint x="80" y="-646" as="targetPoint"/>
                        <Array as="points">
                            <mxPoint x="40" y="-401"/>
                            <mxPoint x="40" y="-646"/>
                        </Array>
                    </mxGeometry>
                </mxCell>
                <mxCell id="k_3_dkDdyY0LmlExJvw3-143" style="edgeStyle=orthogonalEdgeStyle;rounded=0;orthogonalLoop=1;jettySize=auto;html=1;entryX=1;entryY=0.5;entryDx=0;entryDy=0;" parent="1" source="k_3_dkDdyY0LmlExJvw3-130" target="k_3_dkDdyY0LmlExJvw3-132" edge="1">
                    <mxGeometry relative="1" as="geometry">
                        <Array as="points">
                            <mxPoint x="680" y="-601"/>
                            <mxPoint x="680" y="-536"/>
                            <mxPoint x="650" y="-536"/>
                            <mxPoint x="650" y="-431"/>
                        </Array>
                    </mxGeometry>
                </mxCell>
                <mxCell id="k_3_dkDdyY0LmlExJvw3-145" value="ReservationRequest" style="swimlane;fontStyle=0;childLayout=stackLayout;horizontal=1;startSize=30;horizontalStack=0;resizeParent=1;resizeParentMax=0;resizeLast=0;collapsible=1;marginBottom=0;whiteSpace=wrap;html=1;" parent="1" vertex="1">
                    <mxGeometry x="772.84" y="-376" width="227.16" height="150" as="geometry"/>
                </mxCell>
                <mxCell id="k_3_dkDdyY0LmlExJvw3-146" value="Guid Id" style="text;strokeColor=none;fillColor=none;align=left;verticalAlign=middle;spacingLeft=4;spacingRight=4;overflow=hidden;points=[[0,0.5],[1,0.5]];portConstraint=eastwest;rotatable=0;whiteSpace=wrap;html=1;" parent="k_3_dkDdyY0LmlExJvw3-145" vertex="1">
                    <mxGeometry y="30" width="227.16" height="30" as="geometry"/>
                </mxCell>
                <mxCell id="k_3_dkDdyY0LmlExJvw3-147" value="Email GuestEmail" style="text;strokeColor=none;fillColor=none;align=left;verticalAlign=middle;spacingLeft=4;spacingRight=4;overflow=hidden;points=[[0,0.5],[1,0.5]];portConstraint=eastwest;rotatable=0;whiteSpace=wrap;html=1;" parent="k_3_dkDdyY0LmlExJvw3-145" vertex="1">
                    <mxGeometry y="60" width="227.16" height="30" as="geometry"/>
                </mxCell>
                <mxCell id="k_3_dkDdyY0LmlExJvw3-148" value="DateRange ReservationDate" style="text;strokeColor=none;fillColor=none;align=left;verticalAlign=middle;spacingLeft=4;spacingRight=4;overflow=hidden;points=[[0,0.5],[1,0.5]];portConstraint=eastwest;rotatable=0;whiteSpace=wrap;html=1;" parent="k_3_dkDdyY0LmlExJvw3-145" vertex="1">
                    <mxGeometry y="90" width="227.16" height="30" as="geometry"/>
                </mxCell>
                <mxCell id="k_3_dkDdyY0LmlExJvw3-153" value="ReservationRequestStatus Status" style="text;strokeColor=none;fillColor=none;align=left;verticalAlign=middle;spacingLeft=4;spacingRight=4;overflow=hidden;points=[[0,0.5],[1,0.5]];portConstraint=eastwest;rotatable=0;whiteSpace=wrap;html=1;" parent="k_3_dkDdyY0LmlExJvw3-145" vertex="1">
                    <mxGeometry y="120" width="227.16" height="30" as="geometry"/>
                </mxCell>
                <mxCell id="k_3_dkDdyY0LmlExJvw3-149" style="edgeStyle=orthogonalEdgeStyle;rounded=0;orthogonalLoop=1;jettySize=auto;html=1;" parent="1" source="k_3_dkDdyY0LmlExJvw3-144" edge="1">
                    <mxGeometry relative="1" as="geometry">
                        <mxPoint x="773" y="-336" as="targetPoint"/>
                        <Array as="points">
                            <mxPoint x="700" y="-571"/>
                            <mxPoint x="700" y="-336"/>
                            <mxPoint x="773" y="-336"/>
                        </Array>
                    </mxGeometry>
                </mxCell>
                <mxCell id="k_3_dkDdyY0LmlExJvw3-150" style="edgeStyle=orthogonalEdgeStyle;rounded=0;orthogonalLoop=1;jettySize=auto;html=1;entryX=1;entryY=0.5;entryDx=0;entryDy=0;exitX=0;exitY=0.5;exitDx=0;exitDy=0;" parent="1" source="k_3_dkDdyY0LmlExJvw3-147" target="k_3_dkDdyY0LmlExJvw3-136" edge="1">
                    <mxGeometry relative="1" as="geometry">
                        <Array as="points">
                            <mxPoint x="773" y="-296"/>
                            <mxPoint x="720" y="-296"/>
                            <mxPoint x="720" y="-256"/>
                            <mxPoint x="280" y="-256"/>
                            <mxPoint x="280" y="-311"/>
                        </Array>
                    </mxGeometry>
                </mxCell>
                <mxCell id="k_3_dkDdyY0LmlExJvw3-151" style="edgeStyle=orthogonalEdgeStyle;rounded=0;orthogonalLoop=1;jettySize=auto;html=1;entryX=1;entryY=0.25;entryDx=0;entryDy=0;" parent="1" source="k_3_dkDdyY0LmlExJvw3-133" target="k_3_dkDdyY0LmlExJvw3-135" edge="1">
                    <mxGeometry relative="1" as="geometry"/>
                </mxCell>
                <mxCell id="k_3_dkDdyY0LmlExJvw3-152" style="edgeStyle=orthogonalEdgeStyle;rounded=0;orthogonalLoop=1;jettySize=auto;html=1;entryX=-0.013;entryY=0.178;entryDx=0;entryDy=0;entryPerimeter=0;exitX=-0.013;exitY=0.3;exitDx=0;exitDy=0;exitPerimeter=0;" parent="1" source="k_3_dkDdyY0LmlExJvw3-148" target="k_3_dkDdyY0LmlExJvw3-101" edge="1">
                    <mxGeometry relative="1" as="geometry">
                        <Array as="points">
                            <mxPoint x="740" y="-277"/>
                            <mxPoint x="740" y="-246"/>
                            <mxPoint x="-10" y="-246"/>
                            <mxPoint x="-10" y="-697"/>
                        </Array>
                    </mxGeometry>
                </mxCell>
                <mxCell id="k_3_dkDdyY0LmlExJvw3-154" value="&amp;lt;&amp;lt;enum&amp;gt;&amp;gt;&lt;br&gt;ReservationRequestStatus" style="swimlane;fontStyle=0;childLayout=stackLayout;horizontal=1;startSize=30;horizontalStack=0;resizeParent=1;resizeParentMax=0;resizeLast=0;collapsible=1;marginBottom=0;whiteSpace=wrap;html=1;" parent="1" vertex="1">
                    <mxGeometry x="1090" y="-356" width="227.16" height="150" as="geometry"/>
                </mxCell>
                <mxCell id="k_3_dkDdyY0LmlExJvw3-155" value="PENDING" style="text;strokeColor=none;fillColor=none;align=left;verticalAlign=middle;spacingLeft=4;spacingRight=4;overflow=hidden;points=[[0,0.5],[1,0.5]];portConstraint=eastwest;rotatable=0;whiteSpace=wrap;html=1;" parent="k_3_dkDdyY0LmlExJvw3-154" vertex="1">
                    <mxGeometry y="30" width="227.16" height="30" as="geometry"/>
                </mxCell>
                <mxCell id="k_3_dkDdyY0LmlExJvw3-156" value="ACCEPTED" style="text;strokeColor=none;fillColor=none;align=left;verticalAlign=middle;spacingLeft=4;spacingRight=4;overflow=hidden;points=[[0,0.5],[1,0.5]];portConstraint=eastwest;rotatable=0;whiteSpace=wrap;html=1;" parent="k_3_dkDdyY0LmlExJvw3-154" vertex="1">
                    <mxGeometry y="60" width="227.16" height="30" as="geometry"/>
                </mxCell>
                <mxCell id="k_3_dkDdyY0LmlExJvw3-157" value="REJECTED" style="text;strokeColor=none;fillColor=none;align=left;verticalAlign=middle;spacingLeft=4;spacingRight=4;overflow=hidden;points=[[0,0.5],[1,0.5]];portConstraint=eastwest;rotatable=0;whiteSpace=wrap;html=1;" parent="k_3_dkDdyY0LmlExJvw3-154" vertex="1">
                    <mxGeometry y="90" width="227.16" height="30" as="geometry"/>
                </mxCell>
                <mxCell id="k_3_dkDdyY0LmlExJvw3-158" value="CANCELED" style="text;strokeColor=none;fillColor=none;align=left;verticalAlign=middle;spacingLeft=4;spacingRight=4;overflow=hidden;points=[[0,0.5],[1,0.5]];portConstraint=eastwest;rotatable=0;whiteSpace=wrap;html=1;" parent="k_3_dkDdyY0LmlExJvw3-154" vertex="1">
                    <mxGeometry y="120" width="227.16" height="30" as="geometry"/>
                </mxCell>
                <mxCell id="k_3_dkDdyY0LmlExJvw3-159" style="edgeStyle=orthogonalEdgeStyle;rounded=0;orthogonalLoop=1;jettySize=auto;html=1;entryX=0.004;entryY=0.133;entryDx=0;entryDy=0;entryPerimeter=0;" parent="1" source="k_3_dkDdyY0LmlExJvw3-153" target="k_3_dkDdyY0LmlExJvw3-154" edge="1">
                    <mxGeometry relative="1" as="geometry"/>
                </mxCell>
                <mxCell id="k_3_dkDdyY0LmlExJvw3-162" style="edgeStyle=orthogonalEdgeStyle;rounded=0;orthogonalLoop=1;jettySize=auto;html=1;entryX=0.621;entryY=0.033;entryDx=0;entryDy=0;entryPerimeter=0;exitX=0;exitY=0.5;exitDx=0;exitDy=0;" parent="1" source="k_3_dkDdyY0LmlExJvw3-161" target="k_3_dkDdyY0LmlExJvw3-135" edge="1">
                    <mxGeometry relative="1" as="geometry">
                        <Array as="points">
                            <mxPoint x="670" y="-511"/>
                            <mxPoint x="670" y="-486"/>
                            <mxPoint x="151" y="-486"/>
                        </Array>
                    </mxGeometry>
                </mxCell>
                <mxCell id="k_3_dkDdyY0LmlExJvw3-167" value="GuestNotification" style="swimlane;fontStyle=0;childLayout=stackLayout;horizontal=1;startSize=30;horizontalStack=0;resizeParent=1;resizeParentMax=0;resizeLast=0;collapsible=1;marginBottom=0;whiteSpace=wrap;html=1;" parent="1" vertex="1">
                    <mxGeometry x="1120" y="40" width="227.16" height="150" as="geometry"/>
                </mxCell>
                <mxCell id="k_3_dkDdyY0LmlExJvw3-168" value="Guid Id" style="text;strokeColor=none;fillColor=none;align=left;verticalAlign=middle;spacingLeft=4;spacingRight=4;overflow=hidden;points=[[0,0.5],[1,0.5]];portConstraint=eastwest;rotatable=0;whiteSpace=wrap;html=1;" parent="k_3_dkDdyY0LmlExJvw3-167" vertex="1">
                    <mxGeometry y="30" width="227.16" height="30" as="geometry"/>
                </mxCell>
                <mxCell id="k_3_dkDdyY0LmlExJvw3-169" value="Email GuestEmail" style="text;strokeColor=none;fillColor=none;align=left;verticalAlign=middle;spacingLeft=4;spacingRight=4;overflow=hidden;points=[[0,0.5],[1,0.5]];portConstraint=eastwest;rotatable=0;whiteSpace=wrap;html=1;" parent="k_3_dkDdyY0LmlExJvw3-167" vertex="1">
                    <mxGeometry y="60" width="227.16" height="30" as="geometry"/>
                </mxCell>
                <mxCell id="k_3_dkDdyY0LmlExJvw3-170" value="DateTime LastModified" style="text;strokeColor=none;fillColor=none;align=left;verticalAlign=middle;spacingLeft=4;spacingRight=4;overflow=hidden;points=[[0,0.5],[1,0.5]];portConstraint=eastwest;rotatable=0;whiteSpace=wrap;html=1;" parent="k_3_dkDdyY0LmlExJvw3-167" vertex="1">
                    <mxGeometry y="90" width="227.16" height="30" as="geometry"/>
                </mxCell>
                <mxCell id="k_3_dkDdyY0LmlExJvw3-171" value="bool ReceiveAnswer" style="text;strokeColor=none;fillColor=none;align=left;verticalAlign=middle;spacingLeft=4;spacingRight=4;overflow=hidden;points=[[0,0.5],[1,0.5]];portConstraint=eastwest;rotatable=0;whiteSpace=wrap;html=1;" parent="k_3_dkDdyY0LmlExJvw3-167" vertex="1">
                    <mxGeometry y="120" width="227.16" height="30" as="geometry"/>
                </mxCell>
                <mxCell id="k_3_dkDdyY0LmlExJvw3-172" value="Email" style="swimlane;fontStyle=0;childLayout=stackLayout;horizontal=1;startSize=30;horizontalStack=0;resizeParent=1;resizeParentMax=0;resizeLast=0;collapsible=1;marginBottom=0;whiteSpace=wrap;html=1;" parent="1" vertex="1">
                    <mxGeometry x="1430" y="70" width="227.16" height="60" as="geometry"/>
                </mxCell>
                <mxCell id="k_3_dkDdyY0LmlExJvw3-173" value="string EmailAddress" style="text;strokeColor=none;fillColor=none;align=left;verticalAlign=middle;spacingLeft=4;spacingRight=4;overflow=hidden;points=[[0,0.5],[1,0.5]];portConstraint=eastwest;rotatable=0;whiteSpace=wrap;html=1;" parent="k_3_dkDdyY0LmlExJvw3-172" vertex="1">
                    <mxGeometry y="30" width="227.16" height="30" as="geometry"/>
                </mxCell>
                <mxCell id="k_3_dkDdyY0LmlExJvw3-174" style="edgeStyle=orthogonalEdgeStyle;rounded=0;orthogonalLoop=1;jettySize=auto;html=1;entryX=0;entryY=0.25;entryDx=0;entryDy=0;" parent="1" source="k_3_dkDdyY0LmlExJvw3-168" target="k_3_dkDdyY0LmlExJvw3-172" edge="1">
                    <mxGeometry relative="1" as="geometry"/>
                </mxCell>
                <mxCell id="k_3_dkDdyY0LmlExJvw3-178" value="User" style="swimlane;fontStyle=0;childLayout=stackLayout;horizontal=1;startSize=30;horizontalStack=0;resizeParent=1;resizeParentMax=0;resizeLast=0;collapsible=1;marginBottom=0;whiteSpace=wrap;html=1;" parent="1" vertex="1">
                    <mxGeometry x="990" y="570" width="227.16" height="210" as="geometry"/>
                </mxCell>
                <mxCell id="k_3_dkDdyY0LmlExJvw3-179" value="Guid Id" style="text;strokeColor=none;fillColor=none;align=left;verticalAlign=middle;spacingLeft=4;spacingRight=4;overflow=hidden;points=[[0,0.5],[1,0.5]];portConstraint=eastwest;rotatable=0;whiteSpace=wrap;html=1;" parent="k_3_dkDdyY0LmlExJvw3-178" vertex="1">
                    <mxGeometry y="30" width="227.16" height="30" as="geometry"/>
                </mxCell>
                <mxCell id="k_3_dkDdyY0LmlExJvw3-180" value="string Email" style="text;strokeColor=none;fillColor=none;align=left;verticalAlign=middle;spacingLeft=4;spacingRight=4;overflow=hidden;points=[[0,0.5],[1,0.5]];portConstraint=eastwest;rotatable=0;whiteSpace=wrap;html=1;" parent="k_3_dkDdyY0LmlExJvw3-178" vertex="1">
                    <mxGeometry y="60" width="227.16" height="30" as="geometry"/>
                </mxCell>
                <mxCell id="k_3_dkDdyY0LmlExJvw3-181" value="string Name" style="text;strokeColor=none;fillColor=none;align=left;verticalAlign=middle;spacingLeft=4;spacingRight=4;overflow=hidden;points=[[0,0.5],[1,0.5]];portConstraint=eastwest;rotatable=0;whiteSpace=wrap;html=1;" parent="k_3_dkDdyY0LmlExJvw3-178" vertex="1">
                    <mxGeometry y="90" width="227.16" height="30" as="geometry"/>
                </mxCell>
                <mxCell id="k_3_dkDdyY0LmlExJvw3-182" value="string Surname" style="text;strokeColor=none;fillColor=none;align=left;verticalAlign=middle;spacingLeft=4;spacingRight=4;overflow=hidden;points=[[0,0.5],[1,0.5]];portConstraint=eastwest;rotatable=0;whiteSpace=wrap;html=1;" parent="k_3_dkDdyY0LmlExJvw3-178" vertex="1">
                    <mxGeometry y="120" width="227.16" height="30" as="geometry"/>
                </mxCell>
                <mxCell id="k_3_dkDdyY0LmlExJvw3-184" value="string Role" style="text;strokeColor=none;fillColor=none;align=left;verticalAlign=middle;spacingLeft=4;spacingRight=4;overflow=hidden;points=[[0,0.5],[1,0.5]];portConstraint=eastwest;rotatable=0;whiteSpace=wrap;html=1;" parent="k_3_dkDdyY0LmlExJvw3-178" vertex="1">
                    <mxGeometry y="150" width="227.16" height="30" as="geometry"/>
                </mxCell>
                <mxCell id="k_3_dkDdyY0LmlExJvw3-185" value="Address Address" style="text;strokeColor=none;fillColor=none;align=left;verticalAlign=middle;spacingLeft=4;spacingRight=4;overflow=hidden;points=[[0,0.5],[1,0.5]];portConstraint=eastwest;rotatable=0;whiteSpace=wrap;html=1;" parent="k_3_dkDdyY0LmlExJvw3-178" vertex="1">
                    <mxGeometry y="180" width="227.16" height="30" as="geometry"/>
                </mxCell>
                <mxCell id="k_3_dkDdyY0LmlExJvw3-186" value="Address" style="swimlane;fontStyle=0;childLayout=stackLayout;horizontal=1;startSize=30;horizontalStack=0;resizeParent=1;resizeParentMax=0;resizeLast=0;collapsible=1;marginBottom=0;whiteSpace=wrap;html=1;" parent="1" vertex="1">
                    <mxGeometry x="1280" y="742" width="227.16" height="150" as="geometry"/>
                </mxCell>
                <mxCell id="k_3_dkDdyY0LmlExJvw3-187" value="string Country" style="text;strokeColor=none;fillColor=none;align=left;verticalAlign=middle;spacingLeft=4;spacingRight=4;overflow=hidden;points=[[0,0.5],[1,0.5]];portConstraint=eastwest;rotatable=0;whiteSpace=wrap;html=1;" parent="k_3_dkDdyY0LmlExJvw3-186" vertex="1">
                    <mxGeometry y="30" width="227.16" height="30" as="geometry"/>
                </mxCell>
                <mxCell id="k_3_dkDdyY0LmlExJvw3-188" value="string City" style="text;strokeColor=none;fillColor=none;align=left;verticalAlign=middle;spacingLeft=4;spacingRight=4;overflow=hidden;points=[[0,0.5],[1,0.5]];portConstraint=eastwest;rotatable=0;whiteSpace=wrap;html=1;" parent="k_3_dkDdyY0LmlExJvw3-186" vertex="1">
                    <mxGeometry y="60" width="227.16" height="30" as="geometry"/>
                </mxCell>
                <mxCell id="k_3_dkDdyY0LmlExJvw3-189" value="string Street" style="text;strokeColor=none;fillColor=none;align=left;verticalAlign=middle;spacingLeft=4;spacingRight=4;overflow=hidden;points=[[0,0.5],[1,0.5]];portConstraint=eastwest;rotatable=0;whiteSpace=wrap;html=1;" parent="k_3_dkDdyY0LmlExJvw3-186" vertex="1">
                    <mxGeometry y="90" width="227.16" height="30" as="geometry"/>
                </mxCell>
                <mxCell id="k_3_dkDdyY0LmlExJvw3-190" value="string Number" style="text;strokeColor=none;fillColor=none;align=left;verticalAlign=middle;spacingLeft=4;spacingRight=4;overflow=hidden;points=[[0,0.5],[1,0.5]];portConstraint=eastwest;rotatable=0;whiteSpace=wrap;html=1;" parent="k_3_dkDdyY0LmlExJvw3-186" vertex="1">
                    <mxGeometry y="120" width="227.16" height="30" as="geometry"/>
                </mxCell>
                <mxCell id="k_3_dkDdyY0LmlExJvw3-191" style="edgeStyle=orthogonalEdgeStyle;rounded=0;orthogonalLoop=1;jettySize=auto;html=1;entryX=0.005;entryY=0.152;entryDx=0;entryDy=0;entryPerimeter=0;" parent="1" source="k_3_dkDdyY0LmlExJvw3-185" target="k_3_dkDdyY0LmlExJvw3-186" edge="1">
                    <mxGeometry relative="1" as="geometry"/>
                </mxCell>
                <mxCell id="k_3_dkDdyY0LmlExJvw3-194" value="Arrival" style="swimlane;fontStyle=0;childLayout=stackLayout;horizontal=1;startSize=30;horizontalStack=0;resizeParent=1;resizeParentMax=0;resizeLast=0;collapsible=1;marginBottom=0;whiteSpace=wrap;html=1;" parent="1" vertex="1">
                    <mxGeometry x="-400" y="-120" width="227.16" height="90" as="geometry"/>
                </mxCell>
                <mxCell id="k_3_dkDdyY0LmlExJvw3-195" value="DateTime Time" style="text;strokeColor=none;fillColor=none;align=left;verticalAlign=middle;spacingLeft=4;spacingRight=4;overflow=hidden;points=[[0,0.5],[1,0.5]];portConstraint=eastwest;rotatable=0;whiteSpace=wrap;html=1;" parent="k_3_dkDdyY0LmlExJvw3-194" vertex="1">
                    <mxGeometry y="30" width="227.16" height="30" as="geometry"/>
                </mxCell>
                <mxCell id="k_3_dkDdyY0LmlExJvw3-196" value="string City" style="text;strokeColor=none;fillColor=none;align=left;verticalAlign=middle;spacingLeft=4;spacingRight=4;overflow=hidden;points=[[0,0.5],[1,0.5]];portConstraint=eastwest;rotatable=0;whiteSpace=wrap;html=1;" parent="k_3_dkDdyY0LmlExJvw3-194" vertex="1">
                    <mxGeometry y="60" width="227.16" height="30" as="geometry"/>
                </mxCell>
                <mxCell id="k_3_dkDdyY0LmlExJvw3-200" value="Departure" style="swimlane;fontStyle=0;childLayout=stackLayout;horizontal=1;startSize=30;horizontalStack=0;resizeParent=1;resizeParentMax=0;resizeLast=0;collapsible=1;marginBottom=0;whiteSpace=wrap;html=1;" parent="1" vertex="1">
                    <mxGeometry x="-667" y="-120" width="227.16" height="90" as="geometry"/>
                </mxCell>
                <mxCell id="k_3_dkDdyY0LmlExJvw3-201" value="DateTime Time" style="text;strokeColor=none;fillColor=none;align=left;verticalAlign=middle;spacingLeft=4;spacingRight=4;overflow=hidden;points=[[0,0.5],[1,0.5]];portConstraint=eastwest;rotatable=0;whiteSpace=wrap;html=1;" parent="k_3_dkDdyY0LmlExJvw3-200" vertex="1">
                    <mxGeometry y="30" width="227.16" height="30" as="geometry"/>
                </mxCell>
                <mxCell id="k_3_dkDdyY0LmlExJvw3-202" value="string City" style="text;strokeColor=none;fillColor=none;align=left;verticalAlign=middle;spacingLeft=4;spacingRight=4;overflow=hidden;points=[[0,0.5],[1,0.5]];portConstraint=eastwest;rotatable=0;whiteSpace=wrap;html=1;" parent="k_3_dkDdyY0LmlExJvw3-200" vertex="1">
                    <mxGeometry y="60" width="227.16" height="30" as="geometry"/>
                </mxCell>
                <mxCell id="k_3_dkDdyY0LmlExJvw3-203" value="Flight" style="swimlane;fontStyle=0;childLayout=stackLayout;horizontal=1;startSize=30;horizontalStack=0;resizeParent=1;resizeParentMax=0;resizeLast=0;collapsible=1;marginBottom=0;whiteSpace=wrap;html=1;" parent="1" vertex="1">
                    <mxGeometry x="-554" y="25" width="227.16" height="240" as="geometry"/>
                </mxCell>
                <mxCell id="k_3_dkDdyY0LmlExJvw3-204" value="Guid Id" style="text;strokeColor=none;fillColor=none;align=left;verticalAlign=middle;spacingLeft=4;spacingRight=4;overflow=hidden;points=[[0,0.5],[1,0.5]];portConstraint=eastwest;rotatable=0;whiteSpace=wrap;html=1;" parent="k_3_dkDdyY0LmlExJvw3-203" vertex="1">
                    <mxGeometry y="30" width="227.16" height="30" as="geometry"/>
                </mxCell>
                <mxCell id="k_3_dkDdyY0LmlExJvw3-205" value="Departure Departure" style="text;strokeColor=none;fillColor=none;align=left;verticalAlign=middle;spacingLeft=4;spacingRight=4;overflow=hidden;points=[[0,0.5],[1,0.5]];portConstraint=eastwest;rotatable=0;whiteSpace=wrap;html=1;" parent="k_3_dkDdyY0LmlExJvw3-203" vertex="1">
                    <mxGeometry y="60" width="227.16" height="30" as="geometry"/>
                </mxCell>
                <mxCell id="k_3_dkDdyY0LmlExJvw3-207" value="Arrival Arrival" style="text;strokeColor=none;fillColor=none;align=left;verticalAlign=middle;spacingLeft=4;spacingRight=4;overflow=hidden;points=[[0,0.5],[1,0.5]];portConstraint=eastwest;rotatable=0;whiteSpace=wrap;html=1;" parent="k_3_dkDdyY0LmlExJvw3-203" vertex="1">
                    <mxGeometry y="90" width="227.16" height="30" as="geometry"/>
                </mxCell>
                <mxCell id="k_3_dkDdyY0LmlExJvw3-209" value="int TotalTickets" style="text;strokeColor=none;fillColor=none;align=left;verticalAlign=middle;spacingLeft=4;spacingRight=4;overflow=hidden;points=[[0,0.5],[1,0.5]];portConstraint=eastwest;rotatable=0;whiteSpace=wrap;html=1;" parent="k_3_dkDdyY0LmlExJvw3-203" vertex="1">
                    <mxGeometry y="120" width="227.16" height="30" as="geometry"/>
                </mxCell>
                <mxCell id="k_3_dkDdyY0LmlExJvw3-210" value="double TicketPrice" style="text;strokeColor=none;fillColor=none;align=left;verticalAlign=middle;spacingLeft=4;spacingRight=4;overflow=hidden;points=[[0,0.5],[1,0.5]];portConstraint=eastwest;rotatable=0;whiteSpace=wrap;html=1;" parent="k_3_dkDdyY0LmlExJvw3-203" vertex="1">
                    <mxGeometry y="150" width="227.16" height="30" as="geometry"/>
                </mxCell>
                <mxCell id="k_3_dkDdyY0LmlExJvw3-211" value="bool IsDeleted" style="text;strokeColor=none;fillColor=none;align=left;verticalAlign=middle;spacingLeft=4;spacingRight=4;overflow=hidden;points=[[0,0.5],[1,0.5]];portConstraint=eastwest;rotatable=0;whiteSpace=wrap;html=1;" parent="k_3_dkDdyY0LmlExJvw3-203" vertex="1">
                    <mxGeometry y="180" width="227.16" height="30" as="geometry"/>
                </mxCell>
                <mxCell id="k_3_dkDdyY0LmlExJvw3-212" value="List&amp;lt;SoldTicket&amp;gt; SoldTickets" style="text;strokeColor=none;fillColor=none;align=left;verticalAlign=middle;spacingLeft=4;spacingRight=4;overflow=hidden;points=[[0,0.5],[1,0.5]];portConstraint=eastwest;rotatable=0;whiteSpace=wrap;html=1;" parent="k_3_dkDdyY0LmlExJvw3-203" vertex="1">
                    <mxGeometry y="210" width="227.16" height="30" as="geometry"/>
                </mxCell>
                <mxCell id="k_3_dkDdyY0LmlExJvw3-206" style="edgeStyle=orthogonalEdgeStyle;rounded=0;orthogonalLoop=1;jettySize=auto;html=1;entryX=0;entryY=0.25;entryDx=0;entryDy=0;" parent="1" source="k_3_dkDdyY0LmlExJvw3-205" target="k_3_dkDdyY0LmlExJvw3-200" edge="1">
                    <mxGeometry relative="1" as="geometry"/>
                </mxCell>
                <mxCell id="k_3_dkDdyY0LmlExJvw3-208" style="edgeStyle=orthogonalEdgeStyle;rounded=0;orthogonalLoop=1;jettySize=auto;html=1;entryX=1;entryY=0.25;entryDx=0;entryDy=0;" parent="1" source="k_3_dkDdyY0LmlExJvw3-207" target="k_3_dkDdyY0LmlExJvw3-194" edge="1">
                    <mxGeometry relative="1" as="geometry"/>
                </mxCell>
                <mxCell id="k_3_dkDdyY0LmlExJvw3-213" value="SoldTicket" style="swimlane;fontStyle=0;childLayout=stackLayout;horizontal=1;startSize=30;horizontalStack=0;resizeParent=1;resizeParentMax=0;resizeLast=0;collapsible=1;marginBottom=0;whiteSpace=wrap;html=1;" parent="1" vertex="1">
                    <mxGeometry x="-860" y="255" width="227.16" height="150" as="geometry"/>
                </mxCell>
                <mxCell id="k_3_dkDdyY0LmlExJvw3-214" value="Guid Id" style="text;strokeColor=none;fillColor=none;align=left;verticalAlign=middle;spacingLeft=4;spacingRight=4;overflow=hidden;points=[[0,0.5],[1,0.5]];portConstraint=eastwest;rotatable=0;whiteSpace=wrap;html=1;" parent="k_3_dkDdyY0LmlExJvw3-213" vertex="1">
                    <mxGeometry y="30" width="227.16" height="30" as="geometry"/>
                </mxCell>
                <mxCell id="k_3_dkDdyY0LmlExJvw3-215" value="DateTime Purchased" style="text;strokeColor=none;fillColor=none;align=left;verticalAlign=middle;spacingLeft=4;spacingRight=4;overflow=hidden;points=[[0,0.5],[1,0.5]];portConstraint=eastwest;rotatable=0;whiteSpace=wrap;html=1;" parent="k_3_dkDdyY0LmlExJvw3-213" vertex="1">
                    <mxGeometry y="60" width="227.16" height="30" as="geometry"/>
                </mxCell>
                <mxCell id="k_3_dkDdyY0LmlExJvw3-216" value="string UserId" style="text;strokeColor=none;fillColor=none;align=left;verticalAlign=middle;spacingLeft=4;spacingRight=4;overflow=hidden;points=[[0,0.5],[1,0.5]];portConstraint=eastwest;rotatable=0;whiteSpace=wrap;html=1;" parent="k_3_dkDdyY0LmlExJvw3-213" vertex="1">
                    <mxGeometry y="90" width="227.16" height="30" as="geometry"/>
                </mxCell>
                <mxCell id="k_3_dkDdyY0LmlExJvw3-217" value="double Price" style="text;strokeColor=none;fillColor=none;align=left;verticalAlign=middle;spacingLeft=4;spacingRight=4;overflow=hidden;points=[[0,0.5],[1,0.5]];portConstraint=eastwest;rotatable=0;whiteSpace=wrap;html=1;" parent="k_3_dkDdyY0LmlExJvw3-213" vertex="1">
                    <mxGeometry y="120" width="227.16" height="30" as="geometry"/>
                </mxCell>
                <mxCell id="k_3_dkDdyY0LmlExJvw3-219" style="edgeStyle=orthogonalEdgeStyle;rounded=0;orthogonalLoop=1;jettySize=auto;html=1;entryX=1.013;entryY=0.133;entryDx=0;entryDy=0;entryPerimeter=0;" parent="1" source="k_3_dkDdyY0LmlExJvw3-212" target="k_3_dkDdyY0LmlExJvw3-213" edge="1">
                    <mxGeometry relative="1" as="geometry"/>
                </mxCell>
            </root>
        </mxGraphModel>
    </diagram>
</mxfile>